<?xml version="1.0" encoding="utf-8"?>
<!-- Generator: Adobe Illustrator 28.0.0, SVG Export Plug-In . SVG Version: 6.00 Build 0)  -->
<svg version="1.1" xmlns="http://www.w3.org/2000/svg" xmlns:xlink="http://www.w3.org/1999/xlink" x="0px" y="0px"
	 viewBox="0 0 900 500" style="enable-background:new 0 0 900 500;" xml:space="preserve">
<style type="text/css">
	.st0{fill:#6CC9FF;}
	.st1{opacity:0.7;}
	.st2{fill:#FFFFFF;}
	.st3{opacity:0.2;fill:#121212;}
	.st4{fill:#FFFFFF;stroke:#121212;stroke-width:1.1934;stroke-miterlimit:10;}
	.st5{fill:#121212;stroke:#FFFFFF;stroke-width:1.1934;stroke-miterlimit:10;}
	.st6{opacity:0.2;}
	.st7{fill:#6CC9FF;stroke:#121212;stroke-width:1.1934;stroke-linecap:round;stroke-linejoin:round;stroke-miterlimit:10;}
	.st8{fill:#121212;}
	.st9{clip-path:url(#XMLID_00000135689788625239949740000006870494757109018284_);}
	.st10{opacity:0.5;fill:#FFFFFF;}
	.st11{opacity:0.5;}
	.st12{fill:none;}
	.st13{fill:none;stroke:#121212;stroke-width:1.1934;stroke-miterlimit:10;}
	.st14{clip-path:url(#XMLID_00000060749559342894343420000001978396032493795756_);fill:#6CC9FF;}
	.st15{clip-path:url(#XMLID_00000060749559342894343420000001978396032493795756_);}
	.st16{opacity:0.5;clip-path:url(#XMLID_00000060749559342894343420000001978396032493795756_);fill:#FFFFFF;}
	.st17{opacity:0.5;clip-path:url(#XMLID_00000060749559342894343420000001978396032493795756_);}
	.st18{fill:none;stroke:#121212;stroke-width:1.1934;stroke-linecap:round;stroke-linejoin:round;stroke-miterlimit:10;}
	.st19{fill:#FFFFFF;stroke:#121212;stroke-width:1.1934;stroke-linecap:round;stroke-linejoin:round;stroke-miterlimit:10;}
	.st20{fill:#757575;stroke:#121212;stroke-width:1.1934;stroke-linecap:round;stroke-linejoin:round;stroke-miterlimit:10;}
	.st21{fill:#999999;stroke:#121212;stroke-width:1.1934;stroke-linecap:round;stroke-linejoin:round;stroke-miterlimit:10;}
	.st22{fill:#C0C0C0;stroke:#121212;stroke-width:1.1934;stroke-linecap:round;stroke-linejoin:round;stroke-miterlimit:10;}
	.st23{opacity:0.1;fill:#FFFFFF;}
	.st24{clip-path:url(#XMLID_00000023263649312669380360000002662769065682114696_);}
</style>
<g id="Background_Simple">
	<g>
		<path class="st0" d="M726.5,245.1c0,11.5-1.3,22.9-4,34c-0.9,3.7-2,7.3-3.2,10.9c-0.4,1-0.7,2.1-1.1,3.1c-0.3,0.8-0.6,1.7-1,2.5
			c-0.1,0.2-0.2,0.5-0.3,0.7c-0.3,0.9-0.7,1.7-1.1,2.6c-0.1,0.1-0.1,0.3-0.2,0.4c-0.4,0.8-0.7,1.7-1.1,2.5c-0.2,0.4-0.3,0.7-0.5,1.1
			c-0.3,0.7-0.7,1.5-1,2.2c-0.4,0.8-0.8,1.5-1.1,2.3c-0.1,0.3-0.3,0.5-0.4,0.8c-0.3,0.7-0.7,1.3-1,2c-0.3,0.5-0.5,1-0.8,1.5
			c-1.3,2.3-2.6,4.6-4,6.9c-0.6,0.9-1.1,1.9-1.7,2.8c-0.1,0.2-0.3,0.5-0.4,0.7c-0.7,1.1-1.3,2.1-2,3.2c-0.6,0.8-1.1,1.7-1.7,2.5
			c-0.5,0.7-1,1.5-1.5,2.2c-0.1,0.2-0.2,0.3-0.3,0.5c-0.5,0.8-1.1,1.5-1.6,2.3c-0.7,0.9-1.3,1.9-2,2.8c-0.1,0.2-0.3,0.4-0.4,0.6
			c-0.8,1.1-1.6,2.1-2.4,3.2c-0.5,0.6-1,1.3-1.4,1.9c-0.9,1.1-1.7,2.3-2.6,3.4c-0.8,1.1-1.7,2.1-2.6,3.2c-0.1,0.1-0.2,0.2-0.3,0.3
			c-0.9,1.1-1.7,2.1-2.6,3.2c-0.3,0.3-0.5,0.6-0.8,1c-0.8,1-1.6,1.9-2.4,2.9c-2.3,2.8-4.7,5.5-7.1,8.2c-4.8,5.6-9.8,11.1-14.8,16.6
			c-4.2,4.5-8.4,9-12.8,13.5c-20.8,21.3-43.3,41.3-67.8,57.1c-3,2-6.1,3.9-9.2,5.7c-1.1,0.7-2.3,1.3-3.4,2c-0.2,0.1-0.4,0.2-0.6,0.3
			c-1.2,0.7-2.3,1.3-3.5,2c-1.2,0.7-2.4,1.3-3.6,2c-0.5,0.3-1.1,0.6-1.6,0.9c-2.4,1.2-4.8,2.4-7.2,3.6c-1.3,0.6-2.6,1.2-3.9,1.8
			c-1.2,0.5-2.4,1.1-3.6,1.6c-0.5,0.2-1,0.4-1.5,0.6c-1.1,0.5-2.2,0.9-3.4,1.4c-2.2,0.9-4.3,1.7-6.5,2.5c-0.8,0.3-1.7,0.6-2.5,0.9
			c-0.5,0.2-1,0.3-1.4,0.5c-0.8,0.3-1.6,0.5-2.4,0.8c-0.7,0.2-1.4,0.4-2.1,0.7c0,0,0,0-0.1,0c-1.3,0.4-2.7,0.8-4,1.2
			c-2.1,0.6-4.3,1.2-6.4,1.7c-1.4,0.4-2.8,0.7-4.3,1c-1.3,0.3-2.7,0.6-4.1,0.9c-0.1,0-0.2,0-0.3,0.1c-1.4,0.3-2.8,0.6-4.2,0.8
			c-0.7,0.1-1.4,0.3-2.2,0.4c-0.7,0.1-1.5,0.2-2.2,0.3c-0.7,0.1-1.3,0.2-2,0.3c-0.8,0.1-1.6,0.2-2.4,0.3c-8.5,1.1-17,1.5-25.5,1.4
			c-0.5,0-1,0-1.5,0c-7.7-0.1-15.4-0.7-23.1-1.7c-0.6-0.1-1.1-0.1-1.7-0.2c-1-0.1-1.9-0.3-2.9-0.4c-0.8-0.1-1.5-0.2-2.3-0.4
			c-3.2-0.5-6.3-1.1-9.5-1.7c-0.7-0.1-1.4-0.3-2.1-0.4c-2.1-0.4-4.3-0.9-6.4-1.4c-1.4-0.3-2.8-0.7-4.2-1c-0.7-0.2-1.4-0.4-2.1-0.5
			c-0.7-0.2-1.4-0.4-2.1-0.6c-2.8-0.8-5.6-1.6-8.4-2.4c-3.2-1-6.4-2-9.6-3.1c-1.2-0.4-2.3-0.8-3.5-1.2c-3.6-1.3-7.2-2.6-10.7-4
			c-0.6-0.3-1.3-0.5-1.9-0.8c-0.5-0.2-1-0.4-1.6-0.7c-0.3-0.2-0.7-0.3-1.1-0.5c-2.3-1.1-4.8-2.3-7.5-3.7c-0.5-0.2-0.9-0.5-1.4-0.7
			c-1.7-0.9-3.4-1.8-5.2-2.8c-3.7-2.1-7.7-4.3-11.9-6.8c-47.7-28.1-120.8-80.8-138-100.8c-0.9-1-1.7-2-2.6-3.1
			c-0.7-0.8-1.3-1.6-1.9-2.5c-0.6-0.8-1.2-1.5-1.7-2.3c-0.5-0.7-1-1.3-1.5-2c-0.5-0.6-0.9-1.3-1.3-1.9c0,0-0.1-0.1-0.1-0.1
			c-0.5-0.8-1.1-1.6-1.6-2.4c-0.5-0.8-1-1.6-1.5-2.3c-0.2-0.4-0.5-0.8-0.7-1.1c-0.5-0.9-1.1-1.8-1.6-2.6c0,0,0,0,0,0
			c-0.5-1-1.1-2-1.6-2.9c-0.9-1.7-1.8-3.5-2.7-5.2c-0.2-0.5-0.4-0.9-0.6-1.4c-1.7-3.6-3.2-7.3-4.5-11.1c-0.5-1.3-0.9-2.6-1.3-4
			c-0.5-1.7-1-3.4-1.4-5.1c-0.1-0.3-0.2-0.7-0.2-1c-0.2-0.9-0.4-1.8-0.6-2.7c-0.3-1.3-0.5-2.5-0.7-3.8c0-0.3-0.1-0.6-0.1-0.9
			c-0.1-0.7-0.2-1.3-0.3-2c-0.1-0.8-0.2-1.6-0.3-2.4c0-0.3-0.1-0.5-0.1-0.8c-0.1-0.7-0.1-1.4-0.2-2c0-0.1,0-0.1,0-0.2
			c-0.1-0.8-0.1-1.6-0.1-2.4c0-0.1,0-0.2,0-0.2c0-0.8-0.1-1.7-0.1-2.5c0-0.3,0-0.6,0-0.9c0-0.5,0-1,0-1.5c0-1.2,0.1-2.5,0.1-3.7
			c0-0.8,0.1-1.6,0.2-2.4c0.1-1.6,0.3-3.2,0.6-4.8c0.1-0.8,0.3-1.6,0.4-2.4c0.3-1.6,0.6-3.2,1-4.8c1.1-4.2,2.4-8.3,4.1-12.2
			c1.3-3,2.7-5.9,4.3-8.8c0.1-0.2,0.3-0.5,0.4-0.7c6.4-11.3,15.2-21.4,25-30.7c1.1-1,2.1-2,3.2-2.9c1.1-1,2.3-2.1,3.4-3.1
			c0.1-0.1,0.1-0.1,0.2-0.2c1.8-1.6,3.7-3.2,5.6-4.8c2.9-2.4,5.9-4.8,8.9-7.2c0.1-0.1,0.2-0.2,0.3-0.2c2.6-2,5.2-4,7.7-6.1
			c4.1-3.1,8.1-6.3,12.1-9.4c1.1-0.8,2.1-1.6,3.2-2.5c1.2-0.9,2.3-1.8,3.4-2.7c10.7-8.6,19.9-17.7,28.5-27c1.7-1.8,3.3-3.6,4.9-5.5
			c0.8-0.9,1.6-1.8,2.3-2.6c10.9-12.4,21-25,32.3-36.8c2.7-2.8,5.4-5.6,8.3-8.3c2.4-2.3,4.8-4.5,7.3-6.7c2.9-2.5,5.8-5,8.9-7.4
			c4.2-3.3,8.7-6.5,13.5-9.5c1.2-0.8,2.3-1.5,3.5-2.2c119-74,206.6-49.8,265,0c4.4,3.7,8.7,7.6,12.7,11.7c2.5,2.4,4.9,4.9,7.2,7.4
			c0.3,0.3,0.5,0.5,0.8,0.8c1.6,1.7,3.2,3.5,4.8,5.3c0.5,0.5,0.9,1.1,1.4,1.6c0.7,0.8,1.4,1.6,2,2.4c0.8,1,1.6,1.9,2.4,2.9
			c0.5,0.6,1,1.2,1.5,1.9c3.3,4,6.4,8.1,9.3,12.2c0.6,0.8,1.2,1.6,1.8,2.5c4.1,5.7,7.9,11.5,11.4,17.3c0.5,0.8,1,1.6,1.5,2.5
			c0.5,0.8,1,1.6,1.5,2.5c0.5,0.8,1,1.6,1.4,2.4c0.5,0.8,0.9,1.6,1.4,2.4s0.9,1.6,1.4,2.4c0.5,0.8,0.9,1.6,1.3,2.4
			c0.4,0.8,0.9,1.6,1.3,2.4c0.4,0.8,0.8,1.6,1.3,2.4c0.4,0.8,0.8,1.6,1.2,2.4c0.4,0.8,0.8,1.6,1.2,2.4c1.6,3.2,3,6.3,4.5,9.3
			c0.7,1.6,1.4,3.1,2,4.6c3,6.8,5.5,13.4,7.6,19.4c0,0,0,0.1,0,0.1c0.2,0.6,0.4,1.2,0.6,1.7c0.2,0.6,0.4,1.2,0.6,1.8
			c0.1,0.5,0.3,0.9,0.4,1.3c0.2,0.7,0.4,1.3,0.6,2c0.2,0.7,0.4,1.5,0.6,2.2c0.4,1.3,0.8,2.7,1.1,4c0.3,1.1,0.6,2.3,0.9,3.4
			c0.1,0.2,0.1,0.4,0.2,0.6c0,0.2,0.1,0.4,0.1,0.5c0.2,0.7,0.3,1.3,0.5,2c0.4,1.8,0.8,3.6,1.2,5.4c0.2,1,0.4,1.9,0.6,2.9
			c0,0.2,0.1,0.4,0.1,0.5c0.2,0.9,0.3,1.8,0.5,2.8c0.2,1.2,0.4,2.5,0.6,3.7c0.2,0.9,0.3,1.9,0.4,2.8c0,0.1,0,0.3,0.1,0.4
			c0.1,0.6,0.2,1.3,0.2,1.9c0.1,0.5,0.1,1.1,0.2,1.6c0.2,1.9,0.4,3.8,0.6,5.7c0,0.4,0.1,0.9,0.1,1.3c0,0.7,0.1,1.4,0.1,2.2
			c0,0.8,0.1,1.6,0.1,2.4c0,0.6,0.1,1.2,0.1,1.8c0,0.9,0.1,1.8,0.1,2.7C726.5,242.9,726.5,244,726.5,245.1z"/>
		<g class="st1">
			<path class="st2" d="M726.5,245.1c0,11.5-1.3,22.9-4,34c-0.9,3.7-2,7.3-3.2,10.9c-0.4,1-0.7,2.1-1.1,3.1c-0.3,0.8-0.6,1.7-1,2.5
				c-0.1,0.2-0.2,0.5-0.3,0.7c-0.3,0.9-0.7,1.7-1.1,2.6c-0.1,0.1-0.1,0.3-0.2,0.4c-0.4,0.8-0.7,1.7-1.1,2.5
				c-0.2,0.4-0.3,0.7-0.5,1.1c-0.3,0.7-0.7,1.5-1,2.2c-0.4,0.8-0.8,1.5-1.1,2.3c-0.1,0.3-0.3,0.5-0.4,0.8c-0.3,0.7-0.7,1.3-1,2
				c-0.3,0.5-0.5,1-0.8,1.5c-1.3,2.3-2.6,4.6-4,6.9c-0.6,0.9-1.1,1.9-1.7,2.8c-0.1,0.2-0.3,0.5-0.4,0.7c-0.7,1.1-1.3,2.1-2,3.2
				c-0.6,0.8-1.1,1.7-1.7,2.5c-0.5,0.7-1,1.5-1.5,2.2c-0.1,0.2-0.2,0.3-0.3,0.5c-0.5,0.8-1.1,1.5-1.6,2.3c-0.7,0.9-1.3,1.9-2,2.8
				c-0.1,0.2-0.3,0.4-0.4,0.6c-0.8,1.1-1.6,2.1-2.4,3.2c-0.5,0.6-1,1.3-1.4,1.9c-0.9,1.1-1.7,2.3-2.6,3.4c-0.8,1.1-1.7,2.1-2.6,3.2
				c-0.1,0.1-0.2,0.2-0.3,0.3c-0.9,1.1-1.7,2.1-2.6,3.2c-0.3,0.3-0.5,0.6-0.8,1c-0.8,1-1.6,1.9-2.4,2.9c-2.3,2.8-4.7,5.5-7.1,8.2
				c-4.8,5.6-9.8,11.1-14.8,16.6c-4.2,4.5-8.4,9-12.8,13.5c-20.8,21.3-43.3,41.3-67.8,57.1c-3,2-6.1,3.9-9.2,5.7
				c-1.1,0.7-2.3,1.3-3.4,2c-0.2,0.1-0.4,0.2-0.6,0.3c-1.2,0.7-2.3,1.3-3.5,2c-1.2,0.7-2.4,1.3-3.6,2c-0.5,0.3-1.1,0.6-1.6,0.9
				c-2.4,1.2-4.8,2.4-7.2,3.6c-1.3,0.6-2.6,1.2-3.9,1.8c-1.2,0.5-2.4,1.1-3.6,1.6c-0.5,0.2-1,0.4-1.5,0.6c-1.1,0.5-2.2,0.9-3.4,1.4
				c-2.2,0.9-4.3,1.7-6.5,2.5c-0.8,0.3-1.7,0.6-2.5,0.9c-0.5,0.2-1,0.3-1.4,0.5c-0.8,0.3-1.6,0.5-2.4,0.8c-0.7,0.2-1.4,0.4-2.1,0.7
				c0,0,0,0-0.1,0c-1.3,0.4-2.7,0.8-4,1.2c-2.1,0.6-4.3,1.2-6.4,1.7c-1.4,0.4-2.8,0.7-4.3,1c-1.3,0.3-2.7,0.6-4.1,0.9
				c-0.1,0-0.2,0-0.3,0.1c-1.4,0.3-2.8,0.6-4.2,0.8c-0.7,0.1-1.4,0.3-2.2,0.4c-0.7,0.1-1.5,0.2-2.2,0.3c-0.7,0.1-1.3,0.2-2,0.3
				c-0.8,0.1-1.6,0.2-2.4,0.3c-8.5,1.1-17,1.5-25.5,1.4c-0.5,0-1,0-1.5,0c-7.7-0.1-15.4-0.7-23.1-1.7c-0.6-0.1-1.1-0.1-1.7-0.2
				c-1-0.1-1.9-0.3-2.9-0.4c-0.8-0.1-1.5-0.2-2.3-0.4c-3.2-0.5-6.3-1.1-9.5-1.7c-0.7-0.1-1.4-0.3-2.1-0.4c-2.1-0.4-4.3-0.9-6.4-1.4
				c-1.4-0.3-2.8-0.7-4.2-1c-0.7-0.2-1.4-0.4-2.1-0.5c-0.7-0.2-1.4-0.4-2.1-0.6c-2.8-0.8-5.6-1.6-8.4-2.4c-3.2-1-6.4-2-9.6-3.1
				c-1.2-0.4-2.3-0.8-3.5-1.2c-3.6-1.3-7.2-2.6-10.7-4c-0.6-0.3-1.3-0.5-1.9-0.8c-0.5-0.2-1-0.4-1.6-0.7c-0.3-0.2-0.7-0.3-1.1-0.5
				c-2.3-1.1-4.8-2.3-7.5-3.7c-0.5-0.2-0.9-0.5-1.4-0.7c-1.7-0.9-3.4-1.8-5.2-2.8c-3.7-2.1-7.7-4.3-11.9-6.8
				c-47.7-28.1-120.8-80.8-138-100.8c-0.9-1-1.7-2-2.6-3.1c-0.7-0.8-1.3-1.6-1.9-2.5c-0.6-0.8-1.2-1.5-1.7-2.3c-0.5-0.7-1-1.3-1.5-2
				c-0.5-0.6-0.9-1.3-1.3-1.9c0,0-0.1-0.1-0.1-0.1c-0.5-0.8-1.1-1.6-1.6-2.4c-0.5-0.8-1-1.6-1.5-2.3c-0.2-0.4-0.5-0.8-0.7-1.1
				c-0.5-0.9-1.1-1.8-1.6-2.6c0,0,0,0,0,0c-0.5-1-1.1-2-1.6-2.9c-0.9-1.7-1.8-3.5-2.7-5.2c-0.2-0.5-0.4-0.9-0.6-1.4
				c-1.7-3.6-3.2-7.3-4.5-11.1c-0.5-1.3-0.9-2.6-1.3-4c-0.5-1.7-1-3.4-1.4-5.1c-0.1-0.3-0.2-0.7-0.2-1c-0.2-0.9-0.4-1.8-0.6-2.7
				c-0.3-1.3-0.5-2.5-0.7-3.8c0-0.3-0.1-0.6-0.1-0.9c-0.1-0.7-0.2-1.3-0.3-2c-0.1-0.8-0.2-1.6-0.3-2.4c0-0.3-0.1-0.5-0.1-0.8
				c-0.1-0.7-0.1-1.4-0.2-2c0-0.1,0-0.1,0-0.2c-0.1-0.8-0.1-1.6-0.1-2.4c0-0.1,0-0.2,0-0.2c0-0.8-0.1-1.7-0.1-2.5
				c0-2.1,0-4.1,0.1-6.2c0-0.8,0.1-1.6,0.2-2.4c0.1-1.6,0.3-3.2,0.6-4.8c0.1-0.8,0.3-1.6,0.4-2.4c0.3-1.6,0.6-3.2,1-4.8
				c1.1-4.2,2.4-8.3,4.1-12.2c1.3-3,2.7-5.9,4.3-8.8c0.1-0.2,0.3-0.5,0.4-0.7c6.4-11.3,15.2-21.4,25-30.7c0.6-0.5,1.1-1.1,1.7-1.6
				c0.5-0.5,1-0.9,1.5-1.4c1.1-1,2.3-2.1,3.4-3.1c0.1-0.1,0.1-0.1,0.2-0.2c1.8-1.6,3.7-3.2,5.6-4.8c2.9-2.4,5.9-4.8,8.9-7.2
				c0.1-0.1,0.2-0.2,0.3-0.2c2.6-2,5.2-4,7.7-6.1c1.3-1,2.6-2,3.9-3c2.8-2.1,5.5-4.2,8.2-6.4c1.1-0.8,2.1-1.6,3.2-2.5
				c1.2-0.9,2.3-1.8,3.4-2.7c10.7-8.6,19.9-17.7,28.5-27c1.7-1.8,3.3-3.6,4.9-5.5c0.8-0.9,1.6-1.8,2.3-2.6
				c10.9-12.4,21-25,32.3-36.8c2.7-2.8,5.4-5.6,8.3-8.3c2.4-2.3,4.8-4.5,7.3-6.7c2.9-2.5,5.8-5,8.9-7.4c4.2-3.3,8.7-6.5,13.5-9.5
				c1.2-0.8,2.3-1.5,3.5-2.2c119-74,206.6-49.8,265,0c4.4,3.7,8.7,7.6,12.7,11.7c2.5,2.4,4.9,4.9,7.2,7.4c0.3,0.3,0.5,0.5,0.8,0.8
				c1.6,1.7,3.2,3.5,4.8,5.3c0.5,0.5,0.9,1.1,1.4,1.6c0.7,0.8,1.4,1.6,2,2.4c0.8,1,1.6,1.9,2.4,2.9c0.5,0.6,1,1.2,1.5,1.9
				c3.3,4,6.4,8.1,9.3,12.2c0.6,0.8,1.2,1.6,1.8,2.5c4.1,5.7,7.9,11.5,11.4,17.3c0.5,0.8,1,1.6,1.5,2.5c0.5,0.8,1,1.6,1.5,2.5
				c0.5,0.8,1,1.6,1.4,2.4c0.5,0.8,0.9,1.6,1.4,2.4s0.9,1.6,1.4,2.4c0.5,0.8,0.9,1.6,1.3,2.4c0.4,0.8,0.9,1.6,1.3,2.4
				c0.4,0.8,0.8,1.6,1.3,2.4c0.4,0.8,0.8,1.6,1.2,2.4c0.4,0.8,0.8,1.6,1.2,2.4c1.6,3.2,3.1,6.3,4.5,9.3c0.7,1.6,1.4,3.1,2,4.6
				c3,6.8,5.5,13.4,7.6,19.4c0,0,0,0.1,0,0.1c0.2,0.6,0.4,1.2,0.6,1.7c0.2,0.6,0.4,1.2,0.6,1.8c0.1,0.5,0.3,0.9,0.4,1.3
				c0.2,0.7,0.4,1.3,0.6,2c0.2,0.7,0.4,1.5,0.6,2.2c0.4,1.3,0.8,2.7,1.1,4c0.3,1.1,0.6,2.3,0.9,3.4c0.1,0.2,0.1,0.4,0.2,0.6
				c0,0.2,0.1,0.4,0.1,0.5c0.2,0.7,0.3,1.3,0.5,2c0.4,1.8,0.8,3.6,1.2,5.4c0.2,1,0.4,1.9,0.6,2.9c0,0.2,0.1,0.4,0.1,0.5
				c0.2,0.9,0.3,1.8,0.5,2.8c0.2,1.2,0.4,2.5,0.6,3.7c0.2,0.9,0.3,1.9,0.4,2.8c0,0.1,0,0.3,0.1,0.4c0.1,0.6,0.2,1.3,0.2,1.9
				c0.1,0.5,0.1,1.1,0.2,1.6c0.2,1.9,0.4,3.8,0.6,5.7c0,0.4,0.1,0.9,0.1,1.3c0,0.7,0.1,1.4,0.1,2.2c0,0.8,0.1,1.6,0.1,2.4
				c0,0.6,0.1,1.2,0.1,1.8c0,0.9,0.1,1.8,0.1,2.7C726.5,242.9,726.5,244,726.5,245.1z"/>
		</g>
	</g>
</g>
<g id="Plants">
	<path class="st3" d="M190,264.7C189.7,264.5,189.8,264.4,190,264.7L190,264.7z"/>
	<g>
		<path class="st3" d="M301.6,254.1c-1.2,8.1-7.2,14.7-15,17.3l-3,1c-10.6,15.1-29.3,21.5-45.2,12.2l-4.7-2.7l-13-15.5
			c0,0-0.1,0-0.2,0c-4.1,0.9-8.8,0.2-11.9-2.7c-0.5,2.6-3.8,4.1-6.1,2.7c-2.2-1.3-2.5-5-0.5-6.6c-2.6,2.3-6.7,1.3-9.2-1.3
			c-0.1-6.9,0.6-13.8,2.3-20.6c1.1-4.2,2.4-8.3,4.1-12.2c1.3-3,2.7-5.9,4.3-8.8c0.1-0.2,0.3-0.5,0.4-0.7c2.4-4.2,5-8.1,7.9-12
			c0.5-0.5,1-0.9,1.5-1.4c1.1-1,2.3-2.1,3.4-3.1c0.1-0.1,0.1-0.1,0.2-0.2c1.8-1.6,3.7-3.2,5.6-4.8c2.9-2.4,5.9-4.8,8.9-7.2
			c0.1-0.1,0.2-0.2,0.3-0.2c2.6-2,5.2-4,7.7-6.1c1.3-1,2.6-2,3.9-3c0.8,0.1,1.6,0.3,2.3,0.5c3.2,1.1,3.7,4,5.9,6
			c2.9,2.7,5.8-1.8,10.3-1.7c13.9,0.4,8.5,14.7,15.3,12.9c29.3-7.7,24.4,29.8,11.6,38C296.5,240.3,303,244.4,301.6,254.1z"/>
		<g>
			<ellipse class="st4" cx="238.5" cy="240.9" rx="49.5" ry="48.8"/>
			<ellipse class="st5" cx="238.5" cy="239" rx="45.1" ry="44.5"/>
		</g>
		<g>
			<g>
				<g>
					<g>
						<g>
							<g>
								<path class="st0" d="M190.1,256.5c-2.8,1.8-3.7,7.7-1.4,10.3c2.2,2.6,6.5,0.6,7.4-3.4c0.4,1.1,1.7,1.3,2.4,0.3
									c0.5-0.7,0.5-1.8,0.2-2.5c-0.2-0.2-0.1-0.3,0,0c1.5,1.2,4-0.1,4.3-2.6c-1.1,6.6,4.9,12.3,9.3,9c-1.3,2.8,0.4,6.5,2.7,7.2
									c2.3,0.7,4.7-0.6,6.9-2.1c2.2-1.5,4.4-3.2,6.8-3.3c2.1-0.1,4,1.1,6,1.8c6.3,2.2,13.6-0.7,18.4-7.3c3.2,5.4,11,3.4,13.1-3.3
									c0.4,3.2,2.6,5.6,5,5.6c2.4,0,4.9-2.3,5.7-5.5l0,0c0.1,3,2.7,4.5,4.6,2.5c2.4-2.5,4-7,2.8-10.6c3.3-0.1,6.4-3.9,6.9-8.3
									c0.5-4.4-1.7-8.8-4.8-9.6c5.4-2.2,9.6-9.6,9.8-17.1c0.2-7.5-3.6-14.4-8.9-16.2c-2-0.7-4.4-0.5-6.1,1.3
									c-0.6-4.3-2.6-8.1-5.4-10c-4.5-3.1-10.9-1-14.2,4.7c1.6-2.9,1.8-7.2,0.3-10c-1.5-2.8-4.5-3.9-7-2.6
									c-0.5-4.6-4.1-7.8-7.5-6.9c-3.4,0.9-6.2,5.8-5.9,10.4c-0.3-3.7-4.7-4.6-6.3-1.5c0.1,0.3-0.1,0.1,0,0
									c-2.2-4.6-6.7-7-10.8-5.6c-4.4,1.4-8.1,7-8.7,13c-3-2.8-7.5-2.7-10.7,0.3c-3.3,2.9-5.1,8.5-4.6,13.5
									c-3.4-3.4-9.2-1.5-11.5,3.7c-2.3,5.2-0.7,12.6,3.2,14.8c-2.7,0.4-5.1,4-5.1,7.7c0,3.7,2.4,6.8,5.2,6.7
									c-2.8,0.2-5.4,3.5-5.8,7.2C185.6,252,187.4,255.7,190.1,256.5z"/>
							</g>
						</g>
						<g class="st6">
							<g>
								<path class="st2" d="M235.5,239.4c-1.4-1.2-3.1-1.7-4.8-1.2c-1.7,0.5-3.2,2.3-3.6,4.4c-0.4,2.2,0.6,4.5,2.3,5
									c2,0.5,4.1-1.8,6.1-1.5c0.7,0.1,1.4,0.5,2.1,0.7c2.9,0.8,5.9-1.8,8.4-4.3c0.9-0.9,1.8-1.8,2.4-3c0.6-1.2,0.8-2.8,0.3-3.9
									c-0.7-1.6-2.5-1.7-4-1.4c-3,0.6-5.9,2.3-8.3,4.9c0.1-0.6,0.2-1.2,0.3-1.8L235.5,239.4z"/>
							</g>
							<g>
								<path class="st2" d="M278.6,233.5c-0.8-0.7-1.6-1.3-2.6-1.6c-0.9-0.2-2.1,0.1-2.7,1.1c-0.9,1.4-0.4,3.5,0.7,4.5
									c1,1,2.4,1.2,3.7,1.4c1.4,0.2,3.1,0.1,3.8-1.4c0.5-1.1,0.1-2.6-0.6-3.4c-0.7-0.8-1.7-1.2-2.7-1.5L278.6,233.5z"/>
							</g>
							<g>
								<path class="st2" d="M211.2,209.1c-2.8,1.6-4.9,5-5.7,8.7c-0.2,1.1-0.2,2.5,0.5,3.1c0.5,0.4,1.2,0.2,1.9-0.1
									c2.6-1,5.3-1.9,7.9-2.9c-1.3,0.7-2.6,1.4-3.6,2.6c-1,1.2-1.7,3-1.4,4.7c0.4,1.9,2,3,3.6,2.9c1.6-0.1,3.1-1.2,4.4-2.5
									c1.4-1.3,2.8-3.2,2.8-5.3c0.1-2.2-2-4-3.3-2.6c3-1.2,5.9-3.1,8.5-5.4c1-0.9,1.9-1.8,2.5-3.1c0.6-1.3,0.8-2.9,0.3-4.1
									c-2.6-6.1-6.2,3.3-7.8,4.2C218.6,211.2,215.2,206.8,211.2,209.1z"/>
								<path class="st2" d="M198.4,236.5c-0.3,1.2-0.1,2.7,0.6,3.4c0.8,0.7,2.1,0.4,2.5-0.8c-1.8,0.8-3.7,1.7-4.8,3.7
									c-1.1,2-0.9,5.2,0.8,5.9c1.1,0.4,2.3-0.4,3.3-1.1c2.9-2.2,5.7-4.6,8.3-7.3c-0.8,2.4,1,4.8,3,4.9c2,0.1,3.8-1.4,5.5-2.8
									c2.1-1.7,4.5-4.3,4-7.3c-0.4-2.6-3-3.6-5-2.7c-2,0.9-3.6,3.1-5,5.1c1.1-2.1-0.4-5.1-2.3-5.3c-1.9-0.2-3.8,1.4-5,3.2
									c2.2-1.7,2.8-5.7-0.1-6C202.2,229.3,198.9,234.5,198.4,236.5z"/>
								<path class="st2" d="M258.7,223.9c-1.6-0.7-3.7,0.8-4.2,3c-0.5,2.2,0.8,4.6,2.5,4.9c-1.3,0.2-2.5,1.1-3.4,2.4
									c-0.5,0.7-0.8,1.7-0.7,2.5c0.1,1.3,1.2,2.2,2.3,2.1c1.1,0,2.1-0.7,3.1-1.3c-1.1,0.2-2.2,0.4-3,1.3c-0.9,0.9-1.3,2.7-0.5,3.6
									c0.6,0.8,1.7,0.6,2.5,0.2c1.9-0.8,3.7-2.2,5.2-4c1.1,1.5,2.7,2.5,4.3,2.1c1.6-0.4,3-2.7,2.6-4.7c-0.3-1.4-1.5-2.2-2.6-2.3
									c-1.2-0.1-2.3,0.4-3.4,0.9c1.2-1.1,2.4-2.3,2.8-4c0.4-1.7-0.4-3.9-1.8-3.7c-1.6,0.3-2.4,3-3.7,4.1
									C259.1,229.2,262,225.3,258.7,223.9z"/>
								<g>
									<path class="st2" d="M230.8,217.3c-1.8,1.6-2.5,4.7-2.4,7.4c0.1,3,1.1,6.1,3.2,7.2c2.8,1.4,6.4-1.8,7-5.8
										c0.6-3.9-1.3-7.8-4.1-9.5C234.6,216.8,232.6,215.7,230.8,217.3z"/>
								</g>
								<g>
									<path class="st2" d="M250.7,212.9c0.2,0.3,0.5,0.5,0.7,0.8c-1.2-1.9-3.7-2-5.2-0.2c-1.5,1.8-1.5,5-0.1,6.6
										c1.4,1.6,4,1.2,5.2-0.8c2,1.1,4.8,0.5,6.2-1.9c1.5-2.3,1.2-6.2-0.7-7.5c-1.9-1.3-5,1-4.8,3.9c-0.3-0.4-0.6-0.8-0.8-1.2
										L250.7,212.9z"/>
								</g>
								<g>
									<path class="st2" d="M272.6,216c-1.4,1.9-2.9,3.8-3.5,6.3c-0.6,2.5,0.2,5.5,2.1,6c1.9,0.5,3.7-1.6,4.9-3.8
										c1-1.9,1.8-4.3,1.3-6.4c-0.5-2.1-2.9-3.2-4.2-1.5L272.6,216z"/>
								</g>
								<path class="st2" d="M241.2,203.3c-0.7-2-2.9-2.6-4.4-1.3c-1.5,1.3-2.1,4-1.5,6c0.6,2,2.3,3.3,4,3.5
									c2.2,0.2,4.7-2.2,4.3-4.9c0.9,1.5,2.6,2,4.1,1.7c1.5-0.3,3-1.3,4.3-2.3c1.8-1.4,3.8-3.6,3.7-6.3c-0.1-2.1-1.7-3.6-3.3-3.7
									c-1.7-0.1-3.3,1-4.6,2.4c-1,1.1-1.9,2.5-3,3.5c-1.1,1-2.6,1.6-3.7,0.9L241.2,203.3z"/>
							</g>
						</g>
					</g>
				</g>
			</g>
		</g>
	</g>
</g>
<g id="Keyboard">
	<g>
		<g>
			<rect x="325.5" y="277.2" class="st7" width="275.3" height="115.9"/>
			<g>
				<rect x="331.2" y="284.2" class="st4" width="25.9" height="14.3"/>
				<rect x="553.6" y="354.1" class="st4" width="40.8" height="14.3"/>
				<rect x="569.2" y="302.1" class="st4" width="25.2" height="14.3"/>
				<rect x="331.2" y="336.4" class="st4" width="25.9" height="14.3"/>
				<rect x="331.2" y="319.2" class="st4" width="21" height="14.3"/>
				<g>
					<rect x="331.2" y="301.7" class="st4" width="14.3" height="14.3"/>
					<rect x="349.5" y="301.7" class="st4" width="14.3" height="14.3"/>
					<rect x="367.8" y="301.7" class="st4" width="14.3" height="14.3"/>
					<rect x="386.1" y="301.7" class="st4" width="14.3" height="14.3"/>
					<rect x="404.4" y="301.7" class="st4" width="14.3" height="14.3"/>
					<rect x="422.7" y="301.7" class="st4" width="14.3" height="14.3"/>
					<rect x="441" y="301.7" class="st4" width="14.3" height="14.3"/>
					<rect x="459.3" y="301.7" class="st4" width="14.3" height="14.3"/>
					<rect x="477.6" y="301.7" class="st4" width="14.3" height="14.3"/>
					<rect x="495.9" y="301.7" class="st4" width="14.3" height="14.3"/>
					<rect x="514.2" y="301.7" class="st4" width="14.3" height="14.3"/>
					<rect x="532.5" y="301.7" class="st4" width="14.3" height="14.3"/>
					<rect x="550.8" y="301.7" class="st4" width="14.3" height="14.3"/>
				</g>
				<g>
					<rect x="331.2" y="371.8" class="st4" width="14.3" height="14.3"/>
					<rect x="349.5" y="371.8" class="st4" width="14.3" height="14.3"/>
					<rect x="367.8" y="371.8" class="st4" width="14.3" height="14.3"/>
					<rect x="386.1" y="371.8" class="st4" width="17.5" height="14.3"/>
					<rect x="407.6" y="371.8" class="st4" width="87.5" height="14.3"/>
					<rect x="524.5" y="371.8" class="st4" width="14.3" height="14.3"/>
					<rect x="542.8" y="371.8" class="st4" width="14.3" height="14.3"/>
					<rect x="561.1" y="371.8" class="st4" width="14.3" height="14.3"/>
					<rect x="498.7" y="371.8" class="st4" width="22.3" height="14.3"/>
					<rect x="580" y="371.8" class="st4" width="14.3" height="14.3"/>
				</g>
				<g>
					<rect x="356.2" y="319.2" class="st4" width="14.3" height="14.3"/>
					<rect x="374.5" y="319.2" class="st4" width="14.3" height="14.3"/>
					<rect x="392.8" y="319.2" class="st4" width="14.3" height="14.3"/>
					<rect x="411.1" y="319.2" class="st4" width="14.3" height="14.3"/>
					<rect x="429.4" y="319.2" class="st4" width="14.3" height="14.3"/>
					<rect x="447.7" y="319.2" class="st4" width="14.3" height="14.3"/>
					<rect x="466" y="319.2" class="st4" width="14.3" height="14.3"/>
					<rect x="484.3" y="319.2" class="st4" width="14.3" height="14.3"/>
					<rect x="502.6" y="319.2" class="st4" width="14.3" height="14.3"/>
					<rect x="520.9" y="319.2" class="st4" width="14.3" height="14.3"/>
					<rect x="539.2" y="319.2" class="st4" width="14.3" height="14.3"/>
					<rect x="557.5" y="319.2" class="st4" width="14.3" height="14.3"/>
					<polygon class="st4" points="594.4,319.2 594.4,351 580,351 580,333.5 575.8,333.5 575.8,319.2 					"/>
				</g>
				<g>
					<rect x="360.4" y="336.6" class="st4" width="14.3" height="14.3"/>
					<rect x="378.7" y="336.6" class="st4" width="14.3" height="14.3"/>
					<rect x="397" y="336.6" class="st4" width="14.3" height="14.3"/>
					<rect x="415.3" y="336.6" class="st4" width="14.3" height="14.3"/>
					<rect x="433.6" y="336.6" class="st4" width="14.3" height="14.3"/>
					<rect x="451.9" y="336.6" class="st4" width="14.3" height="14.3"/>
					<rect x="470.2" y="336.6" class="st4" width="14.3" height="14.3"/>
					<rect x="488.5" y="336.6" class="st4" width="14.3" height="14.3"/>
					<rect x="506.8" y="336.6" class="st4" width="14.3" height="14.3"/>
					<rect x="525.1" y="336.6" class="st4" width="14.3" height="14.3"/>
					<rect x="543.4" y="336.6" class="st4" width="14.3" height="14.3"/>
					<rect x="561.7" y="336.6" class="st4" width="14.3" height="14.3"/>
				</g>
				<g>
					<rect x="352.7" y="354.1" class="st4" width="14.3" height="14.3"/>
					<rect x="371" y="354.1" class="st4" width="14.3" height="14.3"/>
					<rect x="389.3" y="354.1" class="st4" width="14.3" height="14.3"/>
					<rect x="407.6" y="354.1" class="st4" width="14.3" height="14.3"/>
					<rect x="425.9" y="354.1" class="st4" width="14.3" height="14.3"/>
					<rect x="444.2" y="354.1" class="st4" width="14.3" height="14.3"/>
					<rect x="462.5" y="354.1" class="st4" width="14.3" height="14.3"/>
					<rect x="480.8" y="354.1" class="st4" width="14.3" height="14.3"/>
					<rect x="499.1" y="354.1" class="st4" width="14.3" height="14.3"/>
					<rect x="517.4" y="354.1" class="st4" width="14.3" height="14.3"/>
					<rect x="535.6" y="354.1" class="st4" width="14.3" height="14.3"/>
				</g>
				<g>
					<rect x="360.4" y="285.1" class="st4" width="14.3" height="14.3"/>
					<rect x="378.7" y="285.1" class="st4" width="14.3" height="14.3"/>
					<rect x="397" y="285.1" class="st4" width="14.3" height="14.3"/>
					<rect x="415.3" y="285.1" class="st4" width="14.3" height="14.3"/>
					<rect x="433.6" y="285.1" class="st4" width="14.3" height="14.3"/>
					<rect x="451.9" y="285.1" class="st4" width="14.3" height="14.3"/>
					<rect x="470.2" y="285.1" class="st4" width="14.3" height="14.3"/>
					<rect x="488.5" y="285.1" class="st4" width="14.3" height="14.3"/>
					<rect x="506.8" y="285.1" class="st4" width="14.3" height="14.3"/>
					<rect x="525.1" y="285.1" class="st4" width="14.3" height="14.3"/>
					<rect x="543.4" y="285.1" class="st4" width="14.3" height="14.3"/>
					<rect x="561.7" y="285.1" class="st4" width="14.3" height="14.3"/>
					<rect x="580" y="285.1" class="st4" width="14.3" height="14.3"/>
				</g>
				<rect x="331.2" y="354.1" class="st4" width="17.4" height="14.3"/>
			</g>
		</g>
		<polygon class="st8" points="325.5,277.9 331.2,276 597,276 600.8,277.9 		"/>
	</g>
</g>
<g id="Hands">
	<g>
		<path class="st3" d="M521.9,476.8l-5.6-33.7c-1.2-5-3.9-9.6-7.6-13.2c-11.1-10.7-25.8-21.8-26.5-35.8c-1-21.5-4.3-20.9-4-26.2
			c0-0.2,1.7-2.6,3.8-7.9c0.7-1.7,1.2-4.3,1.6-6.4c0.5-2.2,2.6-3.7,4.8-3.4c1.5,0.2,3,0.9,4,1.9c2,2,2.9,4.9,3,7.8
			c0.1,2.8-0.5,5.7-1.2,8.4c2,4.5,2.9,9.9,3.6,14.8c1.3-3.9,2.2-7.9,3.5-11.8c0.3-0.1,0.2-0.5,0.4-0.6c-1.8-3.9-0.3-3.7-3.8-12.2
			c-6-14.3-12.7-28.1-17.5-46.1c-0.4-1.4-0.4-3.7,0.1-5.1c1.7-5.1,7-4,9.3-1c0.6,0.8,1.1,1.7,1.4,2.6c2.4,6.4,7.7,16.3,11.4,22
			l13,19.8c0,0,4.5-3.7,5.2-5.4l0,0c0.7-1.7,1-15.1,1-15.1s-1,2.5-3.3,2.4c-1.6-0.1-5,0.8-7.4-1.8c-1.9-2.2-1.9-5.5-0.2-7.8l5.9-7.9
			c0,0,4-3.5,9.2-1.1c5.3,2.4,10.4,7.3,10.4,7.3s4.9-0.3,9,1.7c4.2,2,8.5,7.8,8.5,7.8s4.9,0.3,7,1.9c0.5,0.4,8,11.9,5.3,20.9
			c-1.6,5.4-2.6,13.1-3.3,15.2l-3.6,52.6l7.3,34.6l-15.7,8.7c-5.8,3.2-11.8,5.9-18.1,8.1L521.9,476.8z"/>
		<g>
			<g>
				<g>
					<g>
						<g>
							<defs>
								<path id="XMLID_2_" d="M566.5,415.3l0.1-52.8c0.6-2.1,1-10,2.3-15.4c2.1-9.1-6.1-20.2-6.7-20.5c-2.3-1.4-7.2-1.4-7.2-1.4
									s-4.7-5.5-9-7.2c-4.3-1.7-9.1-1.1-9.1-1.1s-5.4-4.6-10.9-6.6c-5.4-2-9.1,1.7-9.1,1.7l-5.3,8.3c-1.6,2.5-1.4,5.7,0.7,7.8
									c2.6,2.5,5.8,1.3,7.5,1.3c2.3,0,3.1-2.6,3.1-2.6s0.6,13.4,0,15.1l0,0c-0.6,1.7-4.9,5.7-4.9,5.7l-14.3-18.9
									c-4.1-5.5-10-15-12.9-21.2c-0.4-0.9-0.9-1.8-1.6-2.5c-2.5-2.8-7.9-3.7-9.3,1.6c-0.4,1.4-0.2,3.7,0.2,5.1
									c6,17.6,13.6,31,20.5,44.9c4.1,8.2,2.6,8.1,4.6,11.9c-0.2,0.2-0.1,0.5-0.4,0.6c-1,4-1.7,8-2.7,12c-1-4.8-2.3-10.2-4.6-14.5
									c0.5-2.8,0.9-5.7,0.6-8.5c-0.3-2.8-1.4-5.7-3.5-7.5c-1.1-0.9-2.6-1.5-4.2-1.6c-2.3-0.2-4.3,1.5-4.6,3.7
									c-0.3,2.1-0.6,4.7-1.2,6.5c-1.8,5.4-3.3,7.9-3.3,8.1c0,5.3,3.3,4.5,5.7,25.9c1.9,16.7,23.3,27.7,35,39.7l12.5,39.2
									c14.5-5.8,28.3-13.2,41.6-21.8L566.5,415.3z"/>
							</defs>
							<use xlink:href="#XMLID_2_"  style="overflow:visible;fill:#FFFFFF;"/>
							<clipPath id="XMLID_00000065034594138287068860000005957935122879082679_">
								<use xlink:href="#XMLID_2_"  style="overflow:visible;"/>
							</clipPath>
							<g style="clip-path:url(#XMLID_00000065034594138287068860000005957935122879082679_);">
								<g>
									<path class="st0" d="M560.4,343.6c0.6-1.6,1.4-3.1,2.7-4.1c1.4-1,3.5-1.1,4.6,0.2c-0.9-2.7-1.8-5.5-2.8-8.2
										c-0.8-2.1-1.6-4.2-3.3-5.6c-1.7-1.4-4.5-1.7-5.9,0c1,6.2,1.1,12.6,0.3,18.9c-0.4,3.4-1,7.3,1.3,9.8
										c0.6,0.5,1.7-0.4,1.3-1.1c-0.2-0.3-0.9-0.4-1.2-0.3C558.1,349.9,559.1,346.7,560.4,343.6z"/>
									<path class="st0" d="M560.4,343.6c0.6-1.6,1.4-3.1,2.7-4.1c1.4-1,3.5-1.1,4.6,0.2c-0.9-2.7-1.8-5.5-2.8-8.2
										c-0.8-2.1-1.6-4.2-3.3-5.6c-1.7-1.4-4.5-1.7-5.9,0c1,6.2,1.1,12.6,0.3,18.9c-0.4,3.4-1,7.3,1.3,9.8
										c0.6,0.5,1.7-0.4,1.3-1.1c-0.2-0.3-0.9-0.4-1.2-0.3C558.1,349.9,559.1,346.7,560.4,343.6z"/>
									<path class="st10" d="M560.4,343.6c0.6-1.6,1.4-3.1,2.7-4.1c1.4-1,3.5-1.1,4.6,0.2c-0.9-2.7-1.8-5.5-2.8-8.2
										c-0.8-2.1-1.6-4.2-3.3-5.6c-1.7-1.4-4.5-1.7-5.9,0c1,6.2,1.1,12.6,0.3,18.9c-0.4,3.4-1,7.3,1.3,9.8
										c0.6,0.5,1.7-0.4,1.3-1.1c-0.2-0.3-0.9-0.4-1.2-0.3C558.1,349.9,559.1,346.7,560.4,343.6z"/>
								</g>
								<g>
									<path class="st0" d="M541.3,337.9c0.1,2.3,0.1,4.6,0.6,6.8c0.6,2.2,1.8,4.4,3.8,5.5c-1.2-4.4-0.5-9.2,0.1-13.7
										c0.4-2.8,0.8-5.5,1.2-8.3c0.1-1,0.3-2,0.8-2.8c0.6-0.8,1.6-1.3,2.5-0.9c-1.2,0.7-2.7-0.2-3.4-1.4c-0.7-1.2-1-2.6-1.8-3.7
										c-1.6-2.1-5-2.5-7.4-2C538.5,324.4,541.1,330.9,541.3,337.9z"/>
									<g>
										<path class="st0" d="M541.3,337.9c0.1,2.3,0.1,4.6,0.6,6.8c0.6,2.2,1.8,4.4,3.8,5.5c-1.2-4.4-0.5-9.2,0.1-13.7
											c0.4-2.8,0.8-5.5,1.2-8.3c0.1-1,0.3-2,0.8-2.8c0.6-0.8,1.6-1.3,2.5-0.9c-1.2,0.7-2.7-0.2-3.4-1.4c-0.7-1.2-1-2.6-1.8-3.7
											c-1.6-2.1-5-2.5-7.4-2C538.5,324.4,541.1,330.9,541.3,337.9z"/>
									</g>
									<g class="st11">
										<path class="st2" d="M541.3,337.9c0.1,2.3,0.1,4.6,0.6,6.8c0.6,2.2,1.8,4.4,3.8,5.5c-1.2-4.4-0.5-9.2,0.1-13.7
											c0.4-2.8,0.8-5.5,1.2-8.3c0.1-1,0.3-2,0.8-2.8c0.6-0.8,1.6-1.3,2.5-0.9c-1.2,0.7-2.7-0.2-3.4-1.4c-0.7-1.2-1-2.6-1.8-3.7
											c-1.6-2.1-5-2.5-7.4-2C538.5,324.4,541.1,330.9,541.3,337.9z"/>
									</g>
								</g>
								<g>
									<g>
										<path class="st0" d="M521.9,319.5c-0.8-0.6-1-1.6-1.3-2.5c-0.2-0.9-0.6-1.9-1.4-2.4c-3.7,2.3-1.7,9.1-5.4,11.4
											c-0.7,0.4-1.6,0.7-2,1.4c-0.4,0.7-0.1,1.5,0.4,2.1c0.5,0.6,1.3,0.8,2,1c2.9,0.5,6.1-1,7.8-3.4c1.5-2,2.5-5.2,1.7-7.6
											C523.2,319.8,522.4,319.9,521.9,319.5z"/>
										<path class="st0" d="M483.8,364.2c-0.1,0.3-0.1,0.6,0.1,0.7c0.3,0.3,0.7-0.1,1-0.5c1.5-2.2,4.6-3.2,7.1-2.3
											c1,0,1.3-1.5,0.7-2.2c-0.6-0.7-1.7-0.9-2.7-0.9c-1,0-2,0-2.8-0.5c-1-0.6-1.4-1.9-1.1-3
											C485.3,358.4,484.5,361.3,483.8,364.2z"/>
									</g>
									<g class="st11">
										<path class="st2" d="M521.9,319.5c-0.8-0.6-1-1.6-1.3-2.5c-0.2-0.9-0.6-1.9-1.4-2.4c-3.7,2.3-1.7,9.1-5.4,11.4
											c-0.7,0.4-1.6,0.7-2,1.4c-0.4,0.7-0.1,1.5,0.4,2.1c0.5,0.6,1.3,0.8,2,1c2.9,0.5,6.1-1,7.8-3.4c1.5-2,2.5-5.2,1.7-7.6
											C523.2,319.8,522.4,319.9,521.9,319.5z"/>
										<path class="st2" d="M483.8,364.2c-0.1,0.3-0.1,0.6,0.1,0.7c0.3,0.3,0.7-0.1,1-0.5c1.5-2.2,4.6-3.2,7.1-2.3
											c1,0,1.3-1.5,0.7-2.2c-0.6-0.7-1.7-0.9-2.7-0.9c-1,0-2,0-2.8-0.5c-1-0.6-1.4-1.9-1.1-3
											C485.3,358.4,484.5,361.3,483.8,364.2z"/>
									</g>
								</g>
								<g>
									<path class="st0" d="M532.4,318.6c-2.1-0.3-4.3-0.3-6.1-1.4c-2.3-1.3-3.8-4.2-6.5-4.3c-2.3-0.1-4.1,2-5.4,4
										c-0.2-2.9,2-5.6,4.7-6.7c2.7-1.1,5.8-0.7,8.5,0.3c2.7,1.1,5.1,2.8,7.4,4.6c0.9,0.7,1.9,1.5,2.5,2.4
										C540.4,322.2,534.2,318.9,532.4,318.6z"/>
									<path class="st10" d="M532.4,318.6c-2.1-0.3-4.3-0.3-6.1-1.4c-2.3-1.3-3.8-4.2-6.5-4.3c-2.3-0.1-4.1,2-5.4,4
										c-0.2-2.9,2-5.6,4.7-6.7c2.7-1.1,5.8-0.7,8.5,0.3c2.7,1.1,5.1,2.8,7.4,4.6c0.9,0.7,1.9,1.5,2.5,2.4
										C540.4,322.2,534.2,318.9,532.4,318.6z"/>
								</g>
							</g>
							<g style="clip-path:url(#XMLID_00000065034594138287068860000005957935122879082679_);">
								<path class="st0" d="M495,386.4c0.1-0.3,0.3-0.5,0.4-0.8C495.2,385.8,495,386.1,495,386.4z"/>
								<path class="st0" d="M498.6,367.9c-0.2-2.9,0.2-5.9,0.1-8.8c-0.1-2.9-0.9-6.1-3-8.1c-3.1-2.9-11.5-1.4-8.7,4.1
									c0.8,1.5,2.8,2.3,4.4,1.6c1.6-0.7,2.3-2.8,1.5-4.3c3.4,5.2,3.1,12.5-0.7,17.4c4.4,3.8,5.8,10.6,3.4,15.8
									c0.5-0.4,1.4-0.4,2,0c0.8,0.6,1.1,1.7,1.5,2.7c0.4,1,1.2,2,2.2,1.9c1.4-3.5,1-7.5,0-11.2
									C500.2,375.3,498.9,371.7,498.6,367.9z"/>
								<path class="st0" d="M529.4,312.6c-1.6-1.3-3.6-2.1-5.6-2.4L529.4,312.6z"/>
								<path class="st0" d="M543.5,349.9c-0.5-2-1.4-3.9-1.9-5.9c-1.3-4.7-0.5-9.7-1.1-14.5c-0.8-6.2-4-12.1-8.9-16.1l-2.1-0.9
									c2,1.6,3.6,3.8,4.3,6.3c1.7,5.7,2.2,11.7,2.9,17.5c1.1,9.1,2.8,18.1,5,27C543,359,544.5,354.4,543.5,349.9z"/>
								<path class="st0" d="M520.8,328.7c1.5-1.2,2.3-3,2.5-4.9c0.2-1.7,0.1-3.4-0.1-5c-0.1,0.7-1.1,1.3-1.9,1.1
									c-1-0.2-1.7-1.2-2.3-2.1c-0.1,0.5-0.3,1-0.4,1.5c-0.1-0.3-0.1-0.5-0.2-0.8l-0.6,0.7c0.8,2.4,1.7,5.2,0.4,7.4
									c-0.6,1.1-1.7,1.8-2.7,2.5C517,330.2,519.3,329.9,520.8,328.7z"/>
								<path class="st0" d="M523.1,318.2c0,0.2,0,0.4,0.1,0.6C523.2,318.6,523.2,318.4,523.1,318.2z"/>
								<path class="st0" d="M516.8,342.3c-4.2-8.2-8.4-16.4-13-24.4c-2.7-4.7-5.5-9.3-9.1-13.3c-1.6-1.8-6.2-5.9-8.7-3.2
									c-1.7,1.8,0.5,5.1-1.5,7.1c0.5,0,2.8-0.2,3.1,0.1c5.2,6.5,8.1,14.8,8,23.1c1.7-1.3,4,0.5,5.3,2.2
									c8.1,10.4,15.6,21.2,22.6,32.3c-1.4-4.9-1.4-10.2-2.9-15.1C519.8,348.1,518.3,345.2,516.8,342.3z"/>
								<path class="st0" d="M565.4,362.4c2-5.4,3.6-10.8,3.7-16.5c0.2-5.2-1-10.5-3.7-14.9c-0.7-1.1-3.6-5.7-5.1-5.3
									c-2.8,0.7,0.9,5.5,1.5,6.7c2.4,4.6,4.9,9.5,4.8,14.6c-0.1,4-1.8,7.8-3.1,11.5c-0.9,2.6-1.7,5.4-1.7,8.2
									c-0.2,0.3-0.4,0.6-0.6,0.9c-1.9,2.4-4.5,4.4-7.5,4.9c1.2-3.6,2.3-7.1,3.5-10.7c0.4-1.3,0.6-3-0.2-3.9c0.2-0.5,0.4-1,0.4-1.6
									c0-1-0.6-1.9-1-2.7c-1.6-3.4-1.1-7.4-0.7-11.2c0.5-4.7,0.7-9.4-0.7-13.9c-1.4-4.5-4.5-8.6-9-10.1c0.4,0.4,0.8,0.8,1.1,1.2
									l-1.5-1.1c0.9,1.9,1.9,3.9,2.8,5.8c-0.3,0.5-0.7,1-1,1.5c1.5-0.8,3.5,0.4,4.2,2c0.7,1.6,0.5,3.4,0.3,5.1
									c-0.9,9.7-0.4,19.4,1.4,28.9c-0.2,2.2-0.6,4.5-1.7,6.4c-1.3,2-3.6,3.6-6,3.2c0.5-2.3-0.4-5-2.3-6.4c-2.4,3.3-1,8.5-0.6,12.3
									c0.6,5.8,1.5,11.5,2.8,17.1c0.4-4.9,1.4-9.7,3-14.4c1.3,4.7,2.6,9.4,3.9,14.1c0-1.3,0.1-2.7,0.7-3.9s2.1-2,3.3-1.5
									c1,0.4,1.6,1.5,2,2.5c3.4,8.1,4.2,17.2,2.4,25.8c1.6,0.9,3.7-0.2,4.6-1.8c0.9-1.6,0.9-3.5,0.8-5.4
									C566,394.2,565.7,378.3,565.4,362.4z"/>
								<path class="st0" d="M525,367.4c-0.8,1.3,2.4,6.7,2.9,7.9c2.6,6.4,5.3,12.8,7.9,19.3c-0.9-8.5-2.9-16.8-6.1-24.7
									C529.1,368.6,526.5,364.7,525,367.4z"/>
								<path class="st0" d="M529.1,333.4c-0.4,0.7-1.1,1.5-1.9,1.3c-0.7-0.2-0.8-1.2-0.8-1.9c0.1-4.5,0.1-8.9,0.2-13.4
									c-3.6,2.6-3.1,6-3.4,9.8c-0.1,2.2,0.5,12.9-1,14.2c3.6-3,6.6-6.7,8.9-10.8C530.4,332,529.5,332.7,529.1,333.4z"/>
								<g class="st11">
									<path class="st2" d="M495,386.4c0.1-0.3,0.3-0.5,0.4-0.8C495.2,385.8,495,386.1,495,386.4z"/>
									<path class="st2" d="M498.6,367.9c-0.2-2.9,0.2-5.9,0.1-8.8c-0.1-2.9-0.9-6.1-3-8.1c-3.1-2.9-11.5-1.4-8.7,4.1
										c0.8,1.5,2.8,2.3,4.4,1.6c1.6-0.7,2.3-2.8,1.5-4.3c3.4,5.2,3.1,12.5-0.7,17.4c4.4,3.8,5.8,10.6,3.4,15.8
										c0.5-0.4,1.4-0.4,2,0c0.8,0.6,1.1,1.7,1.5,2.7c0.4,1,1.2,2,2.2,1.9c1.4-3.5,1-7.5,0-11.2
										C500.2,375.3,498.9,371.7,498.6,367.9z"/>
									<path class="st2" d="M529.4,312.6c-1.6-1.3-3.6-2.1-5.6-2.4L529.4,312.6z"/>
									<path class="st2" d="M543.5,349.9c-0.5-2-1.4-3.9-1.9-5.9c-1.3-4.7-0.5-9.7-1.1-14.5c-0.8-6.2-4-12.1-8.9-16.1l-2.1-0.9
										c2,1.6,3.6,3.8,4.3,6.3c1.7,5.7,2.2,11.7,2.9,17.5c1.1,9.1,2.8,18.1,5,27C543,359,544.5,354.4,543.5,349.9z"/>
									<path class="st2" d="M520.8,328.7c1.5-1.2,2.3-3,2.5-4.9c0.2-1.7,0.1-3.4-0.1-5c-0.1,0.7-1.1,1.3-1.9,1.1
										c-1-0.2-1.7-1.2-2.3-2.1c-0.1,0.5-0.3,1-0.4,1.5c-0.1-0.3-0.1-0.5-0.2-0.8l-0.6,0.7c0.8,2.4,1.7,5.2,0.4,7.4
										c-0.6,1.1-1.7,1.8-2.7,2.5C517,330.2,519.3,329.9,520.8,328.7z"/>
									<path class="st2" d="M523.1,318.2c0,0.2,0,0.4,0.1,0.6C523.2,318.6,523.2,318.4,523.1,318.2z"/>
									<path class="st2" d="M516.8,342.3c-4.2-8.2-8.4-16.4-13-24.4c-2.7-4.7-5.5-9.3-9.1-13.3c-1.6-1.8-6.2-5.9-8.7-3.2
										c-1.7,1.8,0.5,5.1-1.5,7.1c0.5,0,2.8-0.2,3.1,0.1c5.2,6.5,8.1,14.8,8,23.1c1.7-1.3,4,0.5,5.3,2.2
										c8.1,10.4,15.6,21.2,22.6,32.3c-1.4-4.9-1.4-10.2-2.9-15.1C519.8,348.1,518.3,345.2,516.8,342.3z"/>
									<path class="st2" d="M565.4,362.4c2-5.4,3.6-10.8,3.7-16.5c0.2-5.2-1-10.5-3.7-14.9c-0.7-1.1-3.6-5.7-5.1-5.3
										c-2.8,0.7,0.9,5.5,1.5,6.7c2.4,4.6,4.9,9.5,4.8,14.6c-0.1,4-1.8,7.8-3.1,11.5c-0.9,2.6-1.7,5.4-1.7,8.2
										c-0.2,0.3-0.4,0.6-0.6,0.9c-1.9,2.4-4.5,4.4-7.5,4.9c1.2-3.6,2.3-7.1,3.5-10.7c0.4-1.3,0.6-3-0.2-3.9
										c0.2-0.5,0.4-1,0.4-1.6c0-1-0.6-1.9-1-2.7c-1.6-3.4-1.1-7.4-0.7-11.2c0.5-4.7,0.7-9.4-0.7-13.9c-1.4-4.5-4.5-8.6-9-10.1
										c0.4,0.4,0.8,0.8,1.1,1.2l-1.5-1.1c0.9,1.9,1.9,3.9,2.8,5.8c-0.3,0.5-0.7,1-1,1.5c1.5-0.8,3.5,0.4,4.2,2
										c0.7,1.6,0.5,3.4,0.3,5.1c-0.9,9.7-0.4,19.4,1.4,28.9c-0.2,2.2-0.6,4.5-1.7,6.4c-1.3,2-3.6,3.6-6,3.2
										c0.5-2.3-0.4-5-2.3-6.4c-2.4,3.3-1,8.5-0.6,12.3c0.6,5.8,1.5,11.5,2.8,17.1c0.4-4.9,1.4-9.7,3-14.4
										c1.3,4.7,2.6,9.4,3.9,14.1c0-1.3,0.1-2.7,0.7-3.9s2.1-2,3.3-1.5c1,0.4,1.6,1.5,2,2.5c3.4,8.1,4.2,17.2,2.4,25.8
										c1.6,0.9,3.7-0.2,4.6-1.8c0.9-1.6,0.9-3.5,0.8-5.4C566,394.2,565.7,378.3,565.4,362.4z"/>
									<path class="st2" d="M525,367.4c-0.8,1.3,2.4,6.7,2.9,7.9c2.6,6.4,5.3,12.8,7.9,19.3c-0.9-8.5-2.9-16.8-6.1-24.7
										C529.1,368.6,526.5,364.7,525,367.4z"/>
									<path class="st2" d="M529.1,333.4c-0.4,0.7-1.1,1.5-1.9,1.3c-0.7-0.2-0.8-1.2-0.8-1.9c0.1-4.5,0.1-8.9,0.2-13.4
										c-3.6,2.6-3.1,6-3.4,9.8c-0.1,2.2,0.5,12.9-1,14.2c3.6-3,6.6-6.7,8.9-10.8C530.4,332,529.5,332.7,529.1,333.4z"/>
								</g>
							</g>
						</g>
						<g>
							<g>
								<g>
									<path class="st12" d="M538.2,318.8c2.1,7.8,3.2,15.8,3.3,23.9c0,1.3,0,2.7,0.4,4c0.4,1.3,1.4,2.5,2.7,2.7"/>
									<path class="st12" d="M555.1,326.6c3.5,7.5-0.1,24.2,0.2,25.3c0.3,1.2,0.9,2.3,2,2.9"/>
									<g>
										<path class="st12" d="M524.3,317.7c-0.4,2.4-0.8,5.1-1.2,7.5c-2.8-2.4-4.5-5.9-4.8-9.5"/>
										<path class="st12" d="M501.5,381.4c-0.9,0.4-1.7,0.8-2.6,1.1"/>
										<path class="st12" d="M502.1,383.5c-0.4,2-0.4,4.1,0,6"/>
										<path class="st12" d="M517.2,361.2c1,1.7,1.9,3.4,2.9,5.1"/>
										<path class="st12" d="M522.7,342.4c0.9-1.3,1.9-2.7,2.8-4"/>
										<path class="st12" d="M562.6,361.2c-0.3,1-0.6,2.1-0.9,3.1"/>
										<path class="st12" d="M555.7,352.6c0.8-2.7,1.7-5.3,2.5-8"/>
										<path class="st12" d="M564.1,338.4c1.5-0.9,3.6-0.2,4.3,1.4"/>
										<path class="st12" d="M546.9,324.7c2-0.6,4.2-0.1,5.8,1.3"/>
										<path class="st12" d="M493.8,332.6c1.8-2,4.7-3.1,7.4-2.8"/>
									</g>
								</g>
								<path class="st12" d="M483,310.1c1.7-1.2,3.9-1.8,6-1.4"/>
								<path class="st2" d="M485.2,363.5c-1.4,1.1-2.6,2.4-3.5,3.9L485.2,363.5z"/>
							</g>
							<path class="st12" d="M486.4,358.1c1.9-1.3,4.9,1.7,6.6,0.1c0.7-0.6,0.7-1.7,0.6-2.6c-0.2-0.9-0.5-1.8-0.3-2.7"/>
						</g>
					</g>
				</g>
				<path class="st12" d="M539.6,349.8c2.3,4.7,2.8,10.3,1.3,15.3"/>
				<path class="st12" d="M553.5,357.2c0.4,2.2-0.1,4.6-1.2,6.6"/>
			</g>
		</g>
		<g>
			<g>
				<g>
					<g>
						<g>
							<path class="st13" d="M534.8,472.1l-12.5-39.2c-11.7-12-33.2-23.1-35-39.7c-2.4-21.4-5.7-20.5-5.7-25.9
								c0-0.2,1.5-2.7,3.3-8.1c0.6-1.8,0.9-4.3,1.2-6.5c0.3-2.2,2.3-3.9,4.6-3.7c1.5,0.1,3,0.7,4.2,1.6c2.2,1.8,3.3,4.7,3.5,7.5
								c0.3,2.8-0.2,5.7-0.6,8.5c2.3,4.3,3.6,9.7,4.6,14.5c1-4,1.7-8,2.7-12c0.3-0.2,0.1-0.5,0.4-0.6c-2.1-3.7-0.5-3.6-4.6-11.9
								c-6.9-13.9-14.5-27.2-20.5-44.9c-0.5-1.4-0.6-3.7-0.2-5.1c1.4-5.2,6.8-4.4,9.3-1.6c0.7,0.7,1.2,1.6,1.6,2.5
								c2.9,6.2,8.7,15.7,12.9,21.2l14.3,18.9c0,0,4.3-4,4.9-5.7l0,0c0.6-1.7,0-15.1,0-15.1s-0.9,2.6-3.1,2.6
								c-1.6,0-4.9,1.2-7.5-1.3c-2.1-2-2.3-5.3-0.7-7.8l5.3-8.3c0,0,3.7-3.7,9.1-1.7c5.4,2,10.9,6.6,10.9,6.6s4.9-0.6,9.1,1.1
								c4.3,1.7,9,7.2,9,7.2s4.9,0,7.2,1.4c0.6,0.4,8.7,11.4,6.7,20.5c-1.2,5.5-1.7,13.3-2.3,15.4l-0.1,52.8l9.9,35"/>
						</g>
						<g>
							<g>
								<g>
									<path class="st13" d="M538.2,318.8c2.1,7.8,3.2,15.8,3.3,23.9c0,1.3,0,2.7,0.4,4c0.4,1.3,1.4,2.5,2.7,2.7"/>
									<path class="st13" d="M555.1,326.6c3.5,7.5-0.1,24.2,0.2,25.3c0.3,1.2,0.9,2.3,2,2.9"/>
									<g>
										<path class="st13" d="M524.3,317.7c-0.4,2.4-0.8,5.1-1.2,7.5c-2.8-2.4-4.5-5.9-4.8-9.5"/>
										<path class="st13" d="M501.5,381.4c-0.9,0.4-1.7,0.8-2.6,1.1"/>
										<path class="st13" d="M502.1,383.5c-0.4,2-0.4,4.1,0,6"/>
										<path class="st13" d="M517.2,361.2c1,1.7,1.9,3.4,2.9,5.1"/>
										<path class="st13" d="M522.7,342.4c0.9-1.3,1.9-2.7,2.8-4"/>
										<path class="st13" d="M562.6,361.2c-0.3,1-0.6,2.1-0.9,3.1"/>
										<path class="st13" d="M555.7,352.6c0.8-2.7,1.7-5.3,2.5-8"/>
										<path class="st13" d="M564.1,338.4c1.5-0.9,3.6-0.2,4.3,1.4"/>
										<path class="st13" d="M546.9,324.7c2-0.6,4.2-0.1,5.8,1.3"/>
										<path class="st13" d="M493.8,332.6c1.8-2,4.7-3.1,7.4-2.8"/>
									</g>
								</g>
								<path class="st13" d="M483,310.1c1.7-1.2,3.9-1.8,6-1.4"/>
								<path class="st13" d="M485.2,363.5c-1.4,1.1-2.6,2.4-3.5,3.9"/>
							</g>
							<path class="st13" d="M486.4,358.1c1.9-1.3,4.9,1.7,6.6,0.1c0.7-0.6,0.7-1.7,0.6-2.6c-0.2-0.9-0.5-1.8-0.3-2.7"/>
						</g>
					</g>
				</g>
				<path class="st13" d="M539.6,349.8c2.3,4.7,2.8,10.3,1.3,15.3"/>
				<path class="st13" d="M553.5,357.2c0.4,2.2-0.1,4.6-1.2,6.6"/>
			</g>
		</g>
		<path class="st3" d="M438.1,375.1c0.1,0.8,0.1,1.7-0.1,2.5c-0.8,3.6-3,14.1-3.8,19.8c-1,7-12.3,28.6-12.3,28.6
			s-10.4,12.9-15.7,19.7c-2.6,3.3-6.7,16.7-10.2,29.4c-4.4-1.3-8.8-2.8-13.1-4.3c-3.6-1.3-7.2-2.6-10.7-4c-5-2-11.3-5.1-18.7-9.1
			c2-7.2,3.3-12.7,3.3-13.1c-0.1-0.8,4.2-9,4.2-9l-3.8-49.5l-2.2-7.5c-1.2-3.9-1.9-7.9-2.2-11.9c-0.5-6.1,0-12.3,1.5-18.3l6.5-9.6
			l3-0.2l9.4-13.1c0,0,5.1-1.5,6.4,2.3c1.3,3.8-4.2,11-4.2,11l-1.9,11.8l4.5,11l2.3,0.9c0,0,0.8-19.4,0.3-23.3l5-17.7
			c0,0,3-5.9,3.9-8.9c0.9-3,6.2-5.9,9.3-0.7c0,0,1.7,2.6,0.5,6.3c-1.3,3.6-2.3,6.5-2.3,6.5s-1.1,15-1.5,15.4
			c-0.4,0.4,2.2,22.4,2.2,22.4l2,0.9l0.7-20.9l4.1-19.7c0,0-0.3-9.5,6.3-8.3c0,0,3.1-0.4,4.9,3.1c1.8,3.4,0.1,26.1,0.1,26.1
			l1.6,23.4l2.6,18.1l3.1-12.4c0,0,0.2-17.7,11.4-19.2c0,0,3.3-0.6,4,1.7c0.7,2.3-1.7,7-1.3,11.6
			C437.4,369.6,437.8,373.2,438.1,375.1z"/>
		<g>
			<g>
				<defs>
					<path id="XMLID_1_" d="M434.7,353.2c-0.5-2.4-3.9-2-3.9-2c-11.3,0.7-12.8,18.3-12.8,18.3l-4,12.1l-1.3-18.2l0.1-23.5
						c0,0,3.4-22.5,1.9-26c-1.5-3.5-4.7-3.4-4.7-3.4c-6.6-1.6-6.9,7.8-6.9,7.8l-5.5,19.3l-2.3,20.8l-1.9-1c0,0-0.9-22.1-0.5-22.5
						c0.4-0.4,2.7-15.3,2.7-15.3s1.3-2.8,2.8-6.3c1.5-3.5,0-6.3,0-6.3c-2.7-5.4-8.2-2.9-9.3,0c-1.1,2.9-4.5,8.6-4.5,8.6l-6.3,17.3
						c0.2,3.9-2,23.2-2,23.2l-2.3-1l-3.7-11.3l2.8-11.6c0,0,6.1-6.7,5-10.6c-1-3.9-6.2-2.8-6.2-2.8l-10.3,12.4h-3l-7.2,9.1
						c-1.9,5.9-2.9,12-2.9,18.1c0,4,0.4,8.1,1.3,12l1.6,7.7v49.6c0,0-4.9,7.9-4.9,8.7c0,0.3-2,6.6-4.9,14.4
						c12.4,7.3,23,12.9,30.6,15.9c3.5,1.4,7.1,2.7,10.7,4c4.5-12.7,9.8-26.4,12.8-29.5c5.8-6.3,17.1-18.4,17.1-18.4
						s12.9-20.7,14.4-27.6c1.3-5.7,4.3-15.9,5.3-19.4c0.2-0.8,0.3-1.6,0.3-2.5c-0.1-1.9-0.3-5.5-0.3-8.7
						C432.5,360.1,435.2,355.5,434.7,353.2z"/>
				</defs>
				<use xlink:href="#XMLID_1_"  style="overflow:visible;fill:#FFFFFF;"/>
				<clipPath id="XMLID_00000127006271305360322660000011271372227374313915_">
					<use xlink:href="#XMLID_1_"  style="overflow:visible;"/>
				</clipPath>
				<path style="clip-path:url(#XMLID_00000127006271305360322660000011271372227374313915_);fill:#6CC9FF;" d="M357.2,348.2
					c1.9-2.4,5.9-3.3,8.1-1.2c1.3,1.2,1.7,3.1,2,4.8c0.3,1.7,0.6,3.6,1.8,4.9c1.2,1.3,3.4,1.9,4.7,0.6c0.2,2.6,0.3,5.2,0.5,7.8
					c2.8-4.8,4.2-10.4,4.1-16c-0.1-2.7-0.5-5.5,0.2-8.1c0.6-2.6,2.7-5.2,5.4-5.3c3-0.1,5.4,2.8,6,5.7c0.6,3-0.1,6-0.3,9
					c-0.3,4.6,0.6,9.2,2.6,13.4c0.6-1.3,1.3-2.6,1.9-3.8c0.6,2.6,1.1,5.1,1.7,7.7c0.5-5.7,1-11.3,1.5-17c0.1-1.6,0.3-3.2,1-4.7
					c0.7-1.4,2.2-2.6,3.8-2.4c2.1,0.2,3.4,2.5,4.1,4.5c5.4,15.2,3.2,31.9,0.9,47.9c1.5,0.3,2.8-1.2,3.1-2.7c0.4-1.5,0.2-3.1,0.8-4.5
					c0.6-1.4,2.3-2.6,3.6-1.8c1.9,1.2,0.6,4.9,2.5,5.9c0.6-4.7,2.5-9.3,5.4-13c1.3-1.7,3.3-3.4,5.4-2.9c1.6,0.4,2.6,2,2.8,3.6
					c0.2,1.6,2.5-5,2.1-3.4c0.9-9.2-0.9-10.2,0-19.4c0.2-1.7,2.9-4.5,1.7-5.8c-1.1-1.2-4.3-2.9-5.8-2.2c-1.4,0.7-6.1,3-7.1,4.3
					c-5.9,8.1-5.5,19.8-7.3,29.7c-1.6-15-3.1-30.2-0.4-45c1.5-8.2,4.3-16.7,1.7-24.6c-1.2-3.6-4.4-7.2-8.1-6.5
					c-3,0.6-4.8,3.6-6.1,6.4c-4.1,9.4-5.9,19.7-7.7,29.8c2.2-10.2,4.5-20.4,6.7-30.6c0.6-2.6,1.2-5.4,0.7-8.1
					c-0.5-2.7-2.3-5.3-5-5.8c-2.6-0.6-5.2,1-7.2,2.8c-7.1,6.5-9.7,16.4-12,25.7c0.8-2.4,1.6-5,1.4-7.5c-0.3-2.6-1.9-5.2-4.4-5.7
					c-3.2-0.7-6.2,2.2-7.6,5.2c-1.4,3-2.1,6.5-4.4,8.9c-1.7-1.9-4.8-1.8-6.9-0.4c-2.1,1.4-3.3,3.7-4.4,6c-3.7,8.4-5.3,17.7-4.6,26.8
					c1.6-3.7,5.8-6,9.8-5.6c-0.2-2-0.5-4.1-0.7-6.1"/>
				<g style="clip-path:url(#XMLID_00000127006271305360322660000011271372227374313915_);">
					<g>
						<path class="st0" d="M365.1,367.6c-0.1,1.5-0.2,3-0.3,4.5c0.5-1.3,2.3-1.7,3.3-0.8c-0.2-1,0.4-1.9,0.8-2.8
							c0.4-0.9,0.4-2.2-0.5-2.6c-1-0.5-2.1,0.7-2.6,1.7c0-0.4-0.1-0.7-0.1-1.1L365.1,367.6z"/>
					</g>
					<g>
						<path class="st0" d="M382.2,364.9c-1.2,1.4-2.1,3.2-2.4,5c0.5-0.5,1.1-1,1.7-1.3c0.7-0.2,1.6-0.1,2,0.4
							c0.3,0.4,0.4,0.9,0.8,1.1c0.4,0.2,0.9,0,1.2-0.4c0.2-0.4,0.3-0.9,0.3-1.3c0.1-0.9,0.1-1.8-0.1-2.6c-0.3-0.8-0.9-1.6-1.7-1.8
							c-0.9-0.2-1.9,0.4-1.9,1.3L382.2,364.9z"/>
					</g>
					<g>
						<path class="st0" d="M398.8,369c-1.3,1.8-2.2,3.8-2.5,6c0.9-0.1,1.6-0.7,2.3-1.2c0.7-0.5,1.5-1.1,2.4-1.2s1.9,0.6,1.9,1.5
							c-0.2-1,0-2,0.1-3c0.1-1,0.2-2.1-0.2-3c-0.4-0.9-1.3-1.7-2.3-1.7c-1,0.1-1.9,1.2-1.4,2.1L398.8,369z"/>
					</g>
					<g>
						<path class="st0" d="M353.2,375c-0.9,1.7-1.4,3.7-1.4,5.6c0-0.9,0.9-1.6,1.7-1.7c0.9-0.1,1.8,0.2,2.5,0.7
							c0.2-0.9,0.4-1.8,0.2-2.7s-0.8-1.8-1.8-1.9c-0.9-0.1-1.9,0.7-1.7,1.6c-0.1-0.2-0.2-0.5-0.3-0.7L353.2,375z"/>
					</g>
				</g>
				
					<path id="XMLID_3_" style="opacity:0.5;clip-path:url(#XMLID_00000127006271305360322660000011271372227374313915_);fill:#FFFFFF;" d="
					M357.2,348.2c1.9-2.4,5.9-3.3,8.1-1.2c1.3,1.2,1.7,3.1,2,4.8c0.3,1.7,0.6,3.6,1.8,4.9c1.2,1.3,3.4,1.9,4.7,0.6
					c0.2,2.6,0.3,5.2,0.5,7.8c2.8-4.8,4.2-10.4,4.1-16c-0.1-2.7-0.5-5.5,0.2-8.1c0.6-2.6,2.7-5.2,5.4-5.3c3-0.1,5.4,2.8,6,5.7
					c0.6,3-0.1,6-0.3,9c-0.3,4.6,0.6,9.2,2.6,13.4c0.6-1.3,1.3-2.6,1.9-3.8c0.6,2.6,1.1,5.1,1.7,7.7c0.5-5.7,1-11.3,1.5-17
					c0.1-1.6,0.3-3.2,1-4.7c0.7-1.4,2.2-2.6,3.8-2.4c2.1,0.2,3.4,2.5,4.1,4.5c5.4,15.2,3.2,31.9,0.9,47.9c1.5,0.3,2.8-1.2,3.1-2.7
					c0.4-1.5,0.2-3.1,0.8-4.5c0.6-1.4,2.3-2.6,3.6-1.8c1.9,1.2,0.6,4.9,2.5,5.9c0.6-4.7,2.5-9.3,5.4-13c1.3-1.7,3.3-3.4,5.4-2.9
					c1.6,0.4,2.6,2,2.8,3.6c0.2,1.6,2.5-5,2.1-3.4c0.9-9.2-0.9-10.2,0-19.4c0.2-1.7,2.9-4.5,1.7-5.8c-1.1-1.2-4.3-2.9-5.8-2.2
					c-1.4,0.7-6.1,3-7.1,4.3c-5.9,8.1-5.5,19.8-7.3,29.7c-1.6-15-3.1-30.2-0.4-45c1.5-8.2,4.3-16.7,1.7-24.6
					c-1.2-3.6-4.4-7.2-8.1-6.5c-3,0.6-4.8,3.6-6.1,6.4c-4.1,9.4-5.9,19.7-7.7,29.8c2.2-10.2,4.5-20.4,6.7-30.6
					c0.6-2.6,1.2-5.4,0.7-8.1c-0.5-2.7-2.3-5.3-5-5.8c-2.6-0.6-5.2,1-7.2,2.8c-7.1,6.5-9.7,16.4-12,25.7c0.8-2.4,1.6-5,1.4-7.5
					c-0.3-2.6-1.9-5.2-4.4-5.7c-3.2-0.7-6.2,2.2-7.6,5.2c-1.4,3-2.1,6.5-4.4,8.9c-1.7-1.9-4.8-1.8-6.9-0.4c-2.1,1.4-3.3,3.7-4.4,6
					c-3.7,8.4-5.3,17.7-4.6,26.8c1.6-3.7,5.8-6,9.8-5.6c-0.2-2-0.5-4.1-0.7-6.1"/>
				<g style="opacity:0.5;clip-path:url(#XMLID_00000127006271305360322660000011271372227374313915_);">
					<g>
						<path class="st2" d="M365.1,367.6c-0.1,1.5-0.2,3-0.3,4.5c0.5-1.3,2.3-1.7,3.3-0.8c-0.2-1,0.4-1.9,0.8-2.8
							c0.4-0.9,0.4-2.2-0.5-2.6c-1-0.5-2.1,0.7-2.6,1.7c0-0.4-0.1-0.7-0.1-1.1L365.1,367.6z"/>
					</g>
					<g>
						<path class="st2" d="M382.2,364.9c-1.2,1.4-2.1,3.2-2.4,5c0.5-0.5,1.1-1,1.7-1.3c0.7-0.2,1.6-0.1,2,0.4
							c0.3,0.4,0.4,0.9,0.8,1.1c0.4,0.2,0.9,0,1.2-0.4c0.2-0.4,0.3-0.9,0.3-1.3c0.1-0.9,0.1-1.8-0.1-2.6c-0.3-0.8-0.9-1.6-1.7-1.8
							c-0.9-0.2-1.9,0.4-1.9,1.3L382.2,364.9z"/>
					</g>
					<g>
						<path class="st2" d="M398.8,369c-1.3,1.8-2.2,3.8-2.5,6c0.9-0.1,1.6-0.7,2.3-1.2c0.7-0.5,1.5-1.1,2.4-1.2s1.9,0.6,1.9,1.5
							c-0.2-1,0-2,0.1-3c0.1-1,0.2-2.1-0.2-3c-0.4-0.9-1.3-1.7-2.3-1.7c-1,0.1-1.9,1.2-1.4,2.1L398.8,369z"/>
					</g>
					<g>
						<path class="st2" d="M353.2,375c-0.9,1.7-1.4,3.7-1.4,5.6c0-0.9,0.9-1.6,1.7-1.7c0.9-0.1,1.8,0.2,2.5,0.7
							c0.2-0.9,0.4-1.8,0.2-2.7s-0.8-1.8-1.8-1.9c-0.9-0.1-1.9,0.7-1.7,1.6c-0.1-0.2-0.2-0.5-0.3-0.7L353.2,375z"/>
					</g>
				</g>
			</g>
			<g>
				<path class="st13" d="M341.5,450.9c2.8-7.8,4.9-14.1,4.9-14.4c0-0.8,4.9-8.7,4.9-8.7v-49.6l-1.6-7.7c-0.9-4-1.3-8-1.3-12
					c0-6.1,1-12.3,2.9-18.1l7.2-9.1h3l10.3-12.4c0,0,5.2-1.1,6.2,2.8c1,3.9-5,10.6-5,10.6l-2.8,11.6l3.7,11.3l2.3,1
					c0,0,2.2-19.3,2-23.2l6.3-17.3c0,0,3.4-5.7,4.5-8.6c1.1-2.9,6.7-5.4,9.3,0c0,0,1.5,2.8,0,6.3c-1.5,3.5-2.8,6.3-2.8,6.3
					s-2.3,14.9-2.7,15.3c-0.4,0.4,0.5,22.5,0.5,22.5l1.9,1l2.3-20.8l5.5-19.3c0,0,0.4-9.5,6.9-7.8c0,0,3.2-0.1,4.7,3.4
					c1.5,3.5-1.9,26-1.9,26l-0.1,23.5l1.3,18.2l4-12.1c0,0,1.5-17.7,12.8-18.3c0,0,3.4-0.3,3.9,2c0.5,2.3-2.2,6.9-2.2,11.4
					c0,3.2,0.2,6.8,0.3,8.7c0.1,0.8-0.1,1.7-0.3,2.5c-1,3.5-4.1,13.8-5.3,19.4c-1.5,6.9-14.4,27.6-14.4,27.6s-11.4,12.1-17.1,18.4
					c-2.9,3.2-8.2,16.8-12.8,29.5"/>
			</g>
			<path class="st4" d="M375.9,358.1c0.7,2.4,0,5-1.7,6.8"/>
			<path class="st4" d="M356.7,374.7c1.6-2.5,3.2-6,2.8-9c-0.9-5.9-3.5-12.6-2.3-18.4c0.8-3.7,1.5-7.4,2.3-11.1"/>
			<path class="st13" d="M404.2,319.4c1.9-0.5,4-0.5,6,0c0-0.6,0-1.1,0.1-1.7"/>
			<path class="st13" d="M388.6,311.9c1.1,0.8,2.8,0.9,4,0.3c1.2-0.7,2.1-2.1,2-3.5"/>
			<path class="st13" d="M431.7,353.4c-3.3,0.8-5.8,4.2-5.5,7.6c1,0.3,2,0.6,2.9,0.9"/>
			<path class="st4" d="M393.3,354.8c0.1,2-0.1,6.8,0,8.8"/>
			<path class="st4" d="M395.5,357.6c-0.2,3.3-0.5,6.6-0.7,9.8c0-0.4,0-0.8,0.1-1.3"/>
			<path class="st4" d="M413.7,385.3c0.9,3.6,0.5,7.5-1.1,10.8"/>
			<path class="st13" d="M383.5,368.1c-2.6,2.9-2.2,9.7-0.4,13.5"/>
			<path class="st13" d="M402.7,372.8c0.1,3.1-1.1,6.2-3.2,8.8"/>
			<path class="st13" d="M364.5,369.4c-0.4,2.9,0.2,5.9,1.8,8.3"/>
			<path class="st13" d="M353.4,378.3c-0.1,2.3,0.5,4.5,1.8,6.4"/>
			<path class="st13" d="M368.6,323.3c1.4-0.7,3.1-0.4,4.2,0.7c0.5-0.6,1-1.3,1.5-1.9"/>
			<path class="st13" d="M380.9,332.1c2-1.3,4.9-0.8,6.3,1.1"/>
			<path class="st13" d="M400,338c2.1-1,4.7-0.9,6.8,0.1"/>
			<path class="st13" d="M357.4,348.1c1.2-2.1,3.8-3.4,6.3-3.1"/>
			<path class="st13" d="M349.4,359.5c0-1.5,1.3-3,2.8-3.2"/>
		</g>
	</g>
</g>
<g id="Coffee">
	<g>
		<circle class="st18" cx="656.9" cy="224.2" r="49.5"/>
		<g>
			<g>
				<g>
					<path class="st3" d="M712.9,225.5c-10.5,17.3-14.3,15-50.3,32.2c-18.3,8.7-35.9-19.4-24-48.2c0.6-1.4,5.7-8.5,5.7-8.5
						c2.2-9.5,10.1-17.5,19.6-19.8c9.5-2.3,20.2,1.3,26.4,8.9c6.8-6,16.6-8.2,25.3-6c0.4,1.2,0.8,2.4,1.2,3.6
						c0.1,0.5,0.3,0.9,0.4,1.3c0.5,1.4,0.9,2.8,1.3,4.2c0.8,2.7,1.5,5.4,2.2,8.1c-4-1.1-8-1.1-11.7,0.7c-2.6,1.3-4.8,3.4-7.6,4.5
						c-2.7,1-6.5,0.5-7.6-2.3c1.3,5.5,7.1,3.9,12.7,5C715.2,210.8,717.4,218.3,712.9,225.5z"/>
				</g>
				<g>
					<path class="st19" d="M696.7,217c0,0,8.9-1.2,13.1-0.6c2.7,0.4,4.3,2,5.1,2.9c0.4,0.4,0.6,1,0.6,1.6l0.5,6.9
						c0.1,0.8-0.2,1.6-0.8,2.1c-1.7,1.8-6.9,5.1-22.4,6.3C671.1,237.9,696.7,217,696.7,217z"/>
					<g>
						<path class="st19" d="M690.2,199.1c2.5,3.1,7.2,10.1,7.2,21c0,8.2-9.6,36.4-34,39.8c-25.9,3.6-46.7-18.5-42.2-45.2
							C624.3,196.4,669.4,173.3,690.2,199.1z"/>
						<ellipse class="st2" cx="658.6" cy="218.3" rx="37.6" ry="35.5"/>
						<ellipse class="st8" cx="658.5" cy="220.2" rx="30.8" ry="29.2"/>
						<path class="st18" d="M696.1,218.3c0-19.6-16.8-35.5-37.6-35.5c-20.7,0-37.6,15.9-37.6,35.5"/>
						<path class="st18" d="M686.2,242.4c6.2-6.3,9.9-14.8,9.9-24.1"/>
						<path class="st18" d="M632.3,243.7c6.8,6.3,16.1,10.2,26.3,10.2c6.3,0,12.2-1.5,17.4-4.1"/>
						<path class="st18" d="M626.9,237.3c0.5,0.7,1,1.4,1.6,2.1"/>
						<path class="st18" d="M621,218.3c0,5.4,1.3,10.6,3.6,15.2"/>
					</g>
					<path class="st19" d="M713.7,228c0,0-6.7-4.7-17.6-0.4"/>
					<path class="st19" d="M707.9,231.3c-2.6,0.8-6.9,1.6-13.9,2.2"/>
					<path class="st19" d="M711.4,229.8c0,0-0.4,0.4-1.7,0.9"/>
				</g>
			</g>
			<g>
				<g>
					<path class="st2" d="M717.4,189c-0.1-0.5-0.3-0.9-0.4-1.3c-2.3-7.1-5.2-14.8-8.8-23c-0.7-1.5-1.3-3.1-2-4.6
						c-0.3,0-0.5,0-0.8,0.1c-3.4,0.3-7,0.8-9.8,2.7c-2.8,2-4.5,6.1-2.7,9c1.8,2.9,6.5,4.5,5.7,7.8c-7.6,4.3-17,3.8-25.5,6
						c-5.1,1.3-10,3.6-14.2,6.7c0,0,0,0,0,0c-1.3,1-2.6,2.1-3.9,3.2c-0.5,0.5-1.1,1.1-1.6,1.7c0,0,0,0,0,0c-0.7,0.9-1.2,1.9-1.3,3
						c-0.3,3.2,2.6,5.4,5.7,6.7c0.6,0.3,0.5,1.1,0,1.3c-2,0.8-4,1.8-5.6,3.2c0,0,0,0,0,0c-1,0.9-0.2,2.5,1.2,2.4c0.1,0,0.3,0,0.5,0
						c1.3-0.1,2.5,0.1,3.6,0.4c1.8,0.6,3.1,1.9,3.2,3.4c0.2,2.4-2.6,4.6-6.1,4.9c-0.9,0.1-0.2,1.1,1.1,1.3c2.5,0.5,5.1,0,7.6-0.6
						c3-0.7,6.2-1.8,7.9-4.3c0.7-1.1,0.9-2.5,0.7-3.8c-0.3-1.8-1.4-3.3-3.2-3.5c5.5-0.7,11-1.8,16.4-3.3h0l1.7-0.5
						c1.6-0.5,3.3-1.1,4.6-2c0.8-0.6,1.5-1.3,2-2.2c1.2-2.4-0.5-6.2-3.2-5.7c7.7-3,15.8-4.8,23.6-7.6
						C714.9,190,716.1,189.5,717.4,189z"/>
				</g>
			</g>
		</g>
	</g>
</g>
<g id="Monitor">
	<g>
		<path class="st3" d="M658.4,85.7c-7.2,6.4-15.4,11.9-23.7,16.8c-43.5,25.7-92.5,41.1-142.5,48.6c-49.9,7.5-100.8,7.3-151.1,3.1
			c-9.9-0.8-19.9-1.8-29-5.8c-7.7-3.4-14.7-9.3-17.9-16.9c10.9-12.4,21-25,32.3-36.8c2.7-2.8,5.4-5.6,8.3-8.3
			c2.4-2.3,4.8-4.5,7.3-6.7c2.9-2.5,5.8-5,8.9-7.4c4.2-3.3,8.7-6.5,13.5-9.5c1.2-0.8,2.3-1.5,3.5-2.2c119-74,206.6-49.8,265,0
			c4.4,3.7,8.7,7.6,12.7,11.7c2.5,2.4,4.9,4.9,7.2,7.4c0.3,0.3,0.5,0.5,0.8,0.8C655.2,82.2,656.8,84,658.4,85.7z"/>
		<path class="st19" d="M663.1,73.9l-400.3,1.8l6.1-9.1c2.9-4.4,7.8-7,13.1-7h362.3c4.8,0,9.2,2.2,12.2,5.9L663.1,73.9z"/>
		<g>
			<g>
				<path class="st20" d="M469.9,237.3h-21.9c-22.5,0-40.8-18.2-40.8-40.8v-21.9c0-22.5,18.2-40.8,40.8-40.8h21.9
					c22.5,0,40.8,18.2,40.8,40.8v21.9C510.6,219.1,492.4,237.3,469.9,237.3z"/>
				<path class="st21" d="M426,194.3V209c0,4.6,3.7,8.4,8.4,8.4h50.4c4.6,0,8.3-3.7,8.4-8.3c0.1-6.6,0.4-14.8,0.4-14.8H426z"/>
				<g>
					<g>
						<path class="st22" d="M610.6,199.3h-295c-3.1,0-5.9-1.9-7-4.8L263,77.7c-1.2-3.1,1.1-6.4,4.3-6.4h391.4c3.3,0,5.5,3.3,4.3,6.4
							l-45.5,116.8C616.5,197.3,613.7,199.3,610.6,199.3z"/>
						<polygon class="st8" points="612.8,189.1 312.7,189.1 271.4,78.7 653.9,78.7 						"/>
					</g>
				</g>
			</g>
			<rect x="426.3" y="199.1" class="st8" width="66.9" height="4.6"/>
			<g>
				<g>
					<path class="st0" d="M568.9,184.3H357c-1.2,0-2.3-0.5-2.5-1.2l-30.1-95.8c-0.3-1.1,0.6-1.9,2.1-1.9h273c1.5,0,2.4,0.9,2.1,1.9
						l-30.1,95.8C571.2,183.8,570.1,184.3,568.9,184.3z"/>
					<polygon class="st8" points="568.2,182.2 357.8,182.2 332.2,98 593.8,98 					"/>
					<g>
						<path class="st2" d="M388,118.9h-39.8c-1,0-1.6,0.5-1.4,1.2c0.2,0.7,1.1,1.2,2.1,1.2h39.6c1,0,1.7-0.5,1.6-1.2
							C389.9,119.4,389,118.9,388,118.9z"/>
						<path class="st2" d="M389.3,126.2h-33.9c-1,0-1.6,0.5-1.4,1.1c0.2,0.6,1.1,1.1,2,1.1h33.7c1,0,1.6-0.5,1.5-1.1
							C391.2,126.7,390.3,126.2,389.3,126.2z"/>
						<path class="st10" d="M390.6,133.2h-38.4c-0.9,0-1.6,0.5-1.4,1.1c0.2,0.6,1.1,1.1,2,1.1H391c0.9,0,1.6-0.5,1.5-1.1
							C392.4,133.7,391.6,133.2,390.6,133.2z"/>
						<path class="st2" d="M391.9,140h-22.6c-0.9,0-1.6,0.5-1.4,1.1c0.1,0.6,1,1.1,1.9,1.1h22.4c0.9,0,1.6-0.5,1.5-1.1
							C393.6,140.4,392.8,140,391.9,140z"/>
						<path class="st2" d="M393.1,146.5h-37.1c-0.9,0-1.5,0.5-1.4,1c0.2,0.6,1,1,1.9,1h36.9c0.9,0,1.6-0.5,1.5-1
							C394.8,147,394,146.5,393.1,146.5z"/>
						<path class="st2" d="M394.2,152.8h-30c-0.9,0-1.5,0.4-1.4,1c0.1,0.5,1,1,1.9,1h29.8c0.9,0,1.5-0.4,1.4-1
							C395.9,153.3,395.1,152.8,394.2,152.8z"/>
						<path class="st2" d="M395.4,159h-29.5c-0.9,0-1.5,0.4-1.3,1c0.1,0.5,1,1,1.9,1h29.3c0.9,0,1.5-0.4,1.4-1
							C397,159.4,396.2,159,395.4,159z"/>
						<path class="st2" d="M396.4,164.9h-32.2c-0.9,0-1.5,0.4-1.3,0.9c0.1,0.5,1,0.9,1.8,0.9h32c0.9,0,1.5-0.4,1.4-0.9
							C398.1,165.3,397.3,164.9,396.4,164.9z"/>
						<path class="st10" d="M397.5,170.6h-20.8c-0.9,0-1.5,0.4-1.3,0.9c0.1,0.5,0.9,0.9,1.8,0.9h20.7c0.9,0,1.5-0.4,1.4-0.9
							C399.1,171,398.3,170.6,397.5,170.6z"/>
						<path class="st10" d="M386.6,111.4h-29.7c-1,0-1.7,0.6-1.5,1.2c0.2,0.7,1.1,1.2,2.1,1.2h29.5c1,0,1.7-0.5,1.6-1.2
							C388.5,111.9,387.6,111.4,386.6,111.4z"/>
						<path class="st2" d="M385.2,103.5h-41.3c-1,0-1.7,0.6-1.5,1.3c0.2,0.7,1.2,1.3,2.2,1.3h41.1c1,0,1.7-0.6,1.6-1.3
							C387.1,104.1,386.2,103.5,385.2,103.5z"/>
						<path class="st2" d="M398.5,176.2h-34.2c-0.8,0-1.4,0.4-1.3,0.9c0.1,0.5,0.9,0.9,1.8,0.9h34.1c0.8,0,1.5-0.4,1.4-0.9
							C400.1,176.6,399.4,176.2,398.5,176.2z"/>
						<polygon class="st10" points="402,121.6 409.7,121.6 409.3,118.6 401.5,118.6 						"/>
						<polygon class="st10" points="403.1,128.7 410.7,128.7 410.3,125.9 402.6,125.9 						"/>
						<polygon class="st10" points="404.1,135.7 411.6,135.7 411.2,132.9 403.7,132.9 						"/>
						<polygon class="st10" points="405.1,142.4 412.4,142.4 412.1,139.7 404.7,139.7 						"/>
						<polygon class="st10" points="406.1,148.8 413.3,148.8 413,146.3 405.7,146.3 						"/>
						<polygon class="st10" points="407,155.1 414.1,155.1 413.8,152.6 406.7,152.6 						"/>
						<polygon class="st10" points="407.9,161.1 414.9,161.1 414.6,158.7 407.6,158.7 						"/>
						<polygon class="st10" points="408.8,167 415.7,167 415.4,164.7 408.5,164.7 						"/>
						<polygon class="st10" points="409.7,172.7 416.4,172.7 416.1,170.4 409.3,170.4 						"/>
						<polygon class="st10" points="400.9,114.1 408.7,114.1 408.3,111.1 400.4,111.1 						"/>
						<polygon class="st10" points="399.7,106.4 407.7,106.4 407.3,103.2 399.2,103.2 						"/>
						<polygon class="st10" points="410.5,178.2 417.1,178.2 416.9,176 410.2,176 						"/>
						<path class="st2" d="M451.2,165.8c0-0.5,0.7-0.9,1.5-0.9h114.3c0.9,0,1.5,0.4,1.3,0.9c-0.1,0.5-1,0.9-1.8,0.9H452.8
							C451.9,166.8,451.2,166.3,451.2,165.8z"/>
						<path class="st2" d="M568.2,160.9h-63.3c-0.9,0-1.6-0.4-1.5-1c0.1-0.5,0.8-1,1.7-1h63.6c0.9,0,1.5,0.4,1.3,1
							C570,160.5,569.1,160.9,568.2,160.9z"/>
						<path class="st10" d="M489.9,160.9h-19.7c-0.9,0-1.6-0.4-1.6-1c0-0.5,0.7-1,1.6-1H490c0.9,0,1.6,0.4,1.5,1
							C491.5,160.5,490.8,160.9,489.9,160.9z"/>
						<path class="st2" d="M531,154.8h-89.3c-0.9,0-1.7-0.4-1.7-1c0-0.5,0.7-1,1.6-1h89.8c0.9,0,1.5,0.4,1.4,1
							C532.7,154.4,531.9,154.8,531,154.8z"/>
						<path class="st10" d="M423,152.8h6.4c0.9,0,1.7,0.4,1.7,1c0,0.5-0.6,1-1.5,1h-6.3c-0.9,0-1.7-0.4-1.7-1
							C421.4,153.3,422.1,152.8,423,152.8z"/>
						<path class="st2" d="M543.9,147.5c-0.1,0.6-1,1-1.9,1h-84.2c-0.9,0-1.7-0.5-1.7-1c0-0.6,0.7-1,1.6-1h84.6
							C543.4,146.5,544,147,543.9,147.5z"/>
						<path class="st2" d="M422.3,146.5h23.9c0.9,0,1.7,0.5,1.7,1c0,0.6-0.7,1-1.6,1h-23.8c-0.9,0-1.7-0.5-1.8-1
							C420.7,147,421.4,146.5,422.3,146.5z"/>
						<path class="st2" d="M421.6,140h91.8c0.9,0,1.6,0.5,1.5,1.1c-0.1,0.6-0.9,1.1-1.8,1.1h-91.3c-0.9,0-1.7-0.5-1.8-1.1
							C420,140.4,420.7,140,421.6,140z"/>
						<path class="st2" d="M481.2,135.4c-0.9,0-1.7-0.5-1.7-1.1c0-0.6,0.8-1.1,1.8-1.1h48.4c0.9,0,1.6,0.5,1.5,1.1
							c-0.1,0.6-1,1.1-1.9,1.1H481.2z"/>
						<path class="st2" d="M420.9,133.2h41.9c0.9,0,1.7,0.5,1.7,1.1c0,0.6-0.8,1.1-1.7,1.1h-41.7c-0.9,0-1.8-0.5-1.8-1.1
							C419.3,133.7,420,133.2,420.9,133.2z"/>
						<path class="st2" d="M577.5,128.5H462.1c-1,0-1.7-0.5-1.7-1.1c0-0.6,0.8-1.1,1.7-1.1h116.1c1,0,1.6,0.5,1.4,1.1
							C579.4,127.9,578.5,128.5,577.5,128.5z"/>
						<path class="st2" d="M579.6,121.3H478.1c-1,0-1.8-0.5-1.7-1.2c0-0.7,0.8-1.2,1.8-1.2h102.1c1,0,1.6,0.5,1.4,1.2
							C581.5,120.7,580.6,121.3,579.6,121.3z"/>
						<path class="st10" d="M581.7,113.8h-21.3c-1,0-1.7-0.5-1.5-1.2c0.2-0.7,1.1-1.2,2.1-1.2h21.4c1,0,1.7,0.6,1.5,1.2
							C583.7,113.3,582.7,113.8,581.7,113.8z"/>
						<path class="st2" d="M545.6,113.8h-78.1c-1,0-1.8-0.5-1.8-1.2c0-0.7,0.8-1.2,1.8-1.2h78.5c1,0,1.7,0.6,1.6,1.2
							C547.5,113.3,546.6,113.8,545.6,113.8z"/>
						<path class="st2" d="M424.9,170.6H497c0.9,0,1.5,0.4,1.5,0.9c0,0.5-0.8,0.9-1.6,0.9h-71.7c-0.9,0-1.6-0.4-1.6-0.9
							C423.4,171,424.1,170.6,424.9,170.6z"/>
						<path class="st2" d="M425.5,176.2h110.8c0.8,0,1.4,0.4,1.3,0.9c-0.1,0.5-0.9,0.9-1.7,0.9H425.7c-0.8,0-1.6-0.4-1.6-0.9
							C424,176.6,424.7,176.2,425.5,176.2z"/>
						<path class="st2" d="M541.7,106.1h-56.4c-1,0-1.8-0.6-1.8-1.3c0-0.7,0.9-1.3,1.9-1.3h56.7c1,0,1.7,0.6,1.6,1.3
							C543.7,105.5,542.7,106.1,541.7,106.1z"/>
						<path class="st10" d="M469.3,106.1H418c-1,0-1.9-0.6-2-1.3c-0.1-0.7,0.7-1.3,1.7-1.3h51.6c1,0,1.8,0.6,1.8,1.3
							C471.2,105.5,470.3,106.1,469.3,106.1z"/>
						<path class="st10" d="M513,170.6c0.9,0,1.5,0.4,1.4,0.9c-0.1,0.5-0.8,0.9-1.7,0.9h-5.6c-0.9,0-1.5-0.4-1.4-0.9
							c0.1-0.5,0.8-0.9,1.7-0.9H513z"/>
						<path class="st10" d="M444.6,165.8c0,0.5-0.7,0.9-1.5,0.9h-7.6c-0.9,0-1.6-0.4-1.6-0.9c0-0.5,0.6-0.9,1.5-0.9h7.6
							C443.9,164.9,444.6,165.3,444.6,165.8z"/>
						<path class="st10" d="M536.2,141c-0.1,0.6-1,1.1-1.9,1.1h-8.9c-0.9,0-1.6-0.5-1.5-1.1c0.1-0.6,0.9-1.1,1.9-1.1h8.9
							C535.7,140,536.3,140.4,536.2,141z"/>
						<path class="st10" d="M563.9,146.5c0.9,0,1.5,0.5,1.4,1c-0.2,0.6-1,1-1.9,1h-7.1c-0.9,0-1.5-0.5-1.4-1c0.1-0.6,1-1,1.9-1
							H563.9z"/>
						<path class="st10" d="M448.2,128.5c-1,0-1.8-0.5-1.8-1.1c0-0.6,0.7-1.1,1.7-1.1h7.5c1,0,1.8,0.5,1.8,1.1
							c0,0.6-0.8,1.1-1.7,1.1H448.2z"/>
					</g>
				</g>
				<g>
					<path class="st2" d="M345.6,91.7c0.6,2-0.5,3.5-2.5,3.5c-2,0-4.1-1.6-4.7-3.5c-0.6-2,0.5-3.6,2.5-3.6
						C342.9,88.1,345,89.7,345.6,91.7z"/>
					<path class="st2" d="M355.3,91.8c0.5,2-0.7,3.5-2.6,3.5c-2,0-4-1.6-4.6-3.5c-0.6-2,0.6-3.6,2.6-3.6S354.8,89.8,355.3,91.8z"/>
					<path class="st2" d="M365.1,91.7c0.5,2-0.8,3.5-2.7,3.5s-4-1.6-4.5-3.5c-0.5-2,0.7-3.6,2.7-3.6
						C362.7,88.1,364.7,89.7,365.1,91.7z"/>
				</g>
			</g>
			<g>
				<polygon class="st23" points="271.4,78.7 303.5,164.7 342.3,78.7 				"/>
				<polygon class="st23" points="325.6,189.1 390,78.7 457.4,78.7 362.7,189.1 				"/>
				<polygon class="st23" points="486.4,78.2 386.1,189.1 401.5,189.1 505.5,78.7 				"/>
				<polygon class="st23" points="506.2,189.1 616.5,78.7 632,78.7 518.4,189.1 				"/>
			</g>
		</g>
	</g>
</g>
<g id="Code_1_">
	<g>
		<g>
			<g>
				<g>
					<path class="st19" d="M356.7,237h-25.2c-3.3,0-5.9,2.6-5.9,5.9v12.2c0,3.3,2.6,5.9,5.9,5.9h6.6l5,11.3l7-11.3h6.6
						c3.3,0,5.9-2.6,5.9-5.9v-12.2C362.7,239.6,360,237,356.7,237z"/>
				</g>
			</g>
			<g>
				<path class="st8" d="M340.7,244c0-0.6,0.5-1.1,1.2-1.1c0.7,0,1.2,0.5,1.2,1.1c0,0.7-0.5,1.2-1.2,1.2
					C341.2,245.1,340.7,244.6,340.7,244z M340.9,246.5h1.9v8.2h-1.9V246.5z"/>
				<path class="st8" d="M347.5,246.1v0.5h2.3v1.5h-2.2v6.6h-1.9v-6.6h-1.3v-1.5h1.3V246c0-1.7,1-2.8,2.9-2.8c0.7,0,1.3,0.1,1.7,0.4
					l-0.5,1.4c-0.3-0.2-0.7-0.3-1.1-0.3C347.9,244.7,347.5,245.2,347.5,246.1z"/>
			</g>
		</g>
		<g>
			<g>
				<g>
					<path class="st19" d="M433.4,238.7h-25.2c-3.3,0-5.9,2.6-5.9,5.9v12.2c0,3.3,2.6,5.9,5.9,5.9h6.6l5,11.3l7-11.3h6.6
						c3.3,0,5.9-2.6,5.9-5.9v-12.2C439.3,241.3,436.6,238.7,433.4,238.7z"/>
				</g>
			</g>
			<g>
				<path class="st8" d="M413.5,252.9h-6.4c0.2,1.2,1.2,2,2.7,2c0.9,0,1.6-0.3,2.2-0.9l1,1.2c-0.7,0.9-1.9,1.3-3.3,1.3
					c-2.7,0-4.5-1.8-4.5-4.2c0-2.4,1.8-4.2,4.2-4.2c2.4,0,4.1,1.7,4.1,4.2C413.5,252.5,413.5,252.7,413.5,252.9z M407.1,251.6h4.6
					c-0.2-1.2-1.1-2-2.3-2C408.1,249.6,407.2,250.4,407.1,251.6z"/>
				<path class="st8" d="M415.4,245h1.9v11.4h-1.9V245z"/>
				<path class="st8" d="M418.9,255.6l0.7-1.5c0.7,0.5,1.8,0.8,2.9,0.8c1.2,0,1.7-0.3,1.7-0.9c0-1.6-5.1-0.1-5.1-3.4
					c0-1.5,1.4-2.6,3.6-2.6c1.1,0,2.3,0.3,3.1,0.7l-0.7,1.5c-0.8-0.5-1.6-0.6-2.3-0.6c-1.2,0-1.7,0.4-1.7,0.9c0,1.7,5.1,0.2,5.1,3.4
					c0,1.5-1.4,2.5-3.7,2.5C421,256.5,419.6,256.1,418.9,255.6z"/>
				<path class="st8" d="M435.3,252.9h-6.4c0.2,1.2,1.2,2,2.7,2c0.9,0,1.6-0.3,2.2-0.9l1,1.2c-0.7,0.9-1.9,1.3-3.3,1.3
					c-2.7,0-4.5-1.8-4.5-4.2c0-2.4,1.8-4.2,4.2-4.2c2.4,0,4.1,1.7,4.1,4.2C435.4,252.5,435.4,252.7,435.3,252.9z M428.9,251.6h4.6
					c-0.2-1.2-1.1-2-2.3-2C430,249.6,429.1,250.4,428.9,251.6z"/>
			</g>
		</g>
		<g>
			<g>
				<g>
					<path class="st19" d="M507.7,238h-25.2c-3.3,0-5.9,2.6-5.9,5.9v12.2c0,3.3,2.6,5.9,5.9,5.9h6.6l5,11.3l7-11.3h6.6
						c3.3,0,5.9-2.6,5.9-5.9v-12.2C513.6,240.6,510.9,238,507.7,238z"/>
				</g>
			</g>
			<g>
				<path class="st8" d="M488.3,247v0.5h2.3v1.5h-2.2v6.6h-1.9v-6.6h-1.3v-1.5h1.3V247c0-1.7,1-2.8,2.9-2.8c0.7,0,1.3,0.1,1.7,0.4
					l-0.5,1.4c-0.3-0.2-0.7-0.3-1.1-0.3C488.7,245.7,488.3,246.2,488.3,247z"/>
				<path class="st8" d="M491,251.6c0-2.5,1.8-4.2,4.4-4.2c2.5,0,4.4,1.7,4.4,4.2c0,2.5-1.8,4.2-4.4,4.2
					C492.9,255.8,491,254,491,251.6z M497.8,251.6c0-1.6-1-2.6-2.4-2.6c-1.4,0-2.4,1-2.4,2.6c0,1.6,1,2.6,2.4,2.6
					C496.8,254.1,497.8,253.1,497.8,251.6z"/>
				<path class="st8" d="M506.3,247.4v1.8c-0.2,0-0.3,0-0.4,0c-1.5,0-2.4,0.9-2.4,2.5v4h-1.9v-8.2h1.8v1.2
					C504,247.8,504.9,247.4,506.3,247.4z"/>
			</g>
		</g>
		<g>
			<g>
				<g>
					<path class="st19" d="M580.9,237h-25.2c-3.3,0-5.9,2.6-5.9,5.9v12.2c0,3.3,2.6,5.9,5.9,5.9h6.6l5,11.3l7-11.3h6.6
						c3.3,0,5.9-2.6,5.9-5.9v-12.2C586.8,239.6,584.2,237,580.9,237z"/>
				</g>
			</g>
			<g>
				<path class="st8" d="M565,246.1h7.1v1.5H565V246.1z M565,249.8h7.1v1.5H565V249.8z"/>
			</g>
		</g>
		<g>
			<g>
				<g>
					<path class="st19" d="M395.1,222.8h-25.2c-3.3,0-5.9,2.6-5.9,5.9V241c0,3.3,2.6,5.9,5.9,5.9h6.6l5,11.3l7-11.3h6.6
						c3.3,0,5.9-2.6,5.9-5.9v-12.2C401,225.5,398.4,222.8,395.1,222.8z"/>
				</g>
			</g>
			<g>
				<path class="st8" d="M376.6,227.9h3.7v1.5h-1.7v11.3h1.7v1.5h-3.7V227.9z"/>
				<path class="st8" d="M385,242.2v-1.5h1.7v-11.3H385v-1.5h3.6v14.4H385z"/>
			</g>
		</g>
		<g>
			<g>
				<g>
					<path class="st19" d="M470,221.6h-25.2c-3.3,0-5.9,2.6-5.9,5.9v12.2c0,3.3,2.6,5.9,5.9,5.9h6.6l5,11.3l7-11.3h6.6
						c3.3,0,5.9-2.6,5.9-5.9v-12.2C475.9,224.2,473.2,221.6,470,221.6z"/>
				</g>
			</g>
			<g>
				<path class="st8" d="M452.3,233.8c0.6,0.2,0.9,0.6,0.9,1.6v2.9c0,0.7,0.4,1.2,1.1,1.2h0.3v1.5h-0.8c-1.7,0-2.6-0.9-2.6-2.5v-3.2
					c0-0.5-0.3-0.7-0.7-0.7H450V233h0.5c0.4,0,0.7-0.2,0.7-0.7v-3.2c0-1.6,0.9-2.5,2.6-2.5h0.8v1.5h-0.3c-0.8,0-1.1,0.4-1.1,1.2v2.9
					C453.2,233.2,452.9,233.6,452.3,233.8z"/>
				<path class="st8" d="M463.9,233v1.6h-0.5c-0.4,0-0.7,0.2-0.7,0.7v3.2c0,1.6-0.9,2.5-2.6,2.5h-0.8v-1.5h0.3
					c0.8,0,1.2-0.4,1.2-1.2v-2.9c0-1,0.3-1.4,0.9-1.6c-0.6-0.2-0.9-0.6-0.9-1.6v-2.9c0-0.7-0.4-1.2-1.2-1.2h-0.3v-1.5h0.8
					c1.7,0,2.6,0.9,2.6,2.5v3.2c0,0.5,0.3,0.7,0.7,0.7H463.9z"/>
			</g>
		</g>
		<g>
			<g>
				<g>
					<path class="st19" d="M544,219.1h-25.2c-3.3,0-5.9,2.6-5.9,5.9v12.2c0,3.3,2.6,5.9,5.9,5.9h6.6l5,11.3l7-11.3h6.6
						c3.3,0,5.9-2.6,5.9-5.9V225C549.9,221.7,547.3,219.1,544,219.1z"/>
				</g>
			</g>
			<g>
				<path class="st8" d="M530.4,228.1c0-0.8,0.6-1.3,1.3-1.3c0.7,0,1.3,0.5,1.3,1.3c0,0.7-0.6,1.3-1.3,1.3
					C531,229.4,530.4,228.9,530.4,228.1z M533,234c0,0.3-0.1,0.6-0.4,1.3l-0.8,2.2h-1.2l0.6-2.3c-0.4-0.2-0.7-0.6-0.7-1.1
					c0-0.8,0.5-1.3,1.2-1.3C532.4,232.7,533,233.2,533,234z"/>
			</g>
		</g>
		<g>
			<g>
				<g>
					<path class="st19" d="M445.6,433.2h25.2c3.3,0,5.9-2.6,5.9-5.9V415c0-3.3-2.6-5.9-5.9-5.9h-6.6l-1.9-11.3l-10.1,11.3h-6.6
						c-3.3,0-5.9,2.6-5.9,5.9v12.2C439.7,430.6,442.3,433.2,445.6,433.2z"/>
				</g>
			</g>
			<g>
				<path class="st8" d="M454.4,418.7l-5.3,2l5.3,2v1.6l-7.1-2.7v-1.7l7.1-2.7V418.7z"/>
				<path class="st8" d="M460,413.1h1.7l-5.1,14.4H455L460,413.1z"/>
				<path class="st8" d="M469.2,419.8v1.7l-7.1,2.7v-1.6l5.3-2l-5.3-2v-1.6L469.2,419.8z"/>
			</g>
		</g>
		<g>
			<g>
				<g>
					<g>
						<path class="st19" d="M285.5,344h25.2c3.3,0,5.9-2.6,5.9-5.9v-12.2c0-3.3-2.6-5.9-5.9-5.9h-6.6l1.4-11.3l-13.4,11.3h-6.6
							c-3.3,0-5.9,2.6-5.9,5.9v12.2C279.6,341.4,282.3,344,285.5,344z"/>
					</g>
				</g>
			</g>
			<g>
				<path class="st8" d="M293,336.2c0-0.7,0.5-1.2,1.2-1.2c0.7,0,1.2,0.5,1.2,1.2c0,0.7-0.5,1.2-1.2,1.2
					C293.5,337.4,293,336.9,293,336.2z M293.1,326.6h2.3l-0.4,7.2h-1.5L293.1,326.6z"/>
				<path class="st8" d="M297.4,329.3h7.1v1.5h-7.1V329.3z M297.4,333.1h7.1v1.5h-7.1V333.1z"/>
			</g>
		</g>
	</g>
</g>
<g id="Mouse">
	<g>
		<g>
			<g>
				<g>
					<defs>
						<path id="XMLID_4_" d="M688.7,330.1c0,4.9-0.4,9.7-1.2,14.2c-3.5,20.6-14.3,35.7-27.2,35.7c-1.1,0-2.3-0.1-3.4-0.4
							c-14-3-24.9-24-24.9-49.5c0-27.5,12.7-37.3,28.3-37.3C676,292.8,688.7,302.6,688.7,330.1z"/>
					</defs>
					<use xlink:href="#XMLID_4_"  style="overflow:visible;fill:#FFFFFF;"/>
					<clipPath id="XMLID_00000160191902879659484440000016623358423046566577_">
						<use xlink:href="#XMLID_4_"  style="overflow:visible;"/>
					</clipPath>
					<g style="clip-path:url(#XMLID_00000160191902879659484440000016623358423046566577_);">
						<path class="st0" d="M678.4,330.4c1.1,14.8-1.5,29.6-5.7,43.8c10.7-8.8,15.6-22.5,20-35.6c3.2-9.5,6.5-19.3,5.9-29.3
							c-0.6-10-5.9-20.4-15.3-23.9c-4.6-1.7-9.9-1.6-14.5,0.2c-7.9,3.2-3.6,5.7-0.3,11.4C674.4,307.2,677.6,318.8,678.4,330.4z"/>
						<path class="st10" d="M678.4,330.4c1.1,14.8-1.5,29.6-5.7,43.8c10.7-8.8,15.6-22.5,20-35.6c3.2-9.5,6.5-19.3,5.9-29.3
							c-0.6-10-5.9-20.4-15.3-23.9c-4.6-1.7-9.9-1.6-14.5,0.2c-7.9,3.2-3.6,5.7-0.3,11.4C674.4,307.2,677.6,318.8,678.4,330.4z"/>
					</g>
					<use xlink:href="#XMLID_4_"  style="overflow:visible;fill:none;stroke:#121212;stroke-width:1.1934;stroke-miterlimit:10;"/>
				</g>
				<g>
					<path class="st4" d="M675.6,355.5c-1.9,6.4-5,12.3-9.3,17.4"/>
					<path class="st13" d="M676.5,352c-0.1,0.7-0.3,1.3-0.5,2"/>
					<path class="st4" d="M676.4,330.1c1.5,6.4,1.7,13,0.6,19.4"/>
				</g>
				<path class="st13" d="M632,330.1c0,0,32.2-12.7,56.6,0"/>
				<path class="st4" d="M660.3,292.8c0,0,3.2,11.9,3.6,31.3"/>
				<path class="st22" d="M664.8,307.4c0.4,3.7-0.2,6.9-1.4,7.1c-1.2,0.2-2.5-2.7-2.9-6.4c-0.4-3.7,0.2-6.9,1.4-7.1
					C663.1,300.8,664.4,303.6,664.8,307.4z"/>
			</g>
		</g>
		<path class="st13" d="M647.6,389.5h-37.7c-4.7,0-8.6-3.5-9.2-8c-0.1-0.4-0.1-0.8-0.1-1.3v-89c0-0.4,0-0.9,0.1-1.3
			c0.6-4.5,4.5-8,9.2-8H717c1.6,0,3.1,0.4,4.5,1.1"/>
	</g>
</g>
</svg>
