<?xml version="1.0" encoding="utf-8"?>
<!-- Generator: Adobe Illustrator 28.0.0, SVG Export Plug-In . SVG Version: 6.00 Build 0)  -->
<svg version="1.1" xmlns="http://www.w3.org/2000/svg" xmlns:xlink="http://www.w3.org/1999/xlink" x="0px" y="0px"
	 viewBox="0 0 900 500" style="enable-background:new 0 0 900 500;" xml:space="preserve">
<style type="text/css">
	.st0{fill:#6CC9FF;}
	.st1{opacity:0.7;fill:#FFFFFF;}
	.st2{fill:none;stroke:#121212;stroke-linecap:round;stroke-linejoin:round;stroke-miterlimit:10;}
	.st3{fill:#B3B3B3;stroke:#121212;stroke-linecap:round;stroke-linejoin:round;stroke-miterlimit:10;}
	.st4{fill:#121212;}
	.st5{fill:#FFFFFF;stroke:#121212;stroke-linecap:round;stroke-linejoin:round;stroke-miterlimit:10;}
	.st6{fill:#121212;stroke:#121212;stroke-linecap:round;stroke-linejoin:round;stroke-miterlimit:10;}
	.st7{fill:#6CC9FF;stroke:#121212;stroke-linecap:round;stroke-linejoin:round;stroke-miterlimit:10;}
</style>
<g id="Background_Simple">
	<path class="st0" d="M473.6,16.9c43.5,8.7,92.9,32.9,113.1,74.9c30.5,63.4,85.4,62.7,99.6,182.7c2.2,18.7,2.3,36.3,0.7,52.7
		c-0.9,8.8-2.3,17.4-4.2,25.5c-17.1,74.1-73.3,120.4-137.8,133.8c-84.8,17.7-135-35.4-165.1-70.3c-30-34.9-129.9-66.8-144.7-184.7
		c-2.2-18-2.7-36.2-0.7-54.2c4.4-41.1,21.5-85,52.3-113.8c2.3-2.2,4.7-4.3,7.1-6.3C341.8,17.6,414.3,4.9,473.6,16.9z"/>
	<path class="st1" d="M473.6,16.9c43.5,8.7,92.9,32.9,113.1,74.9c30.5,63.4,85.4,62.7,99.6,182.7c2.2,18.7,2.3,36.3,0.7,52.7
		c-0.9,8.8-2.3,17.4-4.2,25.5c-17.1,74.1-73.3,120.4-137.8,133.8c-84.8,17.7-135-35.4-165.1-70.3c-30-34.9-129.9-66.8-144.7-184.7
		c-2.2-18-2.7-36.2-0.7-54.2c4.4-41.1,21.5-85,52.3-113.8c2.3-2.2,4.7-4.3,7.1-6.3C341.8,17.6,414.3,4.9,473.6,16.9z"/>
</g>
<g id="Graphics">
	<g>
		<line class="st2" x1="253.7" y1="57.7" x2="267.7" y2="71.6"/>
		<line class="st2" x1="267.7" y1="57.7" x2="253.7" y2="71.6"/>
	</g>
	<g>
		<line class="st2" x1="647.3" y1="424.4" x2="661.3" y2="438.4"/>
		<line class="st2" x1="661.3" y1="424.4" x2="647.3" y2="438.4"/>
	</g>
	<g>
		<line class="st2" x1="338.9" y1="131.6" x2="348.4" y2="141.1"/>
		<line class="st2" x1="348.4" y1="131.6" x2="338.9" y2="141.1"/>
	</g>
	<g>
		<line class="st2" x1="580.5" y1="357.9" x2="590" y2="367.4"/>
		<line class="st2" x1="590" y1="357.9" x2="580.5" y2="367.4"/>
	</g>
	<g>
		<line class="st2" x1="291.5" y1="444.6" x2="301" y2="454"/>
		<line class="st2" x1="301" y1="444.6" x2="291.5" y2="454"/>
	</g>
	<g>
		<line class="st2" x1="577.5" y1="30.8" x2="587" y2="40.3"/>
		<line class="st2" x1="587" y1="30.8" x2="577.5" y2="40.3"/>
	</g>
	<path class="st2" d="M268.9,112.9c0-3.3-2.7-6-6-6s-6,2.7-6,6c0,3.3,2.7,6,6,6S268.9,116.2,268.9,112.9z"/>
	<path class="st2" d="M461.6,33.8c0-3.3-2.7-6-6-6c-3.3,0-6,2.7-6,6c0,3.3,2.7,6,6,6C458.9,39.7,461.6,37.1,461.6,33.8z"/>
	<circle class="st2" cx="647.5" cy="364.6" r="6"/>
	<path class="st2" d="M421.2,472.2c0-3.3-2.7-6-6-6c-3.3,0-6,2.7-6,6c0,3.3,2.7,6,6,6C418.5,478.2,421.2,475.5,421.2,472.2z"/>
	<path class="st2" d="M329.4,316.8c0-3.3-2.7-6-6-6c-3.3,0-6,2.7-6,6c0,3.3,2.7,6,6,6C326.7,322.8,329.4,320.1,329.4,316.8z"/>
	<path class="st2" d="M685.6,135.3c0-3.3-2.7-6-6-6c-3.3,0-6,2.7-6,6c0,3.3,2.7,6,6,6C683,141.3,685.6,138.6,685.6,135.3z"/>
</g>
<g id="Table">
	<line class="st2" x1="692.5" y1="235.2" x2="207.5" y2="235.2"/>
</g>
<g id="Plant">
	<g>
		<path class="st3" d="M247.3,292.9l2.6,23.9c0,7,11.8,12.7,26.3,12.7c14.5,0,26.3-5.7,26.3-12.7l2.6-23.9H247.3z"/>
		<path class="st3" d="M245.4,278.8v14.7c0,3.8,13.8,8.5,30.8,8.5c17,0,30.8-4.7,30.8-8.5v-14.7H245.4z"/>
		<ellipse class="st3" cx="276.2" cy="278.8" rx="30.8" ry="8.7"/>
		<ellipse class="st4" cx="276.2" cy="278.8" rx="24" ry="6.8"/>
		<g>
			<path class="st4" d="M223.2,193.5c2.9,0.8,9.4-0.3,9.4-0.3c0.1,0-2-4.1-2.2-4.3c-1.9-2.8-7.2-7.1-10.8-6.1
				c-2.6,0.7-3.7,3.6-2.7,6.1C217.9,191.3,220.8,192.8,223.2,193.5z"/>
			<path class="st4" d="M289.9,185.3c0.1,0,0.6-4.5,0.6-4.8c0-3.4-2-9.9-5.6-11c-2.6-0.8-5.1,1-5.6,3.5c-0.5,2.6,1,5.5,2.7,7.4
				C283.8,182.6,289.9,185.3,289.9,185.3z"/>
			<path class="st4" d="M306.1,158.6c-3.8,0.1-7.5,5.9-8.4,9.1c-0.1,0.3-0.8,4.8-0.7,4.8c0,0,0.1,0,0.1,0c-0.6,0.9-1.2,1.9-1.9,3
				c-1.2,2-2.5,4.3-3.8,6.8c-1.3,2.6-2.6,5.4-3.8,8.5c-1.1,3.1-2.2,6.4-2.8,10c0,0,0,0.1,0,0.1c-0.1-1.1-0.6-4.2-0.7-4.4
				c-0.9-3.3-4.6-9-8.4-9.1c-2.7-0.1-4.7,2.3-4.5,4.9c0.2,2.7,2.5,5,4.6,6.4c2.4,1.6,8.5,2.5,8.9,2.6c-0.6,3.4-0.9,6.9-1,10.5
				c-0.1,2.1-0.1,4.1,0,6.2c-0.2-0.9-0.3-1.8-0.3-1.9c-0.9-3.3-4.6-9-8.4-9.1c-2.7-0.1-4.7,2.3-4.5,4.9c0.2,2.7,2.5,5,4.6,6.4
				c2.1,1.4,7.3,2.3,8.7,2.6c0,0.8,0,1.6,0,2.4c0.1,3.8,0.2,7.6,0.2,11.4c0,1.3-0.1,2.6-0.1,3.9c-0.1-0.8-0.3-1.5-0.3-1.7
				c-0.9-3.3-4.6-9-8.4-9.1c-2.7-0.1-4.7,2.3-4.5,4.9c0.2,2.7,2.5,5,4.6,6.4c2,1.3,6.8,2.3,8.4,2.5c-0.1,1.3-0.2,2.7-0.3,3.9
				c-0.1,0.9-0.2,1.7-0.3,2.6c-0.1,0.9-0.3,1.7-0.4,2.6c-0.3,1.6-0.7,3.3-1,4.9c-0.2,1.1-0.5,2.1-0.8,3.2c0-1.3,0-3.9,0-4.1
				c-0.3-2.2-1.6-5.7-3.5-8c0-0.3-0.1-0.7-0.2-1c-0.8-2.5-3.5-4-6-3c-3.5,1.5-4.9,8.2-4.5,11.5c0,0.2,0.5,2.3,0.8,3.7
				c-0.3-0.8-0.6-1.5-0.9-2.3c-0.6-1.5-1.3-3.1-2-4.7c-0.4-0.8-0.7-1.6-1.1-2.4c-0.4-0.8-0.8-1.6-1.2-2.4c-1-1.9-2.1-3.7-3.3-5.5
				c1.4-0.5,6.1-2.5,7.9-4.3c1.8-1.8,3.5-4.6,3.1-7.2c-0.4-2.6-2.8-4.5-5.4-3.8c-3.7,0.9-6,7.3-6.2,10.7c0,0.2,0.1,2.6,0.2,4
				c-0.7-1.1-1.4-2.2-2.1-3.3c-2.1-3.1-4.4-6.2-6.7-9.3c-0.7-0.9-1.4-1.9-2-2.8c0.5-0.2,6.2-2.4,8.2-4.5c1.8-1.8,3.5-4.6,3.1-7.2
				c-0.4-2.6-2.8-4.5-5.4-3.8c-3.7,0.9-6,7.3-6.2,10.7c0,0.3,0.2,3.8,0.3,4.6c-1.5-2.1-3-4.2-4.3-6.3c-1.9-2.9-3.6-5.9-5-8.9
				c0.2-0.1,6.2-2.4,8.2-4.5c1.8-1.8,3.5-4.6,3.1-7.2c-0.4-2.6-2.8-4.5-5.4-3.8c-3.7,0.9-6,7.3-6.2,10.7c0,0.2,0.1,2.9,0.2,4.2
				c-0.1,0-0.1,0-0.2,0.1c-1.5-3.2-2.5-6.6-3.4-9.7c-0.5-1.8-0.8-3.6-1.1-5.3c1.2-0.3,6.4-1.8,8.5-3.5c1.9-1.6,4-4.2,3.9-6.9
				c-0.1-2.6-2.3-4.8-5-4.4c-3.7,0.5-6.8,6.6-7.4,10c0,0.2-0.1,2.1-0.2,3.4c-0.1-0.8-0.3-1.6-0.4-2.3c-0.4-2.8-0.6-5.4-0.8-7.8
				c-0.1-1.3-0.1-2.5-0.2-3.6c1-0.9,4.9-4.6,5.9-7c1-2.3,1.6-5.6,0.3-7.9c-1.3-2.3-4.2-3.2-6.5-1.6c-3.1,2.2-3,9-2,12.2
				c0.1,0.3,2,4.5,2,4.4c0,0,0,0,0.1-0.1c0,1.1,0,2.2,0.1,3.5c0.1,2.3,0.2,5,0.6,7.8c0.3,2.8,0.8,5.9,1.5,9.1
				c0.8,3.2,1.7,6.6,3.2,9.9c0,0,0,0.1,0.1,0.1c-0.7-0.8-2.8-3.1-3-3.3c-2.6-2.2-8.8-5-12-3c-2.3,1.4-2.6,4.5-1.1,6.6
				c1.6,2.1,4.8,2.8,7.3,2.8c2.8,0,8.5-2.5,8.9-2.8c1.4,3.1,3.1,6.3,5,9.3c1.1,1.8,2.2,3.5,3.4,5.2c-0.6-0.7-1.2-1.3-1.3-1.4
				c-2.6-2.2-8.8-5-12-3c-2.3,1.4-2.6,4.5-1.1,6.6c1.6,2.1,4.8,2.8,7.3,2.8c2.6,0,7.4-2.1,8.7-2.6c0.5,0.7,0.9,1.3,1.4,2
				c2.2,3.1,4.4,6.3,6.4,9.4c0.7,1.1,1.4,2.2,2.1,3.3c-0.6-0.6-1.1-1.1-1.2-1.2c-2.6-2.2-8.8-5-12-3c-2.3,1.4-2.6,4.5-1.1,6.6
				c1.6,2.1,4.8,2.8,7.3,2.8c2.4,0,6.9-1.9,8.4-2.5c0.7,1.2,1.3,2.3,1.9,3.5c0.4,0.8,0.8,1.5,1.2,2.4c0.4,0.8,0.7,1.6,1.1,2.4
				c0.6,1.5,1.3,3.1,1.8,4.7c0.4,1.1,0.8,2.1,1.1,3.1c-0.7-1.1-2.1-3.2-2.3-3.4c-2.2-2.6-7.9-6.3-11.4-4.8c-2.5,1-3.3,4-2,6.3
				c1.3,2.4,4.3,3.5,6.8,3.9c2.7,0.4,8.5-1.2,9.2-1.4c0.6,1.7,1.2,3.3,1.7,4.9c1.8,5.4,3,9.9,3.9,13.1l2.5-0.4c0-0.1,0-0.1-0.1-0.2
				c-0.9-3.2-2.3-7.8-4.2-13.3c-0.6-1.7-1.3-3.5-2-5.4c0.4-0.2,2.7-1.6,4.8-3.1c2.2,1.8,7.5,3.5,8.2,3.7c-0.4,1.7-0.9,3.4-1.3,5
				c-1.5,5.5-2.9,9.9-4,13.1l2.8-0.4c1-3.1,2.2-7.2,3.4-12.1c0.4-1.8,0.9-3.7,1.3-5.6c0.7,0,6.7,0.4,9.3-0.6
				c2.4-0.9,5.1-2.7,5.8-5.3c0.7-2.5-0.7-5.3-3.3-5.8c-3.7-0.7-8.6,4.1-10.1,7.1c-0.1,0.2-0.9,2.2-1.4,3.5c0.2-0.8,0.3-1.6,0.5-2.4
				c0.3-1.6,0.6-3.3,1-5c0.1-0.9,0.3-1.7,0.4-2.6c0.1-0.9,0.2-1.8,0.3-2.7c0.2-2.1,0.3-4.2,0.3-6.4c1.4,0.3,6.5,1.3,9,0.7
				c2.5-0.5,5.5-1.9,6.6-4.3c1.1-2.4,0.2-5.3-2.4-6.2c-3.6-1.2-9.1,2.8-11.1,5.5c-0.1,0.2-1.4,2.3-2,3.4c0-1.3,0-2.6,0-3.9
				c-0.1-3.8-0.3-7.6-0.5-11.4c-0.1-1.2-0.1-2.3-0.1-3.5c0.5,0.1,6.5,1.4,9.3,0.8c2.5-0.5,5.5-1.9,6.6-4.3c1.1-2.4,0.2-5.3-2.4-6.2
				c-3.6-1.2-9.1,2.8-11.1,5.5c-0.2,0.2-1.9,3.2-2.3,4c-0.1-2.6-0.2-5.1-0.1-7.7c0-3.5,0.3-6.9,0.7-10.2c0.2,0.1,6.5,1.4,9.3,0.8
				c2.5-0.5,5.5-1.9,6.6-4.3c1.1-2.4,0.2-5.3-2.4-6.2c-3.6-1.2-9.1,2.8-11.1,5.5c-0.1,0.2-1.5,2.5-2.1,3.6c-0.1,0-0.1,0-0.2-0.1
				c0.5-3.5,1.5-6.9,2.6-10c0.6-1.8,1.3-3.5,2-5.1c1.1,0.4,6.4,2,9,1.8c2.5-0.3,5.6-1.3,7-3.6c1.4-2.2,0.7-5.3-1.7-6.4
				c-3.4-1.6-9.3,1.8-11.6,4.2c-0.1,0.1-1.3,1.6-2.1,2.7c0.3-0.7,0.7-1.5,1-2.2c1.2-2.6,2.5-4.9,3.7-6.9c0.7-1.1,1.3-2.2,1.9-3.1
				c1.3-0.2,6.6-1.1,8.7-2.6c2.1-1.4,4.4-3.7,4.6-6.4C310.7,160.9,308.8,158.5,306.1,158.6z"/>
		</g>
	</g>
</g>
<g id="Mouse">
	<g>
		<g>
			<path class="st5" d="M547,436.3l-0.5-3.1c0.2,0,15.5-2.4,22.8-9.4c1.6-1.5,1.5-2.6,1.4-3.3c-1.7-7-27.6-18-79.1-33.5
				c-8.5-2.6-16.7-5-24.6-7.3c-51.5-15.3-85.5-25.4-87.8-36.8c-0.6-2.9,0.7-5.6,3.8-8.2c17.8-14.8,88.8-20.2,91.8-20.4l0.2,3.2
				c-0.7,0.1-73,5.5-90.1,19.7c-3.3,2.7-2.9,4.6-2.8,5.2c2,9.6,38.9,20.6,85.6,34.4c7.9,2.3,16.1,4.8,24.6,7.3
				c68.8,20.8,79.7,29.5,81.3,35.8c0.5,2.2-0.2,4.4-2.2,6.3C563.4,433.8,547.6,436.2,547,436.3z"/>
			<path class="st6" d="M385.2,332.9l4.6,1c22.8-11.9,84.6-16.6,85.3-16.6l-0.2-3.2C471.9,314.3,406.1,319.3,385.2,332.9z"/>
		</g>
		<g>
			<path class="st7" d="M555.5,439.7c1.2-3.9-0.3-8.2-3.7-10.4c-4.6-3-13-6.7-27.2-7.7c-25.1-1.8-42.2,7.5-50.3,15.3
				c-8.1,7.8-6.3,17.1,5.4,22.7c11.7,5.7,20,7.2,29.9,5.7c9.9-1.5,26-9.3,31.7-13.2c5.7-3.9,12.6-7.5,14.1-12.3
				C555.4,439.8,555.4,439.7,555.5,439.7z"/>
			<path class="st5" d="M516.8,458.1c-14.1,9.6-27.5,5.1-27.5,5.1l-0.3,0.3c7.3,2.4,13.6,2.9,20.7,1.8c9.9-1.5,26-9.3,31.7-13.2
				c5.7-3.9,12.6-7.5,14.1-12.3c0,0,0-0.1,0-0.1c0.1-0.4,0.2-0.8,0.3-1.2C546.9,440.7,529.3,449.6,516.8,458.1z"/>
		</g>
		<path class="st5" d="M496.2,441.6c0,2.1-2.6,3.9-5.8,3.9c-3.2,0-5.8-1.7-5.8-3.9s2.6-3.9,5.8-3.9
			C493.6,437.7,496.2,439.5,496.2,441.6z"/>
	</g>
</g>
<g id="Keyboard">
	<g>
		<g>
			<path class="st5" d="M378.6,382.1L378,379c9.5-2,15.7-4.8,16.6-6.2c-1-1-5-3.2-8.3-4.9c-12.1-6.4-32.3-17-25.8-30.8
				c3.8-8.1,24.2-15.1,62.5-21.5c27.8-4.7,54.9-7.2,55.2-7.2l0.3,3.1c-0.3,0-27.3,2.5-54.9,7.2c-48.1,8.1-58.3,15.8-60.1,19.8
				c-5.1,11,12.7,20.4,24.5,26.7c7.2,3.8,10.4,5.5,10.1,7.9C397.1,377.8,384.1,381,378.6,382.1z"/>
			<path class="st6" d="M478.1,308.4c-0.3,0-27.4,2.5-55.2,7.2c-25.7,4.3-43.3,8.9-53.3,13.9l5.2,1.1c8.7-3.5,23.4-7.7,48.5-11.9
				c27.7-4.6,54.7-7.1,54.9-7.2L478.1,308.4z"/>
		</g>
		<g>
			<polygon class="st5" points="476.8,404.7 419.6,437.2 211.2,365 274.6,342.2 			"/>
			<g>
				<polygon class="st6" points="384.9,388.2 391.7,390.2 398.8,386.5 392.1,384.5 				"/>
				<polygon class="st6" points="374.4,379.5 368.5,383.1 382,387.3 389.2,383.6 374.7,379.3 				"/>
				<polygon class="st6" points="394.6,391.1 401.8,393.3 409,389.6 401.7,387.4 				"/>
				<polygon class="st6" points="348.4,376.9 354.9,378.9 361.6,375.4 355.6,373.6 				"/>
				<polygon class="st6" points="357.7,379.8 365.8,382.3 372,378.5 364.5,376.2 				"/>
				<polygon class="st6" points="390.3,399.3 383.2,397.1 376.1,400.8 383.1,403.1 				"/>
				<polygon class="st6" points="404.7,394.2 413.8,397 421.1,393.2 411.9,390.4 				"/>
				<polygon class="st6" points="330.9,371.6 337.1,373.5 344.1,370.1 337.6,368.2 				"/>
				<polygon class="st6" points="412.5,406.4 405,404 397.6,407.8 405.4,410.4 				"/>
				<polygon class="st6" points="421,401.5 414,399.3 407.7,402.6 415,404.9 				"/>
				<polygon class="st6" points="416.7,397.9 423.5,400 430.5,396 424,394.1 				"/>
				<polygon class="st6" points="402.2,403.1 393.1,400.2 385.9,404 394.8,406.9 				"/>
				<polygon class="st6" points="441.5,399.3 433.3,396.9 426.3,400.9 434.4,403.4 				"/>
				<polygon class="st6" points="431.9,404.8 423.8,402.3 417.7,405.8 425.7,408.3 				"/>
				<polygon class="st6" points="346.9,371.1 340.1,374.4 345.3,376 352.6,372.7 347,371 				"/>
				<polygon class="st6" points="249.1,365.9 255,363.3 251.3,362.1 245.2,364.6 				"/>
				<polygon class="st6" points="250.8,359.7 257.9,362 264,359.3 256.7,357.1 				"/>
				<polygon class="st6" points="259.7,355.8 266.9,358.1 272.2,355.7 264.9,353.5 				"/>
				<polygon class="st6" points="280,371.5 275.7,370.1 269.2,372.7 273.9,374.3 				"/>
				<polygon class="st6" points="263.8,366.2 258,364.3 252,366.9 257.8,368.8 				"/>
				<polygon class="st6" points="269.9,359 273,360 278.1,357.6 275.3,356.7 				"/>
				<polygon class="st6" points="272.6,369.1 266.8,367.2 260.8,369.8 266,371.6 				"/>
				<polygon class="st6" points="322,368.8 327.9,370.7 334.7,367.3 328.9,365.6 				"/>
				<polygon class="st6" points="305.4,363.7 310.2,365.2 316.6,361.9 311.8,360.5 				"/>
				<polygon class="st6" points="280.6,362.4 285.9,359.9 281.1,358.5 276,360.9 				"/>
				<polygon class="st6" points="313.1,366.1 319,367.9 325.9,364.7 319.5,362.8 				"/>
				<polygon class="st6" points="303.4,358 296.6,361 302.5,362.8 308.9,359.6 303.5,358 				"/>
				<polygon class="st6" points="287.8,358.3 293.6,360.1 300.4,357.1 294.3,355.2 				"/>
				<polygon class="st6" points="278.2,355.4 284.8,357.4 291.3,354.3 285,352.4 				"/>
				<polygon class="st6" points="363.5,388.7 373.2,391.7 379.3,388.6 369.1,385.5 				"/>
				<polygon class="st6" points="376.1,392.6 383,394.8 389,391.6 382.2,389.5 				"/>
				<polygon class="st6" points="411.1,398.4 402,395.6 395.8,398.9 404.8,401.7 				"/>
				<polygon class="st6" points="385.8,395.7 393,398 399.1,394.7 391.9,392.5 				"/>
				<polygon class="st6" points="288.8,374.4 282.9,372.5 276.8,375.2 282.7,377.2 				"/>
				<polygon class="st6" points="334.7,379.5 341.8,381.8 346.9,378.7 340,376.6 				"/>
				<polygon class="st6" points="344.5,382.6 351.3,384.8 356.6,381.7 349.6,379.5 				"/>
				<polygon class="st6" points="354,385.6 360.8,387.8 366.3,384.6 359.3,382.5 				"/>
				<polygon class="st6" points="285.2,366.1 280.7,364.7 274.6,367.5 279.3,369.1 				"/>
				<polygon class="st6" points="275.2,354.4 281.9,351.5 271.6,348.4 271.6,348.5 264.1,351.1 				"/>
				<polygon class="st6" points="260.6,350 268.2,347.4 266.1,346.8 258.7,349.4 				"/>
				<polygon class="st6" points="459.4,402.5 469.7,405.6 472.4,404 462.2,400.9 				"/>
				<polygon class="st6" points="277.8,363.7 273.2,362.3 267.3,365.1 271.7,366.6 				"/>
				<polygon class="st6" points="326,376.8 332,378.7 337.2,375.7 331.3,373.9 				"/>
				<polygon class="st6" points="260.9,363 264.4,364.2 270.3,361.3 267,360.3 				"/>
				<polygon class="st6" points="316.7,373.8 323.2,375.9 328.4,373 321.7,371 				"/>
				<polygon class="st6" points="311.4,374.4 305.5,372.5 299.4,375.6 305.5,377.7 				"/>
				<polygon class="st6" points="320.7,377.3 314.2,375.2 308.3,378.5 314.6,380.6 				"/>
				<polygon class="st6" points="339.4,383.2 332.2,380.9 326,384.4 333.4,386.8 				"/>
				<polygon class="st6" points="380.3,396.2 373.4,394 366.3,397.6 373.3,399.9 				"/>
				<polygon class="st6" points="348.9,386.2 342.1,384.1 336.1,387.7 342.8,389.9 				"/>
				<polygon class="st6" points="370.5,393.1 351.6,387.1 345.4,390.7 363.4,396.6 				"/>
				<polygon class="st6" points="329.4,380.1 323.5,378.2 317.4,381.5 323.3,383.5 				"/>
				<polygon class="st6" points="300.1,368.6 305.3,370.2 310.6,367.5 305.4,365.9 				"/>
				<polygon class="st6" points="290.7,365.6 297.2,367.7 302.5,365 295.8,363 				"/>
				<polygon class="st6" points="302.7,371.6 297.4,369.9 291.2,372.9 296.6,374.7 				"/>
				<polygon class="st6" points="308.2,371.1 313.9,372.9 319,370.1 313.5,368.4 				"/>
				<polygon class="st6" points="283.6,363.3 287.9,364.7 292.9,362.1 288.9,360.9 				"/>
				<polygon class="st6" points="294.5,369 288.1,367 282.1,370 288.3,372 				"/>
				<polygon class="st6" points="247.7,358.7 253.7,356.1 246.5,353.8 240,356.2 				"/>
				<polygon class="st6" points="306.6,387.5 274,376.5 274,376.5 274,376.5 257.9,371.1 247.3,375.8 296.5,392.8 				"/>
				<polygon class="st6" points="227.7,369 237.8,364.3 233.1,362.7 222.1,367.1 				"/>
				<polygon class="st6" points="246.2,367.1 240.7,365.3 230.5,370 235.6,371.8 				"/>
				<polygon class="st6" points="255,370.1 249.2,368.1 238.5,372.8 244.4,374.8 				"/>
				<polygon class="st6" points="334.2,396.8 328.1,394.8 317.6,400.1 324.2,402.4 				"/>
				<polygon class="st6" points="315.3,390.5 309.3,388.4 299.2,393.8 304.8,395.7 				"/>
				<polygon class="st6" points="325.3,393.9 318.1,391.4 307.6,396.7 314.8,399.2 				"/>
				<polygon class="st6" points="296,353.5 300.2,351.4 292.7,349.1 288,351.1 				"/>
				<polygon class="st6" points="298.9,354.4 303.4,355.7 308.1,353.8 303.1,352.2 				"/>
				<polygon class="st6" points="351.5,402.7 336.9,397.7 326.9,403.3 340.7,408.1 				"/>
				<polygon class="st6" points="306.6,356.7 311.6,358.2 316.1,356.2 311.3,354.8 				"/>
				<polygon class="st6" points="233.1,360.5 233.1,360.4 233.2,360.5 242.1,363.5 248.2,361.1 236.8,357.3 230.5,359.6 				"/>
				<polygon class="st6" points="279,348.5 284.8,350.2 289.6,348.1 284,346.4 				"/>
				<polygon class="st6" points="261.8,352.6 255.4,350.6 249.8,352.7 256.6,354.8 				"/>
				<polygon class="st6" points="424.8,419 416.1,416.1 409.3,420 417.8,422.8 				"/>
				<polygon class="st6" points="456.8,403.9 449.4,407.9 459.8,411.2 467.2,407 				"/>
				<polygon class="st6" points="275.8,347.5 280.8,345.4 274.8,343.6 269.4,345.6 				"/>
				<polygon class="st6" points="446.8,409.4 440.3,412.9 450.8,416.3 457.3,412.6 				"/>
				<polygon class="st6" points="418,425.1 407.1,431.1 418.1,434.9 428.8,428.8 				"/>
				<polygon class="st6" points="437.7,414.3 430.1,418.5 440.8,422 448.3,417.7 				"/>
				<polygon class="st6" points="230.5,361.7 227.3,360.8 215.8,364.9 219,366 				"/>
				<polygon class="st6" points="415.3,424.2 406.9,421.4 396.3,427.4 404.5,430.2 				"/>
				<polygon class="st6" points="382.7,413.2 373.9,410.3 363.2,415.9 371.9,418.9 				"/>
				<polygon class="st6" points="404.2,420.5 396.6,417.9 396.4,418 396.3,417.8 385.5,414.2 374.6,419.9 393.7,426.4 				"/>
				<polygon class="st6" points="371.2,409.3 364.2,407 353.5,412.5 360.4,414.9 				"/>
				<polygon class="st6" points="438.3,423.4 427.6,419.9 420.5,423.8 431.3,427.4 				"/>
				<polygon class="st6" points="314.7,359.2 319.3,360.5 323.7,358.6 319.2,357.2 				"/>
				<polygon class="st6" points="361.4,406 354.3,403.6 343.5,409.1 350.8,411.6 				"/>
				<polygon class="st6" points="367.5,375 374.5,377 378.1,375.2 371.7,373.2 				"/>
				<polygon class="st6" points="403,411.8 395,409.2 388.1,412.8 396.4,415.6 				"/>
				<polygon class="st6" points="380.5,404.5 373.4,402.1 366.8,405.6 373.8,408 				"/>
				<polygon class="st6" points="453.9,403 444.3,400.2 437.2,404.2 446.6,407.1 				"/>
				<polygon class="st6" points="413.4,415.2 405.7,412.7 399,416.5 406.7,419.1 				"/>
				<polygon class="st6" points="444,408.5 434.7,405.6 428.4,409.2 437.5,412.1 				"/>
				<polygon class="st6" points="423.2,409.7 415.2,407.2 408.1,411.3 415.9,413.8 				"/>
				<polygon class="st6" points="434.9,413.5 425.9,410.6 418.6,414.7 427.4,417.6 				"/>
				<polygon class="st6" points="392.2,408.3 383.3,405.4 376.5,408.9 385.3,411.9 				"/>
				<polygon class="st6" points="315.2,383 308.8,380.9 302.5,383.9 309.2,386.2 				"/>
				<polygon class="st6" points="324.2,386 317.9,383.9 311.9,387.1 318,389.1 				"/>
				<polygon class="st6" points="305.9,380 300.5,378.2 294.7,381.3 299.7,383 				"/>
				<polygon class="st6" points="360.8,398 337.1,390.2 330.8,393.5 354.1,401.4 				"/>
				<polygon class="st6" points="370.6,401.2 363.6,398.9 356.9,402.3 364,404.7 				"/>
				<polygon class="st6" points="334.3,389.3 327.1,386.9 320.8,390.1 328,392.5 				"/>
				<polygon class="st6" points="340.6,366.9 346.9,368.8 351.3,367 344.9,365 				"/>
				<polygon class="st6" points="350.1,369.8 355.5,371.3 359.7,369.6 354.5,368 				"/>
				<polygon class="st6" points="358.6,372.3 364.3,374 368.6,372.3 362.8,370.5 				"/>
				<polygon class="st6" points="377.4,377.9 383.2,379.6 383.2,379.6 386.9,377.9 380.9,376.1 				"/>
				<polygon class="st6" points="297.7,377.3 291.7,375.4 285.6,378.2 291.9,380.3 				"/>
				<polygon class="st6" points="331.7,364.2 337.5,366 341.8,364.1 335.8,362.2 				"/>
				<polygon class="st6" points="322.4,361.4 328.7,363.3 332.8,361.3 326.8,359.5 				"/>
				<polygon class="st6" points="426.7,392.7 433,394.6 436,392.9 429.9,391 				"/>
				<polygon class="st6" points="414.6,389.1 423.8,391.8 427,390.1 417.8,387.3 				"/>
				<polygon class="st6" points="459.4,400.1 449.7,397.1 446.9,398.7 456.5,401.6 				"/>
				<polygon class="st6" points="435.8,395.4 444.1,397.9 447,396.3 438.7,393.7 				"/>
				<polygon class="st6" points="386.2,380.5 391.9,382.3 395.6,380.5 389.9,378.8 				"/>
				<polygon class="st6" points="394.9,383.2 401.5,385.1 404.8,383.4 398.6,381.5 				"/>
				<polygon class="st6" points="404.4,386 411.7,388.2 415,386.5 407.7,384.3 				"/>
			</g>
			<polygon class="st5" points="419.6,437.2 419.1,443.7 476.2,411.9 476.8,404.7 			"/>
			<polygon class="st5" points="468.5,416.1 468.5,424 475.8,420 476.2,411.9 			"/>
			<polygon class="st6" points="468.5,424 458.4,422 468.7,416.1 			"/>
			<polygon class="st5" points="419.1,443.7 211.2,370.6 211.2,365 419.6,437.2 			"/>
		</g>
	</g>
</g>
<g id="Device">
	<g>
		<g>
			<g>
				<polygon class="st6" points="466.2,323.6 405.7,345.5 516.1,373.5 577.7,347.5 				"/>
				<polygon class="st5" points="405.7,345.5 405.7,348.9 515.9,378.1 516.1,373.5 				"/>
				<polygon class="st5" points="516.1,373.5 577.7,347.5 577.2,351.2 515.9,378.1 				"/>
			</g>
			<polygon class="st5" points="473.3,296.5 470.8,335 467.4,336.5 530.3,351.4 533.8,349.9 536.5,308.1 			"/>
			<polygon class="st6" points="469.8,297.9 467.4,336.5 530.3,351.4 533,309.6 			"/>
			<g>
				<path class="st5" d="M676.9,54.8l-3.8-1.4l-5.3,0.3l-0.4,1.4L373.5,72.6c-1.6,0.1-2.9,1.3-3.1,2.9L351,276.5
					c-0.1,1.4,0.8,2.6,2.1,2.9l274.1,52.5l-3,1.8l12.2,2.4l1.4-0.2l3.4-1.7c1.1-0.3,2-1.3,2.1-2.5L678.9,58
					C679,56.5,678.1,55.2,676.9,54.8z"/>
				<path class="st6" d="M368.6,73.6L347,278.1c-0.1,1.4,0.8,2.6,2.1,2.9l286.7,54.9c1.7,0.3,3.3-0.8,3.5-2.5l35.6-276.9
					c0.2-1.8-1.3-3.5-3.1-3.3l-300,17.5C370.1,70.8,368.8,72,368.6,73.6z"/>
				<polygon class="st7" points="375.2,79.8 357,249.4 631.3,291.5 662.2,63.9 				"/>
				<g>
					<path class="st2" d="M405.4,192.2c43.9-13.4,93-28.2,138.5-41.4c46-13.3,83-18.3,108.9-19.8"/>
					<path class="st2" d="M372.8,105.2c0,0,88.6,2,185.4,41.6"/>
					<path class="st2" d="M443.2,263.5c0,0,67.3-63.1,131-96.4c53.7-28,76.8-28.7,76.8-28.7"/>
				</g>
				<path class="st5" d="M349.1,281l286.7,54.9c1.7,0.3,3.3-0.8,3.5-2.5l3.5-26.9l-293.7-47.8l-2.1,19.4
					C346.9,279.5,347.8,280.8,349.1,281z"/>
			</g>
		</g>
		<g>
			<polygon class="st6" points="357,249.4 398.4,255.8 407.1,176.7 365.1,173.6 			"/>
			<g>
				<polygon class="st3" points="402.5,201.2 393.8,200.2 390.4,226.2 399.7,227.4 				"/>
				<path class="st3" d="M389,198.5c0,0.1,0,0.1-0.1,0.2l13.7,1.6l2.2-20.1l-13.3-1L389,198.5z"/>
				<polygon class="st3" points="389.5,226.1 392.8,200.1 379.7,198.6 376.4,224.4 				"/>
				<polygon class="st3" points="392.2,227.4 376.3,225.4 373.5,248.5 389.4,250.9 				"/>
				<path class="st3" d="M388,198.5c0-0.1,0-0.1,0-0.2l2.6-19.3l-8.4-0.6l-2.4,19.1L388,198.5z"/>
				<polygon class="st3" points="393.2,227.6 390.4,251.1 396.9,252.1 399.5,228.4 				"/>
			</g>
		</g>
	</g>
</g>
</svg>
