<?xml version="1.0" encoding="utf-8"?>
<!-- Generator: Adobe Illustrator 28.0.0, SVG Export Plug-In . SVG Version: 6.00 Build 0)  -->
<svg version="1.1" xmlns="http://www.w3.org/2000/svg" xmlns:xlink="http://www.w3.org/1999/xlink" x="0px" y="0px"
	 viewBox="0 0 900 500" style="enable-background:new 0 0 900 500;" xml:space="preserve">
<style type="text/css">
	.st0{fill:#6CC9FF;}
	.st1{fill:#D7F4FF;}
	.st2{fill:#6CC9FF;stroke:#121212;stroke-width:1.0132;stroke-linecap:round;stroke-miterlimit:10;}
	.st3{fill:none;stroke:#6CC9FF;stroke-width:1.0132;stroke-miterlimit:10;}
	.st4{fill:none;stroke:#121212;stroke-width:3.0396;stroke-linecap:round;stroke-linejoin:round;stroke-miterlimit:10;}
	.st5{opacity:0.4;}
	.st6{fill:none;stroke:#121212;stroke-width:2.0264;stroke-linecap:round;stroke-linejoin:round;stroke-miterlimit:10;}
	.st7{fill:#121212;stroke:#121212;stroke-width:1.0132;stroke-linecap:round;stroke-linejoin:round;stroke-miterlimit:10;}
	.st8{fill:#D7F4FF;stroke:#121212;stroke-width:1.0132;stroke-linecap:round;stroke-miterlimit:10;}
	.st9{fill:none;stroke:#121212;stroke-width:1.0132;stroke-linecap:round;stroke-miterlimit:10;}
	.st10{fill:#121212;stroke:#121212;stroke-width:1.0132;stroke-linecap:round;stroke-miterlimit:10;}
	.st11{fill:#D7F4FF;stroke:#121212;stroke-width:2.0264;stroke-linecap:round;stroke-linejoin:round;stroke-miterlimit:10;}
</style>
<g id="Background_Simple">
	<path class="st0" d="M633,185.7c-2.7-8.6-6.1-17.1-10.5-25.2c-22.1-41-60.7-71.9-103-90.1c-33.6-14.5-75.1-22.1-110.7-9
		c-18,6.6-35,19.3-44.6,36.1c-12.6,22-11.4,49.3-21.4,72.4c-8.1,18.7-28.2,30-44,41.5c-24.6,17.9-48.9,39.2-57.4,69.5
		c-11.4,40.5-8,88.7,15.1,124.7c17.2,26.9,46.7,34.9,77.1,35.5c28.7,0.5,63.8-6.7,90.6,6.4c45.7,22.3,105.9,47.3,157,29.7
		c52.6-18.2,78.5-53.6,86.1-99.5c7.7-45.9-13.4-84.2-20.1-120.6C643,234,640.2,208.6,633,185.7z"/>
	<path class="st1" d="M633,185.7c-2.7-8.6-6.1-17.1-10.5-25.2c-22.1-41-60.7-71.9-103-90.1c-33.6-14.5-75.1-22.1-110.7-9
		c-18,6.6-35,19.3-44.6,36.1c-12.6,22-11.4,49.3-21.4,72.4c-8.1,18.7-28.2,30-44,41.5c-24.6,17.9-48.9,39.2-57.4,69.5
		c-11.4,40.5-8,88.7,15.1,124.7c17.2,26.9,46.7,34.9,77.1,35.5c28.7,0.5,63.8-6.7,90.6,6.4c45.7,22.3,105.9,47.3,157,29.7
		c52.6-18.2,78.5-53.6,86.1-99.5c7.7-45.9-13.4-84.2-20.1-120.6C643,234,640.2,208.6,633,185.7z"/>
</g>
<g id="Plants">
	<g>
		<path class="st2" d="M248.9,323.6c-0.3-2.9-0.3-5.6-0.4-8c0-1.4,0-2.6,0-3.7c1-0.9,5.2-4.4,6.4-6.7c1.1-2.3,1.9-5.6,0.7-8
			c-1.2-2.4-4.2-3.6-6.5-2.1c-3.3,2-3.5,9-2.7,12.4c0.1,0.3,1.8,4.7,1.8,4.7c0,0,0.1,0,0.1-0.1c-0.1,1.1-0.1,2.3-0.1,3.6
			c0,2.4,0,5.1,0.2,8c0,0.5,0.1,1,0.1,1.5c0.4,0.6,0.6,0.9,0.6,0.9C249.1,325.2,249,324.4,248.9,323.6z"/>
		<path class="st2" d="M238.4,316.2c-4.4,0.7-5,4.8-0.9,7.5c3.5,2.2,9.4,2.4,11.1,2.4c0-0.3,0-0.6-0.1-0.9
			C246.9,322.6,242,315.6,238.4,316.2z"/>
		<path class="st2" d="M325.9,296.8c-3.9-0.1-8,5.5-9.1,8.8c-0.1,0.3-1.1,4.9-1,4.9c0,0,0.1,0,0.1,0c-0.7,0.9-1.3,1.8-2.1,2.9
			c-1.3,2-2.8,4.2-4.3,6.7c-0.2,0.3-0.3,0.6-0.5,0.9c-0.1,0.7-0.1,1.1-0.1,1.1s-0.1-0.1-0.3-0.3c-1.1,2.1-2.3,4.3-3.3,6.7
			c-1.3,3.1-2.6,6.4-3.4,10c0,0,0,0.1,0,0.1c-0.1-1.1-0.4-4.3-0.5-4.5c-0.8-3.4-4.2-9.5-8.1-10c-2.8-0.3-4.9,2-4.9,4.7
			c0,2.7,2.2,5.3,4.3,6.9c2.3,1.8,8.5,3.2,9,3.3c-0.8,3.4-1.3,7-1.6,10.7c-0.2,2.1-0.3,4.2-0.4,6.3c-0.1-1-0.2-1.9-0.2-2
			c-0.8-3.4-4.2-9.5-8.1-10c-2.8-0.3-4.9,2-4.9,4.7c0,2.7,2.2,5.3,4.3,6.9c2.1,1.6,7.4,2.9,8.8,3.3c0,0.8-0.1,1.6-0.1,2.4
			c-0.1,3.9-0.2,7.8-0.4,11.7c-0.1,1.4-0.2,2.7-0.3,4c-0.1-0.9-0.2-1.6-0.2-1.7c-0.8-3.4-4.2-9.5-8.1-10c-2.8-0.3-4.9,2-4.9,4.7
			c0,2.7,2.2,5.3,4.3,6.9c2,1.5,6.9,2.8,8.5,3.2c-0.1,0.9-0.2,1.9-0.4,2.8c0.6,0.2,1.2,0.3,1.8,0.4c0.2-1.8,0.4-3.6,0.5-5.4
			c1.4,0.4,6.6,1.8,9.2,1.4c2.6-0.4,5.7-1.6,7-4c1.3-2.4,0.5-5.4-2.1-6.5c-3.6-1.5-9.5,2.2-11.7,4.8c-0.1,0.2-1.5,2.2-2.3,3.4
			c0.1-1.3,0.2-2.6,0.2-4c0.1-3.9,0.1-7.8,0.2-11.7c0-1.2,0-2.4,0-3.6c0.5,0.1,6.6,1.9,9.5,1.5c2.6-0.4,5.7-1.6,7-4
			c1.3-2.4,0.5-5.4-2.1-6.5c-3.6-1.5-9.5,2.2-11.7,4.8c-0.2,0.2-2.2,3.2-2.6,4c0-2.6,0.1-5.3,0.3-7.8c0.2-3.6,0.6-7.1,1.3-10.4
			c0.2,0.1,6.6,1.9,9.5,1.5c2.6-0.4,5.7-1.6,7-4c1.3-2.4,0.5-5.4-2.1-6.5c-3.6-1.5-9.5,2.2-11.7,4.8c-0.2,0.2-2.3,3.4-2.7,4
			c0-0.2,0.1-0.4,0.1-0.6c0.7-3.6,1.9-6.9,3.2-10c0.7-1.8,1.5-3.5,2.3-5.1c1.1,0.5,6.4,2.5,9.1,2.4c2.6-0.1,5.8-0.9,7.4-3.2
			c1.5-2.2,1-5.3-1.4-6.7c-3.4-1.9-9.7,1.2-12.2,3.5c-0.1,0.1-1.4,1.6-2.3,2.7c0.4-0.7,0.7-1.5,1.1-2.1c1.4-2.6,2.8-4.8,4.1-6.8
			c0.7-1.1,1.4-2.1,2.1-3.1c1.4-0.1,6.8-0.7,9.1-2c2.2-1.3,4.7-3.5,5-6.2C330.5,299.5,328.7,296.9,325.9,296.8z"/>
		<path class="st2" d="M272.6,380.5c0.3,0.5,0.5,1,0.8,1.6c0.6-0.2,1.2-0.4,1.7-0.6c-0.7-1.3-1.3-2.6-2.1-3.9
			c1.4-0.5,6.4-2.1,8.3-3.9c1.9-1.7,3.8-4.5,3.6-7.2c-0.3-2.7-2.6-4.8-5.4-4.3c-3.8,0.7-6.6,7.1-7,10.5c0,0.2,0,2.7,0,4.1
			c-0.7-1.2-1.3-2.3-2-3.5c-2-3.3-4.2-6.7-6.3-10c-0.7-1-1.3-2-1.9-3.1c0.5-0.2,6.5-2,8.6-4c1.9-1.7,3.8-4.5,3.6-7.2
			c-0.3-2.7-2.6-4.8-5.4-4.3c-3.8,0.7-6.6,7.1-7,10.5c0,0.3,0,3.9,0,4.8c-1.4-2.2-2.8-4.5-4.1-6.8c-1.8-3.1-3.4-6.3-4.7-9.5
			c0.2-0.1,6.5-2,8.7-4c1.9-1.7,3.8-4.5,3.6-7.2c-0.3-2.7-2.6-4.8-5.4-4.3c-3.8,0.7-6.6,7.1-7,10.5c0,0.3,0,4.1,0,4.8
			c-0.1-0.2-0.2-0.4-0.3-0.6c-1.3-3.4-2.2-6.9-2.9-10.2c-0.4-1.9-0.7-3.8-0.9-5.5c1.2-0.2,6.7-1.4,8.9-3c2.1-1.5,4.3-4,4.3-6.7
			c0-2.7-2.1-5.1-4.9-4.9c-3.9,0.3-7.3,6.3-8.1,9.7c0,0.2-0.3,2.1-0.4,3.5c0,0-0.2,0-0.5,0c0.2,2.2,0.5,4.6,0.9,7.1
			c0.6,3.4,1.4,6.8,2.7,10.3c0,0,0,0.1,0,0.1c-0.7-0.9-2.7-3.4-2.9-3.6c-2.5-2.4-8.7-5.7-12.2-3.9c-2.5,1.3-2.9,4.4-1.4,6.7
			c1.5,2.3,4.8,3.2,7.4,3.4c2.9,0.2,8.8-2,9.3-2.2c1.3,3.3,2.8,6.6,4.6,9.9c1,1.9,2.1,3.7,3.2,5.6c-0.6-0.8-1.2-1.5-1.3-1.5
			c-2.5-2.4-8.7-5.7-12.2-3.9c-2.5,1.3-2.9,4.4-1.4,6.7c1.5,2.3,4.8,3.2,7.4,3.4c2.6,0.2,7.7-1.6,9-2.1c0.4,0.7,0.8,1.4,1.3,2.1
			c2.1,3.4,4.2,6.7,6.1,10.1c0.7,1.2,1.3,2.4,2,3.5c-0.6-0.7-1-1.3-1.1-1.3c-2.5-2.4-8.7-5.7-12.2-3.9c-2.5,1.3-2.9,4.4-1.4,6.7
			c1.5,2.3,4.8,3.2,7.4,3.4C266.3,382.7,271,381.1,272.6,380.5z"/>
		<path class="st2" d="M306.7,307.7c-3.9-2.2-6.9,0.6-5.4,5.3c1.3,4,5.9,7.9,7.2,8.9c0.2-0.3,0.3-0.6,0.5-0.9
			C309.3,317.9,309.9,309.5,306.7,307.7z"/>
	</g>
	<g>
		<path class="st2" d="M540.4,468.4c-4.3,0.1-8.4,6.6-9.4,10.3c-0.1,0.2-0.4,2.2-0.6,3.7c2,0.2,4,0.3,6,0.4c1.5-0.4,3-0.9,4-1.6
			c2.4-1.6,5-4.2,5.1-7.2C545.7,471.1,543.5,468.3,540.4,468.4z"/>
		<path class="st2" d="M503.5,411.1c-4.9,0-6.3,4.4-2.2,8c3.4,3,9.9,4.2,11.7,4.5c0-0.3,0.1-0.7,0.1-1
			C511.7,419.6,507.6,411,503.5,411.1z"/>
		<path class="st2" d="M582.8,467.7c1.8-2.3,1.4-5.9-1.2-7.5c-3.7-2.3-10.7,0.8-13.6,3.2c-0.2,0.2-2.9,3.1-3.5,3.9
			c0.5-2.9,1-5.7,1.7-8.5c0.9-3.9,1.9-7.6,3.2-11.1c0.2,0.1,6.8,3.3,10.1,3.3c2.9,0,6.5-0.7,8.3-3.1c1.8-2.3,1.4-5.9-1.2-7.5
			c-3.7-2.3-10.7,0.8-13.6,3.2c-0.2,0.2-3.1,3.3-3.6,3.9c0.1-0.2,0.1-0.4,0.2-0.6c1.4-3.8,3.3-7.2,5.2-10.3c1.1-1.8,2.3-3.5,3.4-5.1
			c1.2,0.7,6.6,3.9,9.5,4.3c2.8,0.4,6.5,0,8.6-2.2c2-2.1,2.1-5.6-0.4-7.6c-3.4-2.7-10.7-0.4-13.9,1.7c-0.2,0.1-1.8,1.5-2.9,2.5
			c0.5-0.7,1.1-1.5,1.6-2.1c2-2.6,3.9-4.8,5.7-6.7c1-1.1,1.9-2.1,2.8-3c1.5,0.1,7.6,0.4,10.3-0.6c2.7-1,5.8-3,6.6-5.9
			c0.8-2.8-0.8-6-3.8-6.6c-4.2-0.8-9.7,4.6-11.4,8c-0.2,0.3-2,5.1-2,5.1c0,0,0.1,0,0.1,0c-0.9,0.8-1.8,1.8-2.8,2.8
			c-1.8,1.9-3.8,4.1-5.8,6.6c-0.2,0.3-0.5,0.6-0.7,0.9c-0.2,0.8-0.3,1.2-0.3,1.2s-0.1-0.1-0.3-0.4c-1.6,2.1-3.2,4.3-4.8,6.7
			c-2,3.1-3.9,6.6-5.5,10.3c0,0,0,0.1,0,0.1c0.1-1.3,0.3-4.8,0.3-5c-0.2-3.8-2.9-11.1-7.1-12.3c-3-0.8-5.7,1.3-6.1,4.3
			c-0.5,3,1.5,6.2,3.5,8.3c2.2,2.3,8.8,5,9.3,5.2c-1.4,3.6-2.6,7.5-3.6,11.4c-0.6,2.3-1.1,4.6-1.5,6.9c0.1-1.1,0.1-2.1,0.1-2.2
			c-0.2-3.8-2.9-11.1-7.1-12.3c-3-0.8-5.7,1.3-6.1,4.3c-0.5,3,1.5,6.2,3.5,8.3c2,2.1,7.5,4.5,9,5.1c-0.2,0.9-0.4,1.8-0.5,2.7
			c-0.7,3.6-1.4,7.3-2.1,10.8c0.6-0.1,1.2-0.2,1.8-0.3c0.6-3.4,1.2-6.9,1.8-10.3c0.2-1.3,0.4-2.6,0.7-3.9c0.5,0.3,6.9,3.2,10.1,3.3
			C577.4,470.8,581,470.1,582.8,467.7z"/>
		<path class="st2" d="M579.5,413.7c-3.8-3.1-7.6-0.5-6.8,4.8c0.7,4.6,5.1,9.6,6.3,11c0.2-0.3,0.4-0.6,0.7-0.8
			C580.6,425.3,582.7,416.2,579.5,413.7z"/>
		<path class="st2" d="M513.7,421c0.2-3.2,0.6-6.2,1-8.8c0.2-1.5,0.5-2.8,0.7-4.1c1.3-0.7,6.5-3.8,8.2-6.2c1.6-2.3,3.1-5.7,2.2-8.6
			c-0.9-2.8-3.9-4.6-6.8-3.5c-3.9,1.7-5.4,9.2-5.1,13.1c0,0.3,1.1,5.5,1.2,5.4c0,0,0.1,0,0.1,0c-0.2,1.2-0.5,2.5-0.7,3.9
			c-0.4,2.6-0.9,5.6-1.2,8.8c-0.1,0.5-0.1,1.1-0.1,1.7c0.3,0.7,0.5,1.1,0.5,1.1C513.6,422.8,513.6,421.9,513.7,421z"/>
		<path class="st2" d="M515,475.8c-1.8,0.6-2.9,2.2-3.2,3.9c5.2,1,10.5,1.8,15.7,2.4C525.2,479,519,474.4,515,475.8z"/>
		<path class="st2" d="M551.8,473.9c-3-0.8-5.7,1.3-6.1,4.3c-0.2,1.6,0.2,3.3,1,4.8c3.8-0.1,7.6-0.3,11.4-0.8
			C556.9,478.7,554.7,474.7,551.8,473.9z"/>
		<path class="st2" d="M528.7,479c-1.6-4-3.4-8-5.2-12c-0.5-1.2-1.1-2.4-1.6-3.7c0.6-0.1,7.4-1.1,10.1-2.8c2.4-1.6,5-4.2,5.1-7.2
			c0.2-3-2-5.7-5.1-5.6c-4.3,0.1-8.4,6.6-9.4,10.3c-0.1,0.3-0.7,4.2-0.8,5.2c-1.2-2.7-2.3-5.4-3.3-8.1c-1.4-3.7-2.6-7.5-3.4-11.2
			c0.3,0,7.4-1.1,10.2-2.8c2.4-1.6,5-4.2,5.1-7.2c0.2-3-2-5.7-5.1-5.7c-4.3,0.1-8.4,6.6-9.4,10.3c-0.1,0.3-0.8,4.5-0.8,5.3
			c-0.1-0.2-0.1-0.4-0.2-0.7c-0.9-4-1.2-7.9-1.4-11.6c-0.1-2.1-0.1-4.2,0-6.2c1.4-0.1,7.5-0.4,10.2-1.7c2.5-1.3,5.4-3.6,5.9-6.6
			c0.5-2.9-1.4-5.9-4.5-6.2c-4.3-0.4-9.1,5.6-10.5,9.1c-0.1,0.2-0.6,2.2-1,3.7c0,0-0.2,0-0.5-0.1c-0.2,2.5-0.3,5.1-0.2,7.9
			c0.1,3.8,0.3,7.7,1.2,11.8c0,0,0,0.1,0,0.1c-0.6-1.1-2.4-4.2-2.5-4.4c-2.3-3.1-8.5-7.8-12.6-6.4c-2.9,1-4,4.3-2.7,7
			c1.3,2.8,4.7,4.4,7.4,5c3.1,0.7,10-0.7,10.5-0.8c0.8,3.8,1.9,7.7,3.3,11.6c0.8,2.2,1.6,4.4,2.5,6.6c-0.5-0.9-1-1.8-1.1-1.9
			c-2.3-3.1-8.5-7.8-12.6-6.4c-2.9,1-4,4.3-2.7,7c1.3,2.8,4.7,4.4,7.4,5c2.8,0.7,8.7-0.4,10.2-0.7c0.3,0.8,0.7,1.7,1,2.5
			c1.7,4,3.4,8.1,4.9,12c0.3,0.8,0.6,1.7,0.9,2.5c0.7,0.1,1.4,0.1,2,0.2C529.6,481.3,529.1,480.1,528.7,479z"/>
	</g>
</g>
<g id="Gears">
	<g>
		<path id="XMLID_11_" class="st3" d="M526.1,160.5l0.7,4l4.5,0.4l1.3-3.8c1.5-0.1,2.9-0.5,4.3-0.9l2.8,2.9l3.9-2.2l-1.1-3.9
			c1.1-1,2.1-2,3-3.2l3.9,0.7l1.9-4.1l-3.1-2.5c0.4-1.4,0.5-2.8,0.6-4.3l3.7-1.7l-0.8-4.4l-4-0.3c-0.5-1.4-1.2-2.7-2-3.8l2.1-3.5
			l-3.2-3.2l-3.6,2.1c-2-1.4-4.3-2.3-6.8-2.8l-1-4.1h-4.5l-1,4.1c-1.4,0.3-2.8,0.7-4,1.3l-3.2-2.8l-3.7,2.6l1.5,4
			c-1,1-1.8,2.1-2.6,3.3l-4.2-0.4l-1.5,4.2l3.5,2.4c-0.2,1-0.3,2-0.3,3c0,0.4,0,0.8,0,1.3l-3.7,2l1.2,4.3l4.1-0.1
			c0.6,1.3,1.4,2.5,2.3,3.6l-1.8,3.7l3.4,2.9l3.3-2.4 M540.6,137.9c0.9,1.6,1.4,3.5,1.4,5.5c0,6.2-5,11.2-11.2,11.2
			c-6.2,0-11.2-5-11.2-11.2c0-6.2,5-11.2,11.2-11.2c0.5,0,1.1,0,1.6,0.1 M536.3,133.6c0.9,0.5,1.7,1.1,2.4,1.7"/>
		<path id="XMLID_4_" class="st3" d="M536.6,388.7l0.7,4l4.5,0.4l1.3-3.8c1.5-0.1,2.9-0.5,4.3-0.9l2.8,2.9l3.9-2.2l-1.1-3.9
			c1.1-1,2.1-2,3-3.2l3.9,0.7l1.9-4.1l-3.1-2.5c0.4-1.4,0.5-2.8,0.6-4.3l3.7-1.7l-0.8-4.4l-4-0.3c-0.5-1.4-1.2-2.7-2-3.8l2.1-3.5
			l-3.2-3.2l-3.6,2.1c-2-1.4-4.3-2.3-6.8-2.8l-1-4.1h-4.5l-1,4.1c-1.4,0.3-2.8,0.7-4,1.3l-3.2-2.8l-3.7,2.6l1.5,4
			c-1,1-1.8,2.1-2.6,3.3L522,362l-1.5,4.2l3.5,2.4c-0.2,1-0.3,2-0.3,3c0,0.4,0,0.8,0,1.3l-3.7,2l1.2,4.3l4.1-0.1
			c0.6,1.3,1.4,2.5,2.3,3.6l-1.8,3.7l3.4,2.9l3.3-2.4 M551.2,366.1c0.9,1.6,1.4,3.5,1.4,5.5c0,6.2-5,11.2-11.2,11.2
			c-6.2,0-11.2-5-11.2-11.2s5-11.2,11.2-11.2c0.5,0,1.1,0,1.6,0.1 M546.9,361.8c0.9,0.5,1.7,1.1,2.4,1.7"/>
		<path id="XMLID_8_" class="st3" d="M558.3,112.5l0.6,1.5c-0.3,0.3-0.6,0.6-0.8,0.9 M556.6,117c-0.1,0.1-0.2,0.2-0.2,0.4l-4.2-0.4
			l-1.5,4.2l3.5,2.4c-0.2,1-0.3,2-0.3,3c0,0.4,0,0.8,0,1.3l-3.7,2l1.2,4.3l4.1-0.1c0.6,1.3,1.4,2.5,2.3,3.6l-1.8,3.7l3.4,2.9
			l3.3-2.4c1.2,0.7,2.6,1.3,4,1.7l0.7,4l4.5,0.4l1.3-3.8c1.5-0.1,2.9-0.5,4.3-0.9l2.8,2.9l3.9-2.2l-1.1-3.9c1.1-1,2.1-2,3-3.2
			l3.9,0.7l1.9-4.1l-3.1-2.5c0.4-1.4,0.5-2.8,0.6-4.3l3.7-1.7l-0.8-4.4l-4-0.3c-0.5-1.4-1.2-2.7-2-3.8l2.1-3.5l-3.2-3.2l-3.6,2.1
			c-2-1.4-4.3-2.3-6.8-2.8l-1-4.1h-4.5l-1,4.1c-1.4,0.3-2.8,0.7-4,1.3l-3.2-2.8l-3.7,2.6l0.5,1.2 M582.5,128.7
			c-0.2,0.7-0.4,1.5-0.7,2.1 M581,132.4c-2,3.1-5.5,5.2-9.4,5.2c-6.2,0-11.2-5-11.2-11.2c0-6.2,5-11.2,11.2-11.2
			c6.2,0,11.2,5,11.2,11.2c0,0.3,0,0.5,0,0.8"/>
		<path id="XMLID_1_" class="st3" d="M291.1,250.3l-3.3,7l6.4,5.4l6.2-4.4c2.3,1.3,4.8,2.4,7.5,3.2l1.2,7.5l8.3,0.7l2.5-7.1
			c2.8-0.2,5.5-0.8,8-1.7l5.3,5.3l7.2-4.2l-2-7.2c2.1-1.8,4-3.8,5.6-6.1l7.4,1.4l3.5-7.6l-5.8-4.8c0.7-2.6,1-5.3,1-8.1l6.9-3.1
			l-1.5-8.2l-7.6-0.6c-1-2.6-2.2-5-3.8-7.2l3.9-6.6l-5.9-5.9l-6.6,3.9c-3.7-2.5-8-4.3-12.7-5.2l-1.9-7.6h-8.4l-1.9,7.6
			c-2.6,0.5-5.1,1.3-7.5,2.4l-6-5.2l-6.8,4.8l2.8,7.4c-1.8,1.9-3.4,4-4.8,6.2l-7.9-0.8l-2.9,7.9l6.5,4.4c-0.3,1.8-0.5,3.7-0.5,5.5
			c0,0.8,0,1.6,0.1,2.3l-6.9,3.8l2.2,8.1l7.8-0.1c0.9,1.8,1.9,3.6,3.1,5.2 M309.9,209.7c0.9-0.3,1.8-0.6,2.8-0.8 M317.8,208.5
			c11.1,0.5,19.9,9.6,19.9,20.8c0,11.5-9.3,20.9-20.9,20.9c-11.5,0-20.9-9.3-20.9-20.9c0-8.5,5.1-15.8,12.4-19.1"/>
	</g>
</g>
<g id="Light_Bulb">
	<g>
		<g>
			<line class="st4" x1="398.1" y1="227.8" x2="389.8" y2="222.5"/>
			<line class="st4" x1="412.5" y1="211.7" x2="410.4" y2="209.9"/>
			<line class="st4" x1="388.3" y1="258.9" x2="371.2" y2="254.6"/>
			<g>
				<g>
					<path class="st0" d="M481,364.3c-0.1,0-0.3,0-0.4,0c-0.4-0.1-0.7-0.4-0.9-0.7c-0.5-0.9-0.8-1.4,3.5-6.3
						c-9.2,5.6-10.2,5.4-10.7,5.3c-0.4-0.1-0.8-0.4-1-0.8c-0.8-1.5-1-1.8,16-15.7c-2.7,1.8-5.6,3.7-8.1,5.4
						c-15,10-19.7,12.9-21.8,12.4c-0.5-0.1-0.9-0.4-1.2-0.9c-0.9-1.6-0.9-1.6,19.2-16.1c1.3-0.9,2.6-1.9,4-2.9
						c-2.3,1.6-4.6,3.1-6.8,4.6c-15.9,10.8-23.1,15.5-25.8,14.8c-0.6-0.1-1.1-0.5-1.3-1c-1-1.7-1.2-2.1,28.1-22l-38.6,22.3
						c-0.7,0.4-1.7,0.2-2.1-0.6c-0.7-1.2-0.1-2.6,2.6-5.1c-4.4,2.6-7,3.6-8.3,3.3c-0.6-0.1-1-0.5-1.3-0.9c-0.8-1.5-0.5-2.8,10.2-10
						c-11.1,6.9-15.1,9-16.7,8.6c-0.5-0.1-0.9-0.4-1.1-0.8c-0.7-1.3-0.1-1.7,2.5-3.4c1.3-0.9,3.2-2.1,5.6-3.7
						c2.4-1.6,5.3-3.4,8.6-5.5c-9.4,4.9-10.9,4.6-11.6,4.4c-0.6-0.1-1-0.5-1.3-0.9c-0.4-0.7-0.2-1.6,0.5-2.1
						c29.7-17.6,75.6-45.9,86.7-55.3c-11,5-44,25.5-62.9,37.2c-24.2,15-24.3,15-25.3,14.7c-0.4-0.1-0.8-0.4-1-0.7
						c-0.8-1.4-0.8-2.3,8.9-8.3c-4.5,2.1-7.4,3.1-8.7,2.7c-0.6-0.1-1.1-0.5-1.4-1c-0.4-0.7-0.2-1.6,0.5-2
						c30-19.1,72.2-46.2,89.4-57.6c-4.8,2.4-11.2,6.1-18.4,10.4c-5.8,3.7-12.6,8.1-20.8,13.1c-10.7,6.7-21.6,13.3-30.6,18.8
						c-21.8,13.8-22.1,13.7-23.1,13.4c-0.4-0.1-0.8-0.4-1-0.7c-0.4-0.7-0.2-1.6,0.5-2.1c6.6-3.9,13.8-8.3,21.3-12.8
						c1.3-0.8,2.6-1.7,3.9-2.5c-15.7,9-24.4,12.9-27,12.3c-0.8-0.2-1.2-0.7-1.4-1c-0.9-1.6,0.4-3.7,11.5-10.9
						c-7.2,4.4-10,5.7-11.2,5.4c-0.5-0.1-0.9-0.4-1.1-0.8c-0.6-1.1-1.2-2,6.3-7.4c-4,2-6.5,2.8-7.7,2.6c-0.6-0.1-1-0.5-1.3-1
						c-0.2-0.4-0.3-0.8-0.2-1.2c0.1-0.4,0.4-0.7,0.7-0.9c32.9-18.7,82.7-48.3,97.8-60.2c-16.6,9.2-62.5,36.1-94.4,55.1
						c-0.3,0.2-0.8,0.3-1.2,0.2c-0.4-0.1-0.7-0.4-0.9-0.7c-0.2-0.4-0.4-1-0.2-1.8c0.2-0.8,1.1-1.9,2.5-3.3c-2.4,1-3.9,1.3-4.8,1.1
						c-0.6-0.1-1.1-0.5-1.3-1c-0.9-1.6,0.8-2.8,3.5-4.6c2-1.4,4.9-3.3,8.9-5.8c7.5-4.7,17.8-10.9,28.6-17.4
						c12.2-7.4,26.8-16.1,38.3-23.4c-24.7,14.2-63.6,36.9-82.3,47.8c-0.3,0.2-0.8,0.3-1.2,0.2c-0.4-0.1-0.7-0.4-0.9-0.7
						c-0.8-1.4-1-1.8,12.4-10.2c-5.3,2.9-8.6,4.1-10.3,3.7c-0.9-0.2-1.3-0.7-1.5-1.1c-1-1.7-1-1.7,23.4-15.9
						c11.3-6.6,24.7-14.4,37.1-21.9c10.4-6.9,18.5-12.2,24.7-15.8c5.1-3.5,7.8-5.8,9.2-7.2c-12.6,5.7-62.6,35.9-94.3,55.6
						c-0.7,0.4-1.6,0.2-2.1-0.5c-0.4-0.7-0.2-1.6,0.5-2.1c3.1-2,6.4-4.1,9.8-6.2c-8.1,4.2-11.1,4.9-12.4,4.5c-0.6-0.1-1.1-0.5-1.3-1
						c-0.4-0.7-0.2-1.6,0.5-2c5.6-3.6,13.2-8.4,21.6-13.8c-17.6,10-19.1,9.6-19.9,9.4c-0.5-0.1-0.9-0.4-1.1-0.8
						c-0.4-0.7-0.2-1.6,0.5-2.1c22.8-14.1,55.1-34.5,74-47.2c-15.2,8.8-37.5,21.8-53.1,31c-6.9,4.1-13,7.6-17.4,10.2
						c-3.9,2.3-5.7,3.4-6.7,3.9c-0.2,0.1-0.3,0.2-0.3,0.2l0,0c-0.7,0.3-0.9,0.3-1.2,0.2c-0.6-0.2-1-0.6-1.1-1.2
						c-0.1-0.6,0.2-1.2,0.7-1.5c24.1-14.9,59.8-37.4,75.7-48.5c-8.5,4.9-21.2,13-31.4,19.6c-28.6,18.3-37.3,23.5-39.9,22.9
						c-0.5-0.1-0.9-0.4-1.2-0.9c-0.6-1.1-1.1-1.9,8.4-8.7c-2.6,1.1-4.4,1.6-5.4,1.3c-0.6-0.1-1.1-0.5-1.4-1c-0.4-0.7-0.2-1.6,0.5-2
						c18.7-11.8,47.1-30.2,56.9-37.8c-8.5,4.2-27.2,16.2-38.2,23.2c-17.9,11.5-18.6,11.8-19.7,11.5c-0.4-0.1-0.8-0.4-1-0.7
						c-0.8-1.4-1.5-2.6,16-14.7c-2.2,1.4-4.4,2.8-6.6,4.3c-0.3,0.2-0.7,0.5-1.4,0.3c-0.4-0.1-0.7-0.4-1-0.7
						c-1.1-1.9,0.5-3.5,12.8-12.9c-0.5-0.1-0.8-0.4-1.1-0.8c-0.4-0.7-0.2-1.7,0.6-2.1c0.3-0.2,0.6-0.2,0.9-0.2
						c0.9-0.4,3.1-2,4.6-3.1c4.9-3.5,6.3-4.3,7.6-4c0.5,0.1,0.9,0.4,1.1,0.8c0.9,1.5,0.2,2.4-8.1,8.9c2.3-1.4,4.7-2.9,7.1-4.4
						c23.4-14.3,25.2-13.9,26.3-13.6c0.5,0.1,0.9,0.4,1.2,0.9c0.4,0.7,0.2,1.6-0.5,2c-11.4,7.1-23.3,14.8-33.3,21.4
						c23.1-14.8,34.2-21.2,37.4-20.5c0.6,0.1,1,0.5,1.3,1c1,1.7,1.7,2.9-30.3,23.9c-1.5,1-3.1,2-4.6,3c6.4-4.1,13-8.3,18.3-11.7
						c20.5-13.3,23.8-15.3,25.4-14.9c0.4,0.1,0.8,0.4,1,0.8c0.4,0.7,0.2,1.6-0.5,2c-19.8,12.6-48.8,31.5-63.1,41.7
						c7.7-4.5,18.6-11.5,28.1-17.6c30.1-19.2,40-25.1,42.7-24.4c0.5,0.1,0.9,0.4,1.2,0.9c0.7,1.3,1.3,2.2-16.3,14
						c24.7-14.3,25.2-14.2,26-14c0.4,0.1,0.7,0.4,0.9,0.7c1,1.8,1.7,3-44.9,32.8c-3.4,2.2-6.8,4.3-10.1,6.4
						c18.4-10.9,40.4-24.3,57.1-34.7c0.4-0.2,0.8-0.3,1.2-0.2c0.4,0.1,0.7,0.4,0.9,0.7c0.7,1.3-0.3,2-1.5,2.8c-0.7,0.5-1.7,1.2-3,2
						c-2.5,1.6-6.1,4-10.8,7.1c-7.9,5.1-18.9,12.3-32.7,21.2c-13.3,8.6-26.8,17.2-36,23.1c12.1-6.4,35.8-20.3,81.4-49.4
						c6.6-4.2,6.6-4.2,7.2-4c0.4,0.1,0.7,0.4,1,0.7c0.4,0.7,0.6,1-0.6,2.1l0,0c0,0,0,0-0.1,0c-1.6,1.4-5.7,4-14.8,10
						c13-7.1,14.2-6.8,15-6.7c0.5,0.1,0.9,0.4,1.1,0.8c0.5,0.9,0.7,2.1-1.3,4.4c1-0.3,1.8-0.3,2.5-0.2c0.9,0.2,1.4,0.7,1.6,1.1
						c1,1.7,1.5,2.6-28.6,21.6c31.9-18.5,32.2-18.4,33-18.2c0.4,0.1,0.7,0.4,0.9,0.7c1,1.7-0.8,3.4-5.2,6.6c-2.8,2-6.8,4.7-12.1,8.1
						c17.7-11,22.1-13.3,23.7-13c0.5,0.1,0.8,0.4,1.1,0.8c0.2,0.4,0.3,0.8,0.2,1.2c-0.1,0.4-0.4,0.7-0.7,0.9
						c-10.3,5.9-20.8,11.9-31,17.9c-3.5,2.2-7.1,4.5-10.5,6.6c-20.7,13.1-35.8,22.5-46.4,28.7c-3.4,2.3-6.2,4.3-8.5,6.1
						c9.4-5.6,25.5-15,41.5-24.4c50.7-29.6,51.4-29.4,52.4-29.2c0.4,0.1,0.7,0.4,1,0.7c0.2,0.4,0.4,0.9,0.2,1.7
						c-0.1,0.4-0.3,1.1-1.6,2.5c3.5-1.7,5.7-2.4,6.7-2.2c0.5,0.1,1,0.5,1.3,0.9c0.8,1.4-0.3,2.2-2.8,3.8c-1.5,1-3.7,2.4-6.8,4.3
						c-0.2,0.1-0.4,0.2-0.6,0.4c4.7-2.3,8-3.3,9.7-2.9c0.9,0.2,1.4,0.8,1.6,1.2c1.4,2.4,0,4-49.4,33.2
						c-20.7,12.3-48.1,28.5-55.6,34.5c4.1-1.4,14.4-6.4,39.9-21.9c20.8-12.6,43.7-27.3,54.8-34.4c7.6-4.9,7.6-4.9,8.3-4.7
						c0.4,0.1,0.7,0.4,1,0.7c0.6,1.1,1.2,2.2-7,8.4c1.8-0.6,3-0.8,3.8-0.6c0.6,0.1,1.1,0.5,1.4,1c0.9,1.5,0.9,1.5-15.5,12.3
						c-8.1,5.3-19.4,12.6-33.5,21.7c-13.7,8.8-27.5,17.6-36.9,23.6c19.1-10.3,55-33,70.9-43.1c14.1-9,14.1-9,15-8.8
						c0.4,0.1,0.8,0.4,1,0.7c1.1,1.9-0.6,4.6-7.3,9.5c0.2,0,0.4,0,0.6,0c0.5,0.1,0.9,0.4,1.2,0.9c1.1,1.8,2.3,3.9-42.7,32.1
						c12.9-8,26.3-16.4,37.2-23.5c0.4-0.2,0.8-0.3,1.2-0.2c0.4,0.1,0.8,0.4,1,0.7c0.7,1.3-0.3,2-2,3.2c-1,0.7-2.5,1.8-4.5,3.1
						c-2,1.4-4.5,3-7.5,5c4.2-2.1,6.8-3,8.1-2.7c0.6,0.1,1.1,0.5,1.4,1c0.9,1.5,0.7,2.1-9.6,8.7c2.2-0.9,3.7-1.3,4.7-1
						c0.6,0.2,1.2,0.5,1.5,1.1c1.2,2.1,0.3,3-27.2,19.6c-7.9,4.8-17.8,10.8-25.8,15.9l53.9-31.1c0.3-0.2,0.8-0.3,1.2-0.2
						c0.4,0.1,0.7,0.4,0.9,0.7c0.7,1.3-0.3,2.1-2.1,3.4c-1.1,0.8-2.6,1.9-4.8,3.4c-4,2.8-9.6,6.5-15.5,10.5
						c-6.9,4.6-15.5,10.5-22.6,15.4c3.3-2.2,6.6-4.5,9.6-6.5c15.7-10.7,22.3-14.9,24.9-14.4c0.6,0.1,1,0.5,1.3,0.9
						c0.9,1.5,0.9,1.6-17.1,14.6c13-8.7,17.3-11.1,19.3-10.7c0.5,0.1,0.9,0.4,1.2,0.9c0.7,1.2,0.7,1.2-8.4,8.6
						c-2.7,2.2-6.5,5.3-10,8.2c2.8-1.7,5.8-3.7,8.7-5.5c0.4-0.2,0.8-0.3,1.2-0.2c0.4,0.1,0.8,0.4,1,0.7c0.6,1,0.4,1.2-1.7,3.5
						c-1.7,1.8-3.1,3.4-4.4,4.8c9.2-5.5,9.5-5.4,10.2-5.2c0.4,0.1,0.7,0.4,0.9,0.7c0.4,0.7,0.2,1.7-0.6,2.1
						c-0.2,0.1-0.3,0.1-0.5,0.2c-1.3,0.6-8.8,5-15.4,9C481.6,364.2,481.3,364.3,481,364.3z M495.7,354.4c0.2,0.3,0.4,0.5,0.7,0.6
						C496.1,354.9,495.8,354.6,495.7,354.4z M458.3,338.9c-8.8,5.5-17.4,10.9-23,14.8C441.4,350.1,450.3,344.2,458.3,338.9z
						 M495.9,311.9c-9.9,5.5-26,15.9-38.2,23.8c4.5-2.8,9.6-6,15.5-9.6C481.2,321.2,489.8,315.8,495.9,311.9z M495.3,319
						c-5.4,2.9-13.6,8.1-21.6,13.3c0.3-0.2,0.6-0.3,0.8-0.5C482,327.3,490.1,322.4,495.3,319z M445.5,296.3
						c-6.6,4.2-12.8,8.1-17.8,11.5C432.9,304.4,439.1,300.4,445.5,296.3z M517.6,256.4c-2.9,1-9.2,3.9-22.3,11.8
						c-13.1,7.8-29.2,18.3-43.3,27.5c-6.2,4-11.4,7.4-15.8,10.2c8.5-5.2,20-12.1,35.3-21.2C490.1,273.7,510.9,261.4,517.6,256.4z
						 M508.1,286.1c-0.7,0.4-1.4,0.9-2.1,1.4c-7.1,4.5-13.8,8.7-20.2,12.7C494.2,295.1,502.2,290.2,508.1,286.1z M440.9,279.4
						c-9.3,5.6-18.3,11.1-24.3,14.9c3-1.6,6.7-3.6,10.8-6C431.5,285.5,436,282.5,440.9,279.4z M464.7,252.6
						c-3.9,2.6-7.7,5.2-11.3,7.6c-7.1,4.8-13.4,9-18.9,12.5c1.8-1.1,3.6-2.2,5.6-3.4c20.5-12.6,50.1-30.9,58.9-37.5
						c-2.2,0.9-5.5,2.7-9.3,4.9c-3.5,2.4-7.9,5.3-13.5,8.8C472.5,247.8,468.6,250.2,464.7,252.6z M418.6,216.1
						C418.6,216.1,418.6,216.1,418.6,216.1C418.6,216.1,418.6,216.1,418.6,216.1z"/>
				</g>
			</g>
			<g class="st5">
				<g>
					<path class="st1" d="M481,364.3c-0.1,0-0.3,0-0.4,0c-0.4-0.1-0.7-0.4-0.9-0.7c-0.5-0.9-0.8-1.4,3.5-6.3
						c-9.2,5.6-10.2,5.4-10.7,5.3c-0.4-0.1-0.8-0.4-1-0.8c-0.8-1.5-1-1.8,16-15.7c-2.7,1.8-5.6,3.7-8.1,5.4
						c-15,10-19.7,12.9-21.8,12.4c-0.5-0.1-0.9-0.4-1.2-0.9c-0.9-1.6-0.9-1.6,19.2-16.1c1.3-0.9,2.6-1.9,4-2.9
						c-2.3,1.6-4.6,3.1-6.8,4.6c-15.9,10.8-23.1,15.5-25.8,14.8c-0.6-0.1-1.1-0.5-1.3-1c-1-1.7-1.2-2.1,28.1-22l-38.6,22.3
						c-0.7,0.4-1.7,0.2-2.1-0.6c-0.7-1.2-0.1-2.6,2.6-5.1c-4.4,2.6-7,3.6-8.3,3.3c-0.6-0.1-1-0.5-1.3-0.9c-0.8-1.5-0.5-2.8,10.2-10
						c-11.1,6.9-15.1,9-16.7,8.6c-0.5-0.1-0.9-0.4-1.1-0.8c-0.7-1.3-0.1-1.7,2.5-3.4c1.3-0.9,3.2-2.1,5.6-3.7
						c2.4-1.6,5.3-3.4,8.6-5.5c-9.4,4.9-10.9,4.6-11.6,4.4c-0.6-0.1-1-0.5-1.3-0.9c-0.4-0.7-0.2-1.6,0.5-2.1
						c29.7-17.6,75.6-45.9,86.7-55.3c-11,5-44,25.5-62.9,37.2c-24.2,15-24.3,15-25.3,14.7c-0.4-0.1-0.8-0.4-1-0.7
						c-0.8-1.4-0.8-2.3,8.9-8.3c-4.5,2.1-7.4,3.1-8.7,2.7c-0.6-0.1-1.1-0.5-1.4-1c-0.4-0.7-0.2-1.6,0.5-2
						c30-19.1,72.2-46.2,89.4-57.6c-4.8,2.4-11.2,6.1-18.4,10.4c-5.8,3.7-12.6,8.1-20.8,13.1c-10.7,6.7-21.6,13.3-30.6,18.8
						c-21.8,13.8-22.1,13.7-23.1,13.4c-0.4-0.1-0.8-0.4-1-0.7c-0.4-0.7-0.2-1.6,0.5-2.1c6.6-3.9,13.8-8.3,21.3-12.8
						c1.3-0.8,2.6-1.7,3.9-2.5c-15.7,9-24.4,12.9-27,12.3c-0.8-0.2-1.2-0.7-1.4-1c-0.9-1.6,0.4-3.7,11.5-10.9
						c-7.2,4.4-10,5.7-11.2,5.4c-0.5-0.1-0.9-0.4-1.1-0.8c-0.6-1.1-1.2-2,6.3-7.4c-4,2-6.5,2.8-7.7,2.6c-0.6-0.1-1-0.5-1.3-1
						c-0.2-0.4-0.3-0.8-0.2-1.2c0.1-0.4,0.4-0.7,0.7-0.9c32.9-18.7,82.7-48.3,97.8-60.2c-16.6,9.2-62.5,36.1-94.4,55.1
						c-0.3,0.2-0.8,0.3-1.2,0.2c-0.4-0.1-0.7-0.4-0.9-0.7c-0.2-0.4-0.4-1-0.2-1.8c0.2-0.8,1.1-1.9,2.5-3.3c-2.4,1-3.9,1.3-4.8,1.1
						c-0.6-0.1-1.1-0.5-1.3-1c-0.9-1.6,0.8-2.8,3.5-4.6c2-1.4,4.9-3.3,8.9-5.8c7.5-4.7,17.8-10.9,28.6-17.4
						c12.2-7.4,26.8-16.1,38.3-23.4c-24.7,14.2-63.6,36.9-82.3,47.8c-0.3,0.2-0.8,0.3-1.2,0.2c-0.4-0.1-0.7-0.4-0.9-0.7
						c-0.8-1.4-1-1.8,12.4-10.2c-5.3,2.9-8.6,4.1-10.3,3.7c-0.9-0.2-1.3-0.7-1.5-1.1c-1-1.7-1-1.7,23.4-15.9
						c11.3-6.6,24.7-14.4,37.1-21.9c10.4-6.9,18.5-12.2,24.7-15.8c5.1-3.5,7.8-5.8,9.2-7.2c-12.6,5.7-62.6,35.9-94.3,55.6
						c-0.7,0.4-1.6,0.2-2.1-0.5c-0.4-0.7-0.2-1.6,0.5-2.1c3.1-2,6.4-4.1,9.8-6.2c-8.1,4.2-11.1,4.9-12.4,4.5c-0.6-0.1-1.1-0.5-1.3-1
						c-0.4-0.7-0.2-1.6,0.5-2c5.6-3.6,13.2-8.4,21.6-13.8c-17.6,10-19.1,9.6-19.9,9.4c-0.5-0.1-0.9-0.4-1.1-0.8
						c-0.4-0.7-0.2-1.6,0.5-2.1c22.8-14.1,55.1-34.5,74-47.2c-15.2,8.8-37.5,21.8-53.1,31c-6.9,4.1-13,7.6-17.4,10.2
						c-3.9,2.3-5.7,3.4-6.7,3.9c-0.2,0.1-0.3,0.2-0.3,0.2l0,0c-0.7,0.3-0.9,0.3-1.2,0.2c-0.6-0.2-1-0.6-1.1-1.2
						c-0.1-0.6,0.2-1.2,0.7-1.5c24.1-14.9,59.8-37.4,75.7-48.5c-8.5,4.9-21.2,13-31.4,19.6c-28.6,18.3-37.3,23.5-39.9,22.9
						c-0.5-0.1-0.9-0.4-1.2-0.9c-0.6-1.1-1.1-1.9,8.4-8.7c-2.6,1.1-4.4,1.6-5.4,1.3c-0.6-0.1-1.1-0.5-1.4-1c-0.4-0.7-0.2-1.6,0.5-2
						c18.7-11.8,47.1-30.2,56.9-37.8c-8.5,4.2-27.2,16.2-38.2,23.2c-17.9,11.5-18.6,11.8-19.7,11.5c-0.4-0.1-0.8-0.4-1-0.7
						c-0.8-1.4-1.5-2.6,16-14.7c-2.2,1.4-4.4,2.8-6.6,4.3c-0.3,0.2-0.7,0.5-1.4,0.3c-0.4-0.1-0.7-0.4-1-0.7
						c-1.1-1.9,0.5-3.5,12.8-12.9c-0.5-0.1-0.8-0.4-1.1-0.8c-0.4-0.7-0.2-1.7,0.6-2.1c0.3-0.2,0.6-0.2,0.9-0.2
						c0.9-0.4,3.1-2,4.6-3.1c4.9-3.5,6.3-4.3,7.6-4c0.5,0.1,0.9,0.4,1.1,0.8c0.9,1.5,0.2,2.4-8.1,8.9c2.3-1.4,4.7-2.9,7.1-4.4
						c23.4-14.3,25.2-13.9,26.3-13.6c0.5,0.1,0.9,0.4,1.2,0.9c0.4,0.7,0.2,1.6-0.5,2c-11.4,7.1-23.3,14.8-33.3,21.4
						c23.1-14.8,34.2-21.2,37.4-20.5c0.6,0.1,1,0.5,1.3,1c1,1.7,1.7,2.9-30.3,23.9c-1.5,1-3.1,2-4.6,3c6.4-4.1,13-8.3,18.3-11.7
						c20.5-13.3,23.8-15.3,25.4-14.9c0.4,0.1,0.8,0.4,1,0.8c0.4,0.7,0.2,1.6-0.5,2c-19.8,12.6-48.8,31.5-63.1,41.7
						c7.7-4.5,18.6-11.5,28.1-17.6c30.1-19.2,40-25.1,42.7-24.4c0.5,0.1,0.9,0.4,1.2,0.9c0.7,1.3,1.3,2.2-16.3,14
						c24.7-14.3,25.2-14.2,26-14c0.4,0.1,0.7,0.4,0.9,0.7c1,1.8,1.7,3-44.9,32.8c-3.4,2.2-6.8,4.3-10.1,6.4
						c18.4-10.9,40.4-24.3,57.1-34.7c0.4-0.2,0.8-0.3,1.2-0.2c0.4,0.1,0.7,0.4,0.9,0.7c0.7,1.3-0.3,2-1.5,2.8c-0.7,0.5-1.7,1.2-3,2
						c-2.5,1.6-6.1,4-10.8,7.1c-7.9,5.1-18.9,12.3-32.7,21.2c-13.3,8.6-26.8,17.2-36,23.1c12.1-6.4,35.8-20.3,81.4-49.4
						c6.6-4.2,6.6-4.2,7.2-4c0.4,0.1,0.7,0.4,1,0.7c0.4,0.7,0.6,1-0.6,2.1l0,0c0,0,0,0-0.1,0c-1.6,1.4-5.7,4-14.8,10
						c13-7.1,14.2-6.8,15-6.7c0.5,0.1,0.9,0.4,1.1,0.8c0.5,0.9,0.7,2.1-1.3,4.4c1-0.3,1.8-0.3,2.5-0.2c0.9,0.2,1.4,0.7,1.6,1.1
						c1,1.7,1.5,2.6-28.6,21.6c31.9-18.5,32.2-18.4,33-18.2c0.4,0.1,0.7,0.4,0.9,0.7c1,1.7-0.8,3.4-5.2,6.6c-2.8,2-6.8,4.7-12.1,8.1
						c17.7-11,22.1-13.3,23.7-13c0.5,0.1,0.8,0.4,1.1,0.8c0.2,0.4,0.3,0.8,0.2,1.2c-0.1,0.4-0.4,0.7-0.7,0.9
						c-10.3,5.9-20.8,11.9-31,17.9c-3.5,2.2-7.1,4.5-10.5,6.6c-20.7,13.1-35.8,22.5-46.4,28.7c-3.4,2.3-6.2,4.3-8.5,6.1
						c9.4-5.6,25.5-15,41.5-24.4c50.7-29.6,51.4-29.4,52.4-29.2c0.4,0.1,0.7,0.4,1,0.7c0.2,0.4,0.4,0.9,0.2,1.7
						c-0.1,0.4-0.3,1.1-1.6,2.5c3.5-1.7,5.7-2.4,6.7-2.2c0.5,0.1,1,0.5,1.3,0.9c0.8,1.4-0.3,2.2-2.8,3.8c-1.5,1-3.7,2.4-6.8,4.3
						c-0.2,0.1-0.4,0.2-0.6,0.4c4.7-2.3,8-3.3,9.7-2.9c0.9,0.2,1.4,0.8,1.6,1.2c1.4,2.4,0,4-49.4,33.2
						c-20.7,12.3-48.1,28.5-55.6,34.5c4.1-1.4,14.4-6.4,39.9-21.9c20.8-12.6,43.7-27.3,54.8-34.4c7.6-4.9,7.6-4.9,8.3-4.7
						c0.4,0.1,0.7,0.4,1,0.7c0.6,1.1,1.2,2.2-7,8.4c1.8-0.6,3-0.8,3.8-0.6c0.6,0.1,1.1,0.5,1.4,1c0.9,1.5,0.9,1.5-15.5,12.3
						c-8.1,5.3-19.4,12.6-33.5,21.7c-13.7,8.8-27.5,17.6-36.9,23.6c19.1-10.3,55-33,70.9-43.1c14.1-9,14.1-9,15-8.8
						c0.4,0.1,0.8,0.4,1,0.7c1.1,1.9-0.6,4.6-7.3,9.5c0.2,0,0.4,0,0.6,0c0.5,0.1,0.9,0.4,1.2,0.9c1.1,1.8,2.3,3.9-42.7,32.1
						c12.9-8,26.3-16.4,37.2-23.5c0.4-0.2,0.8-0.3,1.2-0.2c0.4,0.1,0.8,0.4,1,0.7c0.7,1.3-0.3,2-2,3.2c-1,0.7-2.5,1.8-4.5,3.1
						c-2,1.4-4.5,3-7.5,5c4.2-2.1,6.8-3,8.1-2.7c0.6,0.1,1.1,0.5,1.4,1c0.9,1.5,0.7,2.1-9.6,8.7c2.2-0.9,3.7-1.3,4.7-1
						c0.6,0.2,1.2,0.5,1.5,1.1c1.2,2.1,0.3,3-27.2,19.6c-7.9,4.8-17.8,10.8-25.8,15.9l53.9-31.1c0.3-0.2,0.8-0.3,1.2-0.2
						c0.4,0.1,0.7,0.4,0.9,0.7c0.7,1.3-0.3,2.1-2.1,3.4c-1.1,0.8-2.6,1.9-4.8,3.4c-4,2.8-9.6,6.5-15.5,10.5
						c-6.9,4.6-15.5,10.5-22.6,15.4c3.3-2.2,6.6-4.5,9.6-6.5c15.7-10.7,22.3-14.9,24.9-14.4c0.6,0.1,1,0.5,1.3,0.9
						c0.9,1.5,0.9,1.6-17.1,14.6c13-8.7,17.3-11.1,19.3-10.7c0.5,0.1,0.9,0.4,1.2,0.9c0.7,1.2,0.7,1.2-8.4,8.6
						c-2.7,2.2-6.5,5.3-10,8.2c2.8-1.7,5.8-3.7,8.7-5.5c0.4-0.2,0.8-0.3,1.2-0.2c0.4,0.1,0.8,0.4,1,0.7c0.6,1,0.4,1.2-1.7,3.5
						c-1.7,1.8-3.1,3.4-4.4,4.8c9.2-5.5,9.5-5.4,10.2-5.2c0.4,0.1,0.7,0.4,0.9,0.7c0.4,0.7,0.2,1.7-0.6,2.1
						c-0.2,0.1-0.3,0.1-0.5,0.2c-1.3,0.6-8.8,5-15.4,9C481.6,364.2,481.3,364.3,481,364.3z M495.7,354.4c0.2,0.3,0.4,0.5,0.7,0.6
						C496.1,354.9,495.8,354.6,495.7,354.4z M458.3,338.9c-8.8,5.5-17.4,10.9-23,14.8C441.4,350.1,450.3,344.2,458.3,338.9z
						 M495.9,311.9c-9.9,5.5-26,15.9-38.2,23.8c4.5-2.8,9.6-6,15.5-9.6C481.2,321.2,489.8,315.8,495.9,311.9z M495.3,319
						c-5.4,2.9-13.6,8.1-21.6,13.3c0.3-0.2,0.6-0.3,0.8-0.5C482,327.3,490.1,322.4,495.3,319z M445.5,296.3
						c-6.6,4.2-12.8,8.1-17.8,11.5C432.9,304.4,439.1,300.4,445.5,296.3z M517.6,256.4c-2.9,1-9.2,3.9-22.3,11.8
						c-13.1,7.8-29.2,18.3-43.3,27.5c-6.2,4-11.4,7.4-15.8,10.2c8.5-5.2,20-12.1,35.3-21.2C490.1,273.7,510.9,261.4,517.6,256.4z
						 M508.1,286.1c-0.7,0.4-1.4,0.9-2.1,1.4c-7.1,4.5-13.8,8.7-20.2,12.7C494.2,295.1,502.2,290.2,508.1,286.1z M440.9,279.4
						c-9.3,5.6-18.3,11.1-24.3,14.9c3-1.6,6.7-3.6,10.8-6C431.5,285.5,436,282.5,440.9,279.4z M464.7,252.6
						c-3.9,2.6-7.7,5.2-11.3,7.6c-7.1,4.8-13.4,9-18.9,12.5c1.8-1.1,3.6-2.2,5.6-3.4c20.5-12.6,50.1-30.9,58.9-37.5
						c-2.2,0.9-5.5,2.7-9.3,4.9c-3.5,2.4-7.9,5.3-13.5,8.8C472.5,247.8,468.6,250.2,464.7,252.6z M418.6,216.1
						C418.6,216.1,418.6,216.1,418.6,216.1C418.6,216.1,418.6,216.1,418.6,216.1z"/>
				</g>
			</g>
			<path class="st6" d="M459.5,201.9L459.5,201.9c-0.1,0-0.2,0-0.4,0c-0.1,0-0.2,0-0.3,0v0c-36.7,0.7-64.4,28.8-64.4,63.4
				c0,10.7,2.7,20.8,7.3,29.6c2.1,4.8,6.9,16.6,11.8,31.8c4.5,14.1,6.8,28.2,6.8,30.3c0,0.2,0,0.4,0,0.7c-0.1,2.7,2.1,4.9,4.7,4.9
				h0.3h28.4h0.3h7.7h0.3h28.4h0.3c2.7,0,4.8-2.2,4.7-4.9c0-0.2,0-0.4,0-0.7c0-2.1,2.4-16.3,6.8-30.3c4.9-15.2,9.7-27,11.8-31.8
				c4.7-8.8,7.3-18.9,7.3-29.6C521.6,230.7,493.9,202.6,459.5,201.9z"/>
			<g>
				<path class="st4" d="M481.7,212.1c-1.8-0.8-3.7-1.5-5.6-2.2"/>
				<path class="st4" d="M502.8,228.2c0,0-5.2-8.2-16.5-13.8"/>
			</g>
			<path class="st4" d="M453.8,334v-32.5c0,0,2.5-15.8-5.7-15.8c-8.2,0-7.6,8.2,1.9,17.1c9.5,8.9,24.1,0.6,26-6.3
				c1.9-7-3.2-10.1-6.3-4.4c-3.2,5.7,0,70.4,0,70.4"/>
		</g>
		<g>
			<g>
				<line class="st4" x1="436.2" y1="185.5" x2="439.7" y2="196.5"/>
			</g>
			<g>
				<line class="st4" x1="522.1" y1="209.5" x2="510.6" y2="218.6"/>
				<line class="st4" x1="479.3" y1="177.4" x2="475" y2="196.5"/>
			</g>
			<g>
				<path class="st7" d="M492.8,371.5h-69.5c-0.9,0-1.6-0.7-1.6-1.6v-0.8c0-0.9,0.7-1.6,1.6-1.6h69.5c0.9,0,1.6,0.7,1.6,1.6v0.8
					C494.4,370.7,493.6,371.5,492.8,371.5z"/>
				<path class="st7" d="M492.8,380.5h-69.5c-0.9,0-1.6-0.7-1.6-1.6v-0.8c0-0.9,0.7-1.6,1.6-1.6h69.5c0.9,0,1.6,0.7,1.6,1.6v0.8
					C494.4,379.8,493.6,380.5,492.8,380.5z"/>
				<path class="st7" d="M492.8,389.6h-69.5c-0.9,0-1.6-0.7-1.6-1.6v-0.8c0-0.9,0.7-1.6,1.6-1.6h69.5c0.9,0,1.6,0.7,1.6,1.6v0.8
					C494.4,388.9,493.6,389.6,492.8,389.6z"/>
				<path class="st7" d="M460.1,394.4h-3.9h-31.8l10.3,14.1c1.8,2.5,4.7,3.9,7.7,3.9h13.8h3.9h13.7c3.1,0,5.9-1.5,7.7-3.9l10.2-14.1
					H460.1z"/>
			</g>
		</g>
	</g>
</g>
<g id="Hand_3">
	<g>
		<g>
			<path class="st8" d="M536.7,242.9c0,0-6.5,7.1-11.8,10.6c-5.3,3.5-9,8.2-4.1,10.6c2.9,1.4,7.1-0.6,7.1-0.6s-6.5,1.8-7.7,7.7
				c-1.2,5.9,11.8,3.5,11.8,3.5s-9.4,6.5-6.5,8.8c2.9,2.4,8.8,0.6,11.8,0.6c2.9,0,17.7-9.4,21.2-9.4s10.6,7.7,10.6,13.6
				c0,5.9,9.4,5.3,10.6-13c1.2-18.3-3.5-33.6-11.2-38.3C560.9,232.3,536.7,242.9,536.7,242.9z"/>
			<path class="st9" d="M533.2,263l23.5-8.8c0,0,10.3-2.2,17.7,10"/>
			<path class="st9" d="M537.3,270l21.2-3.5c0,0,9.4-0.6,15.3,10.6"/>
		</g>
		<path class="st8" d="M563.3,284.2l-15.9,3.5l9.4,37.8c0,0,8.3,16.5,10.6,23.6c2.4,7.1,26.5,30.7,26.5,30.7l28.3-27.1
			c0,0-13-15.3-13.6-18.9c-0.6-3.5-2.9-44.8-2.9-50.7c0-5.9-11.8-20.1-11.8-20.1s-4.8-6.9-7.2-18.7c-2.4-11.8-13.2-16.6-19.1-16.1
			c-5.9,0.6-22.1,2.4-28.6,7.1c-6.5,4.7-12.4,10.6-6.5,12.4c9.8,2.9,25.8-10.1,33.6-1.1c3.5,4.1,7.7,22.3,8.3,24.7
			C574.5,271.2,571.5,282.4,563.3,284.2S563.3,284.2,563.3,284.2"/>
		<g>
			<g>
				<path class="st10" d="M503.9,229.4c0.4-0.4,1-0.5,1.4-0.1l2.4,1.7c0.5,0.3,0.6,1,0.3,1.5c-0.3,0.5-1,0.6-1.5,0.3l-2.4-1.7
					c-0.5-0.3-0.6-1-0.3-1.5C503.8,229.4,503.9,229.4,503.9,229.4z"/>
			</g>
			<g>
				<path class="st2" d="M506.7,231.3c0.8-0.9,2.2-1.1,3.2-0.3l7.6,3.9l74.2,48.8c2.7,1.8,3.3,5.5,1.5,8.2c-1.8,2.7-5.5,3.3-8.2,1.5
					l-72-53.1l-5.9-5.1c-1.1-0.8-1.4-2.3-0.6-3.5C506.5,231.5,506.6,231.4,506.7,231.3z"/>
			</g>
			<path class="st10" d="M591.7,283.7l-21.4-14.1c-3.4,1.1-5.8,4.1-5.8,7.6c0,0.3,0,0.7,0.1,1l20.5,15.1c2.7,1.8,6.3,1.2,8.2-1.5
				C595,289.2,594.3,285.5,591.7,283.7z"/>
		</g>
		<g>
			<path class="st8" d="M567.4,349.1c-6.5-9.4-14.7-33.6-18.3-38.3c-3.5-4.7-13-15.2-16.6-25.8s-5.8-19.1-5.8-27.9
				c0-8.8,7.6-10.4,13.5-0.9c5.9,9.4,13,23.9,13,23.9s4.7,5.9,14.2,4.1"/>
			<path class="st8" d="M534.1,253.4l2,3.9c0,0-0.4,0-3.6,1.8c-3.1,1.8-4.6,4.4-4.6,4.4s-3-8.5-0.3-11.2c0.8-0.8,1.7-1.2,2.5-1.3
				C531.7,250.8,533.3,251.8,534.1,253.4z"/>
		</g>
		<path class="st8" d="M616.1,340.5c0,0-15.6,4.6-23.7,12.7c-8.1,8.1-15,17.4-15,17.4l14.5,16.8c0,0,12.1-13.9,20.2-20.2
			c8.1-6.4,17.4-11.6,17.4-11.6L616.1,340.5z"/>
		<path class="st10" d="M630.6,462.6l-45.7-73.5c0,0,11.6-17.4,21.4-26c9.8-8.7,22.6-11,22.6-11L686,407"/>
		<g>
			<path class="st9" d="M542.5,274.8c0.3,0,0.6-0.1,1-0.1"/>
			<path class="st9" d="M533.7,279.7c0,0,0.5-3.2,7-4.6"/>
			<path class="st9" d="M540.8,277.4c0,0-0.5,1.4-5,3.2"/>
			<path class="st9" d="M540.6,273.1c0,0-3.9,0.6-6.3,2.6"/>
		</g>
	</g>
</g>
<g id="Hand_2">
	<g>
		<g>
			<path class="st8" d="M398,172.3c0,0,9.6,0.8,15.6,2.8c6.1,2,12,2.1,10.9-3.3c-0.7-3.2-4.8-5.2-4.8-5.2s5.4,4,10.8,1.3
				c5.4-2.7-4.4-11.5-4.4-11.5s10.9,3.5,11-0.3c0.1-3.8-5-7.3-6.8-9.7c-1.8-2.3-18.3-8.2-20.5-11c-2.2-2.8-0.5-13.1,4.2-16.7
				c4.7-3.6-1.6-10.7-16.8-0.4c-15.2,10.3-24.4,23.4-23.4,32.4C374.8,159.8,398,172.3,398,172.3z"/>
			<path class="st9" d="M416,162.8l-21.4-13.2c0,0-8.1-6.8-3-20.1"/>
			<path class="st9" d="M419.1,155.2l-15.8-14.6c0,0-6.3-7.1-1-18.6"/>
		</g>
		<path class="st8" d="M414.3,126l12.6,10.4l24-30.6c0,0,15.5-7,19.6-13.2c4.1-6.2,7.6-39.9,7.6-39.9l-38.8-5.3c0,0-4,19.7-6.4,22.4
			c-2.4,2.7-40.9,19.9-45.5,23.5c-4.7,3.6-8.6,21.6-8.6,21.6s-2.8,10.5-8.1,21.2c-8.9,18-7.3,16.6-3.2,20.9c4.1,4.3,14,13,21.7,15.3
			c7.7,2.2,17.3,10.2,15.1,0.5c-2.2-10-23.8-14.2-21.5-25.8c1.1-5.3,12.9-19.8,14.4-21.7C397.2,125.2,407.8,120.6,414.3,126
			C420.8,131.5,414.3,126,414.3,126"/>
		<g>
			<g>
				<path class="st10" d="M407.5,206.6c-0.5,0-1-0.5-1-1l-0.2-2.9c0-0.6,0.4-1.1,1-1.2c0.6,0,1.1,0.4,1.2,1l0.2,2.9
					c0,0.6-0.4,1.1-1,1.2C407.6,206.6,407.5,206.6,407.5,206.6z"/>
			</g>
			<g>
				<path class="st2" d="M407.3,203.2c-1.2-0.1-2.2-1.1-2.3-2.4l-1.6-8.4l-7-88.5c-0.2-3.2,2.3-6,5.5-6.2c3.2-0.2,6,2.3,6.2,5.5
					l2.3,89.5l-0.4,7.8c0.1,1.4-1,2.6-2.4,2.6C407.6,203.2,407.4,203.2,407.3,203.2z"/>
			</g>
			<path class="st10" d="M396.5,104l2,25.6c3,2,6.8,2.1,9.6,0c0.3-0.2,0.5-0.4,0.8-0.7l-0.6-25.4c-0.2-3.2-2.9-5.7-6.2-5.5
				C398.8,98,396.3,100.7,396.5,104z"/>
		</g>
		<g>
			<path class="st8" d="M470.5,92.6c-3.4,10.9-18,26-20.6,31.3c-8,16.4-13.6,25.3-19.8,34.6c-2.5,3.8-5.2,4.3-6.9,5.7
				c-2.4,2-3.7,4.1-7.8,7.3c-7,5.4-12.9,0.4-9-10.1s10.9-25,10.9-25s1.8-7.3-5.4-13.7"/>
			<path class="st8" d="M407.9,168l1.9-4c0,0,0.3,0.4,3.6,1.7c3.3,1.4,6.3,0.9,6.3,0.9s-4.8,7.6-8.6,7.1c-1.1-0.1-1.9-0.6-2.5-1.1
				C407.4,171.5,407.1,169.6,407.9,168z"/>
		</g>
		<g>
			<path class="st10" d="M435.9,15.6l-8.1,52.3c0,0,9.7,8.5,22.6,10.9c12.9,2.3,36.4,5.8,36.4,5.8l20.6-69"/>
			<path class="st11" d="M482.8,72.9c0,2.2-1.8,4-4,4c-2.2,0-4-1.8-4-4c0-2.2,1.8-4,4-4C481,68.9,482.8,70.7,482.8,72.9z"/>
		</g>
		<g>
			<path class="st9" d="M416.7,155.1c-0.2-0.2-0.4-0.4-0.7-0.7"/>
			<path class="st9" d="M426,159c0,0-2.9,1.6-7.9-2.7"/>
			<path class="st9" d="M419.9,154.9c0,0,1.4-0.5,5.6,2"/>
			<path class="st9" d="M416.6,157.7c0,0,2.9,2.8,5.9,3.4"/>
		</g>
	</g>
</g>
<g id="Hand_1">
	<g>
		<g>
			<path class="st8" d="M419.5,328.2c0,0,0.9,9.6,3,15.6c2.1,6,2.2,12-3.1,11c-3.2-0.6-5.3-4.7-5.3-4.7s4.1,5.3,1.5,10.7
				c-2.6,5.4-11.5-4.3-11.5-4.3s3.6,10.9-0.1,11c-3.8,0.1-7.4-4.9-9.8-6.6c-2.4-1.8-8.4-18.2-11.3-20.3c-2.8-2.1-13.1-0.3-16.6,4.4
				c-3.6,4.7-10.7-1.4-0.7-16.8c10.1-15.3,23.1-24.7,32-23.9C406.6,305.2,419.5,328.2,419.5,328.2z"/>
			<path class="st9" d="M410.2,346.3l-13.5-21.2c0,0-6.9-8-20.2-2.7"/>
			<path class="st9" d="M402.7,349.5l-14.8-15.6c0,0-7.2-6.2-18.6-0.8"/>
		</g>
		<path class="st8" d="M373.4,345.2l10.6,12.4l-30.3,24.5c0,0-16.5,8.2-22.7,12.4c-6.1,4.2-39.7,8.5-39.7,8.5l-6.3-38.7
			c0,0,19.6-4.4,22.2-6.9c2.6-2.5,29.3-34,32.9-38.7c3.6-4.7,21.5-8.9,21.5-8.9s8-2.6,17-10.6c9-8,20.6-5.3,24.9-1.3
			c4.4,4,16.2,15.2,18.5,22.8c2.3,7.7,3.5,15.9-2.3,13.8c-9.6-3.6-14.5-23.6-26.1-21.1c-5.3,1.2-19.6,13.2-21.5,14.7
			C372.3,328.1,367.9,338.8,373.4,345.2C378.9,351.6,373.4,345.2,373.4,345.2"/>
		<g>
			<g>
				<path class="st10" d="M453.8,337.2c-0.1-0.5-0.5-1-1-1l-2.9-0.1c-0.6,0-1.1,0.4-1.1,1.1c0,0.6,0.4,1.1,1.1,1.1l2.9,0.1
					c0.6,0,1.1-0.4,1.1-1.1C453.9,337.3,453.9,337.2,453.8,337.2z"/>
			</g>
			<g>
				<path class="st2" d="M450.5,337.1c-0.1-1.2-1.1-2.2-2.4-2.2l-8.4-1.4l-88.6-5.7c-3.2-0.1-6,2.4-6.1,5.6c-0.1,3.2,2.4,6,5.6,6.1
					l89.5,0.9l7.8-0.5c1.4,0.1,2.5-1,2.6-2.4C450.5,337.3,450.5,337.2,450.5,337.1z"/>
			</g>
			<path class="st10" d="M351.1,327.7l25.6,1.6c2.1,2.9,2.2,6.8,0.1,9.6c-0.2,0.3-0.4,0.5-0.7,0.8l-25.5-0.3
				c-3.2-0.1-5.8-2.8-5.6-6.1C345.1,330.1,347.8,327.6,351.1,327.7z"/>
		</g>
		<g>
			<path class="st8" d="M331.1,394.5c10.9-3.6,32-18,37.7-19.6c5.7-1.6,19.5-4.3,28.7-10.6c9.2-6.3,16.1-11.7,21.5-18.8
				c5.3-7.1,0.2-12.9-10.2-8.9c-10.4,4-24.8,11.3-24.8,11.3s-7.3,1.9-13.8-5.2"/>
			<path class="st8" d="M415.3,338.1l-3.9,2c0,0,0.4,0.3,1.8,3.6c1.4,3.3,1,6.3,1,6.3s7.5-4.9,7-8.7c-0.2-1.1-0.6-1.9-1.2-2.5
				C418.7,337.6,416.8,337.4,415.3,338.1z"/>
		</g>
		<path class="st8" d="M305.2,356c0,0,9.7,13.1,11.3,24.4c1.6,11.3,1.6,22.9,1.6,22.9l-29.6,7.1c0,0-1.3-18.4-4-28.4
			c-2.6-10-6.9-19.7-6.9-19.7L305.2,356z"/>
		<g>
			<path class="st10" d="M306.6,378.8c-2.6-12.9-11.4-22.4-11.4-22.4l-70,11.1v79.1l82.8-34.2C308,412.5,309.2,391.7,306.6,378.8z"
				/>
			<path class="st1" d="M287.8,413.2c0,1.7-1.4,3.1-3.1,3.1c-1.7,0-3.1-1.4-3.1-3.1c0-1.7,1.4-3.1,3.1-3.1
				C286.4,410.1,287.8,411.4,287.8,413.2z"/>
			<path class="st1" d="M296.5,409.4c0,1.7-1.4,3.1-3.1,3.1c-1.7,0-3.1-1.4-3.1-3.1c0-1.7,1.4-3.1,3.1-3.1
				C295.1,406.3,296.5,407.7,296.5,409.4z"/>
		</g>
		<g>
			<path class="st9" d="M395.6,350.2c-0.2-0.2-0.5-0.4-0.7-0.7"/>
			<path class="st9" d="M399.7,359.4c0,0,1.5-2.9-2.8-7.9"/>
			<path class="st9" d="M395.5,353.4c0,0-0.5,1.4,2.1,5.6"/>
			<path class="st9" d="M398.2,350c0,0,2.8,2.8,3.5,5.9"/>
		</g>
	</g>
</g>
</svg>
