<?xml version="1.0" encoding="UTF-8"?>
<svg id="Layer_2" data-name="Layer 2" xmlns="http://www.w3.org/2000/svg" viewBox="0 0 60.96 53">
  <defs>
    <style>
      .cls-1 {
        stroke: #fff;
      }

      .cls-1, .cls-2 {
        fill: none;
        stroke-linecap: round;
        stroke-linejoin: round;
        stroke-width: .7px;
      }

      .cls-2 {
        stroke: #6cc9ff;
      }
    </style>
  </defs>
  <g id="Icons">
    <circle class="cls-1" cx="30.48" cy="38.12" r="1.58"/>
    <rect class="cls-1" x=".35" y=".35" width="60.26" height="43.27" rx="3.65" ry="3.65"/>
    <polygon class="cls-1" points="38.22 52.65 22.74 52.65 24.39 43.74 36.57 43.74 38.22 52.65"/>
    <line class="cls-1" x1="20.09" y1="52.65" x2="40.87" y2="52.65"/>
    <line class="cls-1" x1=".35" y1="33.02" x2="60.61" y2="33.02"/>
    <circle class="cls-2" cx="21.54" cy="14.25" r="2.12"/>
    <polygon class="cls-2" points="40.13 27.83 30.95 15.11 24.6 22.97 20.53 20.08 14.04 27.83 40.13 27.83"/>
    <rect class="cls-2" x="5.46" y="5.46" width="4.24" height="16.62"/>
    <rect class="cls-2" x="45.2" y="5.46" width="10.3" height="22.33"/>
    <line class="cls-2" x1="10.12" y1="5.46" x2="45.2" y2="5.46"/>
    <line class="cls-2" x1="14.65" y1="5.53" x2="14.65" y2="7.64"/>
    <line class="cls-2" x1="18.93" y1="5.53" x2="18.93" y2="7.64"/>
    <line class="cls-2" x1="23.21" y1="5.53" x2="23.21" y2="7.64"/>
    <line class="cls-2" x1="27.48" y1="5.53" x2="27.48" y2="7.64"/>
    <line class="cls-2" x1="31.76" y1="5.53" x2="31.76" y2="7.64"/>
    <line class="cls-2" x1="36.03" y1="5.53" x2="36.03" y2="7.64"/>
    <line class="cls-2" x1="40.31" y1="5.53" x2="40.31" y2="7.64"/>
    <line class="cls-2" x1="49.03" y1="9.36" x2="51.67" y2="9.36"/>
    <line class="cls-2" x1="49.03" y1="12.29" x2="51.67" y2="12.29"/>
    <line class="cls-2" x1="49.03" y1="15.23" x2="51.67" y2="15.23"/>
    <line class="cls-2" x1="49.03" y1="18.16" x2="51.67" y2="18.16"/>
    <line class="cls-2" x1="25.28" y1="22.14" x2="23.38" y2="24.55"/>
  </g>
</svg>