<svg width="106" height="105" viewBox="0 0 106 105" fill="none" xmlns="http://www.w3.org/2000/svg">
<path d="M17.4267 71.4574L8.61332 96.936L34.0933 88.1094L96.9013 25.3054L80.2454 8.64005L17.4267 71.4574ZM7.21068 99.2054C6.98535 99.2054 6.764 99.1174 6.59867 98.9521C6.36267 98.7174 6.28266 98.368 6.392 98.0547L15.8547 70.7014C15.8973 70.5774 15.968 70.4654 16.06 70.372L79.632 6.80137C79.7947 6.64004 80.0147 6.54805 80.2454 6.54805C80.4747 6.54805 80.6947 6.64004 80.8573 6.80137L98.74 24.6921C99.0787 25.0307 99.0787 25.5801 98.74 25.9187L35.1773 89.4761C35.0853 89.5694 34.972 89.6387 34.8493 89.6827L7.49467 99.1574C7.40133 99.1894 7.30535 99.2054 7.21068 99.2054Z" fill="white"/>
<path d="M10.3533 91.9134L8.61332 96.9347L13.636 95.1921C13.184 94.5841 12.6733 93.9934 12.1107 93.4281C11.56 92.8801 10.9707 92.3721 10.3533 91.9134ZM7.21068 99.2054C6.98535 99.2054 6.764 99.1174 6.59867 98.9521C6.36267 98.7174 6.28266 98.368 6.392 98.0547L9.08666 90.2707C9.17332 90.02 9.37066 89.8227 9.62133 89.736C9.87199 89.6507 10.148 89.6814 10.372 89.8241C11.432 90.5001 12.4307 91.3 13.3373 92.2027C14.268 93.1387 15.0707 94.1374 15.7267 95.1761C15.868 95.4001 15.9 95.6761 15.812 95.9254C15.724 96.1761 15.528 96.3707 15.2773 96.4587L7.49467 99.1574C7.40267 99.1894 7.30535 99.2054 7.21068 99.2054Z" fill="white"/>
<path d="M34.7373 89.9654C34.3506 89.9654 33.9973 89.7041 33.8986 89.3121L32.6373 84.3627L28.8573 84.0841C28.4586 84.0547 28.132 83.7547 28.0666 83.3587L27.1866 77.9814H22.7906C22.312 77.9814 21.924 77.5934 21.924 77.1147V72.7054L16.536 71.8414C16.0626 71.7654 15.7413 71.3201 15.8173 70.8494C15.8933 70.3747 16.3426 70.0547 16.8106 70.1294L22.928 71.1121C23.348 71.1801 23.6573 71.5414 23.6573 71.9667V76.2467H27.9226C28.348 76.2467 28.7093 76.5561 28.7786 76.9747L29.6666 82.4054L33.3866 82.6801C33.7586 82.7067 34.0706 82.968 34.1626 83.3307L35.5786 88.8854C35.696 89.3494 35.4159 89.82 34.9519 89.9387C34.8799 89.9574 34.808 89.9654 34.7373 89.9654Z" fill="white"/>
<path d="M22.1133 72.684C21.892 72.684 21.6706 72.6 21.5013 72.4307C21.1626 72.092 21.1626 71.5427 21.5013 71.204L82.7626 9.936C83.1013 9.59734 83.6506 9.59734 83.9893 9.936C84.328 10.2747 84.328 10.824 83.9893 11.1627L22.7266 72.4307C22.5573 72.6 22.336 72.684 22.1133 72.684Z" fill="white"/>
<path d="M27.2827 78.4653C27.0627 78.4653 26.8414 78.3813 26.6734 78.2147C26.3334 77.8773 26.3307 77.3294 26.668 76.988L87.964 15.1467C88.3 14.8067 88.8493 14.8067 89.1907 15.1413C89.5293 15.4787 89.532 16.0267 89.1947 16.368L27.8987 78.2093C27.7294 78.38 27.5067 78.4653 27.2827 78.4653Z" fill="white"/>
<path d="M32.1787 84.784C31.956 84.784 31.7347 84.6986 31.5653 84.5293C31.2267 84.1906 31.2267 83.6413 31.5653 83.3026L93.8467 21.024C94.1853 20.6853 94.7347 20.6853 95.0733 21.024C95.412 21.3627 95.412 21.912 95.0733 22.2507L32.7907 84.5293C32.6213 84.6986 32.4 84.784 32.1787 84.784Z" fill="white"/>
<path d="M81.4693 7.41468L98.128 24.08L102.159 20.056C104.38 17.8334 104.38 14.216 102.157 11.9947L93.5493 3.39069C92.4786 2.32269 91.048 1.73467 89.5226 1.73467C87.9946 1.73467 86.564 2.32269 85.4906 3.39069L81.4693 7.41468ZM98.1267 26.1733C97.9053 26.1733 97.6826 26.088 97.5133 25.9187L79.632 8.02799C79.2933 7.68933 79.2933 7.14 79.632 6.80267L84.2653 2.16533C85.6667 0.767997 87.532 -1.36505e-06 89.5226 -1.36505e-06C91.5106 -1.36505e-06 93.376 0.767996 94.7747 2.164L103.384 10.768C106.281 13.6667 106.281 18.3827 103.384 21.2827L98.7387 25.9187C98.5693 26.088 98.348 26.1733 98.1267 26.1733Z" fill="white"/>
<path d="M64.5707 100.535H0.866667C0.388 100.535 0 100.147 0 99.6681C0 99.1881 0.388 98.8001 0.866667 98.8001H64.5707C65.0493 98.8001 65.4373 99.1881 65.4373 99.6681C65.4373 100.147 65.0493 100.535 64.5707 100.535ZM80.7826 100.535H71.8013C71.3227 100.535 70.9347 100.147 70.9347 99.6681C70.9347 99.1881 71.3227 98.8001 71.8013 98.8001H80.7826C81.2613 98.8001 81.6493 99.1881 81.6493 99.6681C81.6493 100.147 81.2613 100.535 80.7826 100.535Z" fill="#6CC9FF"/>
<path d="M68.1826 96.916C66.668 96.916 65.4373 98.1507 65.4373 99.668C65.4373 101.184 66.668 102.417 68.1826 102.417C69.7 102.417 70.9346 101.184 70.9346 99.668C70.9346 98.1507 69.7 96.916 68.1826 96.916ZM68.1826 104.152C65.712 104.152 63.7026 102.14 63.7026 99.668C63.7026 97.1947 65.712 95.1827 68.1826 95.1827C70.656 95.1827 72.6693 97.1947 72.6693 99.668C72.6693 102.14 70.656 104.152 68.1826 104.152Z" fill="#6CC9FF"/>
</svg>
