<svg width="100" height="88" viewBox="0 0 100 88" fill="none" xmlns="http://www.w3.org/2000/svg">
<path d="M2.71923 19.24L96.9325 19.2773L82.2645 1.73467H17.3499L2.71923 19.24ZM2.57388 20.972L49.8032 85.636L97.0139 21.0107L2.57388 20.972ZM49.8032 87.972C49.5272 87.972 49.2672 87.84 49.1045 87.6173L0.177886 20.632C0.0858861 20.512 0.0298835 20.372 0.00855019 20.228C0.00855019 20.228 0.00855019 20.228 0.00855019 20.2267C0.00455019 20.1973 0.00187571 20.1693 0.00054238 20.1413C0.00054238 20.14 0.00054238 20.14 0.00054238 20.14V20.1387C-0.00612429 19.948 0.0485463 19.752 0.171213 19.588C0.183213 19.5733 0.193881 19.5587 0.205881 19.544L16.2792 0.310677C16.4432 0.114677 16.6872 1.57277e-07 16.9446 1.57277e-07H82.6686C82.9259 1.57277e-07 83.1685 0.114677 83.3339 0.310677L99.4192 19.5493C99.6992 19.884 99.6819 20.368 99.3979 20.6853L50.5019 87.6173C50.3392 87.84 50.0792 87.972 49.8032 87.972Z" fill="white"/>
<path d="M31.6285 21.116L49.8032 83.9853L67.9752 21.14L31.6285 21.116ZM49.8032 87.972C49.4178 87.972 49.0778 87.7173 48.9712 87.3466L29.6432 20.4893C29.5685 20.228 29.6205 19.9453 29.7832 19.728C29.9472 19.5107 30.2045 19.3813 30.4765 19.3813L69.1272 19.408C69.4005 19.4093 69.6578 19.536 69.8205 19.7533C69.9845 19.9707 70.0365 20.2533 69.9592 20.516L50.6352 87.3466C50.5285 87.7173 50.1885 87.972 49.8032 87.972Z" fill="white"/>
<path d="M30.4378 20.9854C30.2818 20.9854 30.1232 20.9428 29.9805 20.8548C29.5738 20.6014 29.4498 20.0668 29.7032 19.6601L41.6872 0.409453C41.9392 0.00411922 42.4725 -0.121225 42.8818 0.132109C43.2872 0.384109 43.4112 0.918769 43.1592 1.32544L31.1738 20.5775C31.0098 20.8401 30.7272 20.9854 30.4378 20.9854Z" fill="white"/>
<path d="M69.1752 20.9854C68.8845 20.9854 68.6032 20.8401 68.4378 20.5775L56.4512 1.32544C56.1992 0.918769 56.3231 0.384109 56.7285 0.132109C57.1378 -0.121225 57.6698 0.00411922 57.9232 0.409453L69.9098 19.6601C70.1618 20.0668 70.0391 20.6014 69.6325 20.8548C69.4898 20.9428 69.3312 20.9854 69.1752 20.9854Z" fill="white"/>
</svg>
