<svg width="91" height="106" viewBox="0 0 91 106" fill="none" xmlns="http://www.w3.org/2000/svg">
<path d="M44.912 15.6973C49.6253 15.6973 53.44 19.5267 53.44 24.2267C53.44 28.9253 49.6253 32.7533 44.912 32.7533C40.2133 32.7533 36.3973 28.9253 36.3973 24.2267C36.3973 19.5267 40.2133 15.6973 44.912 15.6973Z" stroke="white" stroke-width="1.73333" stroke-miterlimit="10" stroke-linecap="round" stroke-linejoin="round"/>
<path d="M21.8174 99.7347H68.5294V104.747H21.8174V99.7347Z" stroke="white" stroke-width="1.73333" stroke-miterlimit="10" stroke-linecap="round" stroke-linejoin="round"/>
<path d="M55.2347 83.8L59.4267 99.7347H30.9307L35.1213 83.8H55.2347Z" stroke="white" stroke-width="1.73333" stroke-miterlimit="10" stroke-linecap="round" stroke-linejoin="round"/>
<path d="M43.324 78.696C43.324 79.712 44.1573 80.532 45.1733 80.532C46.2027 80.532 47.0213 79.712 47.0213 78.696C47.0213 77.668 46.2027 76.8347 45.1733 76.8347C44.1573 76.8347 43.324 77.668 43.324 78.696ZM5.14001 73.5786H85.2067C87.484 73.5786 89.3453 71.7053 89.3453 69.4267V78.9053C89.3453 81.5853 87.1453 83.8 84.4507 83.8H55.2347H35.1213H26.5693H5.90931C3.21331 83.8 1 81.5853 1 78.9053V69.4267C1 71.7053 2.86267 73.5786 5.14001 73.5786Z" stroke="white" stroke-width="1.73333" stroke-miterlimit="10" stroke-linecap="round" stroke-linejoin="round"/>
<path d="M17.0134 57.4107V61.24H10.2054V57.4107H17.0134Z" stroke="white" stroke-width="1.73333" stroke-miterlimit="10" stroke-linecap="round" stroke-linejoin="round"/>
<path d="M51.6426 55.548V63.1267H38.2067V55.548H51.6426Z" stroke="white" stroke-width="1.73333" stroke-miterlimit="10" stroke-linecap="round" stroke-linejoin="round"/>
<path d="M72.7987 57.4107H79.5934V61.24H72.7987V59.3387V57.4107Z" stroke="white" stroke-width="1.73333" stroke-miterlimit="10" stroke-linecap="round" stroke-linejoin="round"/>
<path d="M36.3974 24.2267C36.3974 28.9254 40.2134 32.7533 44.912 32.7533C49.6254 32.7533 53.4401 28.9254 53.4401 24.2267C53.4401 19.5267 49.6254 15.6973 44.912 15.6973C40.2134 15.6973 36.3974 19.5267 36.3974 24.2267ZM43.2467 47.4387L42.2814 41.02C41.0694 40.8253 39.9121 40.524 38.7947 40.0947L34.7561 45.1613L31.8694 43.4947L34.2387 37.4533C33.3001 36.6973 32.4401 35.824 31.6854 34.9014L25.6467 37.284L23.9774 34.3947L29.0547 30.344C28.6254 29.2387 28.3 28.0533 28.1174 26.856L21.6987 25.892V24.2267V22.5613L28.1174 21.596C28.3 20.3734 28.6254 19.2133 29.0547 18.0947L28.2214 17.444L23.9774 14.0587L25.6467 11.1693L31.6854 13.5506C32.4401 12.6 33.3001 11.7533 34.2387 10.9853L31.8694 4.94401L34.7561 3.27864L38.7947 8.35599C39.9121 7.92665 41.0694 7.6 42.2814 7.43066L43.2467 0.999998H46.5787L47.5561 7.43066C48.7521 7.6 49.9227 7.92665 51.0427 8.35599L55.0787 3.27864L57.9707 4.94401L55.5867 10.9853C56.5387 11.7533 57.3841 12.6 58.1401 13.5506L64.1921 11.1693L65.8587 14.0587L61.616 17.444L60.78 18.0947C61.2094 19.2133 61.5254 20.3734 61.7174 21.596L68.1361 22.5613V24.2267V25.88L61.7174 26.856C61.5254 28.0533 61.2094 29.2387 60.78 30.344L65.8587 34.3947L64.1921 37.2707L58.1401 34.9014C57.3841 35.824 56.5387 36.6973 55.5867 37.4533L57.9707 43.4947L55.0787 45.1613L51.0427 40.0947C49.9227 40.524 48.7521 40.8253 47.5561 41.02L46.5787 47.4387H43.2467Z" stroke="white" stroke-width="1.73333" stroke-miterlimit="10" stroke-linecap="round" stroke-linejoin="round"/>
<path d="M42.2813 41.02L43.2466 47.4386H46.5786L47.556 41.02C48.752 40.8253 49.9226 40.524 51.0426 40.0946L55.0786 45.1613L57.9707 43.4946L55.5867 37.4533C56.5387 36.6973 57.384 35.824 58.14 34.9013L64.192 37.2707L65.8587 34.3946L60.78 30.344C61.2093 29.2387 61.5253 28.0533 61.7173 26.856L68.136 25.88V24.2267V22.5613L61.7173 21.596C61.5253 20.3733 61.2093 19.2133 60.78 18.0946L61.616 17.444H84.4507C87.1453 17.444 89.3453 19.644 89.3453 22.3387V69.4267C89.3453 71.7053 87.484 73.5786 85.2067 73.5786H5.14001C2.86267 73.5786 1 71.7053 1 69.4267V22.3387C1 19.644 3.21331 17.444 5.90931 17.444H28.2213L29.0547 18.0946C28.6253 19.2133 28.3 20.3733 28.1173 21.596L21.6987 22.5613V24.2267V25.892L28.1173 26.856C28.3 28.0533 28.6253 29.2387 29.0547 30.344L23.9773 34.3946L25.6466 37.284L31.6853 34.9013C32.44 35.824 33.3 36.6973 34.2387 37.4533L31.8693 43.4946L34.756 45.1613L38.7947 40.0946C39.912 40.524 41.0693 40.8253 42.2813 41.02ZM51.6426 55.548H38.2067V63.1267H51.6426V59.3386V55.548ZM79.5933 57.4107H72.7987V61.2399H79.5933V57.4107ZM10.2053 57.4107V61.2399H17.0133V57.4107H10.2053Z" stroke="white" stroke-width="1.73333" stroke-miterlimit="10" stroke-linecap="round" stroke-linejoin="round"/>
<path d="M35.1213 83.8H5.90931C3.21331 83.8 1 81.5853 1 78.9053V69.4267V22.3387C1 19.644 3.21331 17.444 5.90931 17.444H28.2213" stroke="white" stroke-width="1.73333" stroke-miterlimit="2.61313" stroke-linecap="round" stroke-linejoin="round"/>
<path d="M61.616 17.444H84.4507C87.1453 17.444 89.3453 19.644 89.3453 22.3387V69.4267V78.9053C89.3453 81.5853 87.1453 83.8 84.4507 83.8H55.2347" stroke="white" stroke-width="1.73333" stroke-miterlimit="2.61313" stroke-linecap="round" stroke-linejoin="round"/>
<path d="M89.3453 69.4267C89.3453 71.7053 87.484 73.5786 85.2067 73.5786H5.14001C2.86267 73.5786 1 71.7053 1 69.4267" stroke="white" stroke-width="1.73333" stroke-miterlimit="2.61313" stroke-linecap="round" stroke-linejoin="round"/>
<path d="M30.9307 99.7347L35.1213 83.8H55.2347L59.4267 99.7347" stroke="white" stroke-width="1.73333" stroke-miterlimit="2.61313" stroke-linecap="round" stroke-linejoin="round"/>
<path d="M45.1733 76.8347C46.2027 76.8347 47.0213 77.668 47.0213 78.696C47.0213 79.712 46.2027 80.532 45.1733 80.532C44.1573 80.532 43.324 79.712 43.324 78.696C43.324 77.668 44.1573 76.8347 45.1733 76.8347Z" stroke="white" stroke-width="1.73333" stroke-miterlimit="2.61313" stroke-linecap="round" stroke-linejoin="round"/>
<path d="M59.4267 99.7347H68.5294V104.747H21.8174V99.7347H30.9307H59.4267Z" stroke="white" stroke-width="1.73333" stroke-miterlimit="2.61313" stroke-linecap="round" stroke-linejoin="round"/>
<path d="M44.912 15.6973C49.6253 15.6973 53.44 19.5267 53.44 24.2267C53.44 28.9253 49.6253 32.7533 44.912 32.7533C40.2133 32.7533 36.3973 28.9253 36.3973 24.2267C36.3973 19.5267 40.2133 15.6973 44.912 15.6973Z" stroke="#6CC9FF" stroke-width="1.73333" stroke-miterlimit="2.61313" stroke-linecap="round" stroke-linejoin="round"/>
<path d="M28.2214 17.444L29.0547 18.0947C28.6254 19.2133 28.3 20.3734 28.1174 21.596L21.6987 22.5613V24.2267V25.892L28.1174 26.856C28.3 28.0533 28.6254 29.2387 29.0547 30.344L23.9774 34.3947L25.6467 37.284L31.6854 34.9014C32.4401 35.824 33.3001 36.6973 34.2387 37.4533L31.8694 43.4947L34.7561 45.1613L38.7947 40.0947C39.9121 40.524 41.0694 40.8253 42.2814 41.02L43.2467 47.4387H46.5787L47.5561 41.02C48.7521 40.8253 49.9227 40.524 51.0427 40.0947L55.0787 45.1613L57.9707 43.4947L55.5867 37.4533C56.5387 36.6973 57.3841 35.824 58.1401 34.9014L64.1921 37.2707L65.8587 34.3947L60.78 30.344C61.2094 29.2387 61.5254 28.0533 61.7174 26.856L68.1361 25.88V24.2267V22.5613L61.7174 21.596C61.5254 20.3734 61.2094 19.2133 60.78 18.0947L61.616 17.444L65.8587 14.0587L64.1921 11.1693L58.1401 13.5506C57.3841 12.6 56.5387 11.7533 55.5867 10.9853L57.9707 4.94401L55.0787 3.27864L51.0427 8.35599C49.9227 7.92665 48.7521 7.6 47.5561 7.43066L46.5787 0.999998H43.2467L42.2814 7.43066C41.0694 7.6 39.9121 7.92665 38.7947 8.35599L34.7561 3.27864L31.8694 4.94401L34.2387 10.9853C33.3001 11.7533 32.4401 12.6 31.6854 13.5506L25.6467 11.1693L23.9774 14.0587L28.2214 17.444Z" stroke="#6CC9FF" stroke-width="1.73333" stroke-miterlimit="2.61313" stroke-linecap="round" stroke-linejoin="round"/>
<path d="M38.2067 55.548H51.6426V63.1267H38.2067V55.548Z" stroke="#6CC9FF" stroke-width="1.73333" stroke-miterlimit="2.61313" stroke-linecap="round" stroke-linejoin="round"/>
<path d="M72.7987 57.4107H79.5934V61.24H72.7987V59.3387V57.4107Z" stroke="#6CC9FF" stroke-width="1.73333" stroke-miterlimit="2.61313" stroke-linecap="round" stroke-linejoin="round"/>
<path d="M51.6427 59.3386H72.7987" stroke="#6CC9FF" stroke-width="1.73333" stroke-miterlimit="2.61313" stroke-linecap="round" stroke-linejoin="round"/>
<path d="M17.0134 57.4107H10.2054V61.24H17.0134V59.3387V57.4107Z" stroke="#6CC9FF" stroke-width="1.73333" stroke-miterlimit="2.61313" stroke-linecap="round" stroke-linejoin="round"/>
<path d="M38.1546 59.3386H17.0133" stroke="#6CC9FF" stroke-width="1.73333" stroke-miterlimit="2.61313" stroke-linecap="round" stroke-linejoin="round"/>
</svg>
