<svg width="93" height="97" viewBox="0 0 93 97" fill="none" xmlns="http://www.w3.org/2000/svg">
<path d="M7.92402 70.6454C8.65602 71.3854 9.10801 72.4 9.10801 73.5174C9.10801 74.636 8.65602 75.648 7.92402 76.388L7.87337 76.44C7.14537 77.1427 6.14668 77.584 5.04401 77.584C3.92268 77.584 2.91068 77.116 2.18268 76.388C1.44402 75.648 1 74.636 1 73.5174C1 72.3867 1.44402 71.3854 2.18268 70.6454C2.91068 69.9054 3.93601 69.4627 5.04401 69.4627C5.05334 69.4627 5.05333 69.4627 5.06667 69.4627C5.484 69.4627 5.88538 69.5267 6.24805 69.644C6.49471 69.724 6.74667 69.8133 6.96667 69.932C6.976 69.932 6.99067 69.944 7.00267 69.944C7.22267 70.0747 7.43337 70.216 7.64004 70.3853C7.74537 70.4493 7.83602 70.5414 7.92402 70.6454Z" stroke="#6CC9FF" stroke-width="1.73333" stroke-miterlimit="10" stroke-linecap="round" stroke-linejoin="round"/>
<path d="M90.4092 18.956C91.1372 19.6853 91.5918 20.6973 91.5918 21.8146C91.5918 22.9453 91.1372 23.96 90.4092 24.6986L90.3585 24.7506C89.6305 25.44 88.6425 25.8826 87.5399 25.8826C87.5119 25.8826 87.4745 25.8826 87.4465 25.8826C87.2772 25.8679 87.1078 25.8573 86.9385 25.8293C86.9305 25.8293 86.9158 25.8293 86.9025 25.8293C86.7185 25.804 86.5372 25.752 86.3572 25.7013C85.9785 25.596 85.6438 25.4266 85.3278 25.2186C85.1585 25.1159 85.0025 24.9986 84.8612 24.868C84.7185 24.7386 84.5758 24.596 84.4438 24.4533C84.1972 24.1533 83.9905 23.8293 83.8225 23.4653C83.6145 22.96 83.4839 22.4013 83.4839 21.8146C83.4839 21.1 83.6652 20.424 83.9905 19.8533C84.1732 19.5146 84.4065 19.216 84.6679 18.956C85.4092 18.2146 86.4225 17.7747 87.5399 17.7747C88.6572 17.7747 89.6679 18.2146 90.4092 18.956Z" stroke="#6CC9FF" stroke-width="1.73333" stroke-miterlimit="10" stroke-linecap="round" stroke-linejoin="round"/>
<path d="M90.4092 70.6454C91.1372 71.3854 91.5918 72.4 91.5918 73.5174C91.5918 74.636 91.1372 75.648 90.4092 76.388L90.3585 76.44C89.6305 77.1427 88.6425 77.584 87.5399 77.584C86.4225 77.584 85.3919 77.116 84.6679 76.388C84.3159 76.0373 84.0318 75.6227 83.8225 75.1534C83.7972 75.0894 83.7705 75.0254 83.7438 74.9454C83.7158 74.8694 83.6932 74.804 83.6652 74.7254C83.6279 74.5947 83.5879 74.4654 83.5599 74.336C83.5105 74.064 83.4839 73.804 83.4839 73.5174C83.4839 72.3867 83.9399 71.3854 84.6679 70.6454C85.4092 69.9054 86.4225 69.4627 87.5399 69.4627C88.6572 69.4627 89.6679 69.9054 90.4092 70.6454Z" stroke="#6CC9FF" stroke-width="1.73333" stroke-miterlimit="10" stroke-linecap="round" stroke-linejoin="round"/>
<path d="M86.3572 28.1307V67.2013C86.2119 67.2147 86.0973 67.2534 85.9679 67.2814C85.9146 67.2934 85.8772 67.3054 85.8359 67.3174C85.6932 67.3574 85.5506 67.3973 85.4093 67.4627C84.8879 67.632 84.3932 67.8907 83.9532 68.1894C83.8079 68.28 83.6652 68.384 83.5239 68.5013C83.3412 68.6427 83.1719 68.8014 83.0026 68.9694C81.8332 70.1374 81.1066 71.736 81.1066 73.5174C81.1066 73.7387 81.1199 73.9587 81.1479 74.1667C81.1706 74.4534 81.2119 74.7254 81.2892 74.984L51.7919 88.0187C51.6906 87.8213 51.5586 87.64 51.4173 87.4587C51.3013 87.2774 51.1559 87.108 50.9865 86.952C50.9492 86.888 50.8946 86.8347 50.8439 86.7827C50.7399 86.68 50.6239 86.576 50.5052 86.484C50.3359 86.3294 50.1706 86.1973 49.9879 86.0813C49.8052 85.9373 49.6079 85.8214 49.4159 85.7174C49.2732 85.6387 49.1279 85.56 48.9719 85.496C48.5186 85.276 48.0239 85.12 47.5026 85.028V40.7987L82.2373 25.452C82.4706 25.7773 82.7172 26.0773 83.0026 26.3627C83.0159 26.388 83.0439 26.4147 83.0666 26.4267C83.2492 26.608 83.4452 26.78 83.6532 26.9334C83.7839 27.0254 83.9133 27.116 84.0426 27.208C84.5866 27.572 85.1999 27.844 85.8359 28.012C86.0052 28.064 86.1746 28.1027 86.3572 28.1307Z" stroke="white" stroke-width="1.73333" stroke-miterlimit="10" stroke-linecap="round" stroke-linejoin="round"/>
<path d="M52.9494 8.49597L81.404 19.892C81.212 20.4893 81.1067 21.1387 81.1067 21.8147C81.1067 22.32 81.1707 22.8146 81.276 23.2826L46.308 38.732L11.1094 23.1933C11.3427 22.5426 11.476 21.828 11.476 21.0867C11.476 20.6973 11.436 20.32 11.3707 19.9587L42.048 8.37996C42.1507 8.57462 42.2827 8.7573 42.412 8.92397C42.412 8.93863 42.4374 8.95066 42.4374 8.95066C42.5667 9.13333 42.7094 9.30267 42.868 9.45867C42.9054 9.51067 42.9427 9.54801 42.996 9.60001H43.0067C43.2947 9.90001 43.6053 10.16 43.944 10.38C44.1133 10.4973 44.2973 10.6027 44.48 10.7053C44.6587 10.796 44.8414 10.8867 45.0347 10.9667C45.1947 11.0293 45.3494 11.0946 45.5014 11.1466C45.5947 11.1733 45.6854 11.1987 45.776 11.2253C45.9187 11.264 46.064 11.304 46.2067 11.328C46.2294 11.3427 46.2573 11.3427 46.2973 11.356C46.4907 11.3933 46.6867 11.4187 46.88 11.4333C47.1027 11.4613 47.3107 11.472 47.5307 11.472C47.7267 11.472 47.9093 11.4613 48.1027 11.4453C48.9987 11.368 49.8453 11.108 50.5973 10.692C50.7533 10.6147 50.9094 10.5226 51.0507 10.4186C51.3894 10.1866 51.7014 9.93863 51.9987 9.65196L52.08 9.60001C52.1027 9.57467 52.1173 9.56268 52.1307 9.53601C52.4413 9.22401 52.716 8.8733 52.9494 8.49597Z" stroke="white" stroke-width="1.73333" stroke-miterlimit="10" stroke-linecap="round" stroke-linejoin="round"/>
<path d="M51.5866 5.05332C51.5866 5.61199 51.4666 6.15867 51.2613 6.63867C51.1426 6.91334 51 7.17067 50.8173 7.40534C50.7027 7.58667 50.5466 7.75465 50.3906 7.91198L50.3773 7.92396C50.3906 7.93729 50.364 7.96398 50.336 7.97598C50.2346 8.09331 50.116 8.18531 50.0013 8.27598C49.828 8.40531 49.636 8.53464 49.4386 8.63998C49.4293 8.65198 49.4013 8.65197 49.376 8.6653C49.3107 8.70397 49.2319 8.74267 49.1559 8.76934C48.8799 8.88534 48.5973 8.9773 48.284 9.0293C48.1667 9.05463 48.0506 9.08132 47.9333 9.08132C47.804 9.09332 47.6746 9.10801 47.5306 9.10801C47.3359 9.10801 47.1413 9.09329 46.948 9.05462C46.9213 9.05462 46.8933 9.05462 46.8707 9.05462C46.724 9.02929 46.5827 9.00265 46.44 8.95065C46.3987 8.95065 46.3626 8.93863 46.3213 8.92396C46.2186 8.89996 46.128 8.85996 46.0493 8.82129C45.908 8.76929 45.764 8.71598 45.6347 8.63998C45.556 8.59998 45.4786 8.5613 45.4 8.49597C45.3493 8.47063 45.2959 8.44401 45.2586 8.40534C45.1773 8.36801 45.1027 8.31462 45.0347 8.24929C44.892 8.14395 44.764 8.02665 44.6466 7.91198C44.5173 7.78265 44.388 7.63729 44.2693 7.48262C44.192 7.37729 44.128 7.27463 44.0493 7.15729C44.0226 7.10529 43.9826 7.05462 43.9586 6.98796C43.8933 6.85996 43.8293 6.72932 43.7746 6.58666C43.5826 6.11866 43.4773 5.59866 43.4773 5.05332C43.4773 3.93599 43.9173 2.9093 44.6586 2.1933C45.3866 1.45463 46.3986 1 47.5306 1C48.6479 1 49.6626 1.45463 50.3906 2.1933C51.128 2.9093 51.5866 3.93599 51.5866 5.05332Z" stroke="#6CC9FF" stroke-width="1.73333" stroke-miterlimit="10" stroke-linecap="round" stroke-linejoin="round"/>
<path d="M50.1159 89.9533C50.2586 90.3813 50.3493 90.8507 50.3493 91.3307C50.3493 92.4494 49.8959 93.4627 49.1679 94.2027L49.1146 94.2533C48.5053 94.852 47.6999 95.2533 46.8026 95.3587H45.776C44.8693 95.2427 44.0373 94.812 43.4239 94.2027C42.6853 93.4627 42.2279 92.4494 42.2279 91.3307C42.2279 90.9147 42.2919 90.5254 42.3972 90.1614C42.4372 90.096 42.4759 90.032 42.5026 89.9533C42.6306 89.564 42.8412 89.1866 43.0892 88.86C43.2159 88.6933 43.3599 88.536 43.5039 88.396C43.6466 88.2507 43.8026 88.136 43.9719 88.0054H43.9826C44.1386 87.888 44.3079 87.7973 44.4799 87.704C44.4906 87.704 44.5026 87.6933 44.5173 87.68C44.6866 87.6013 44.8693 87.5374 45.0346 87.472C45.0613 87.472 45.0759 87.4587 45.0892 87.4587C45.2692 87.408 45.4373 87.3547 45.6346 87.3293C45.6573 87.3293 45.6853 87.3147 45.712 87.3293C45.88 87.2907 46.0639 87.2773 46.2439 87.2773C46.2573 87.2773 46.2706 87.2773 46.284 87.2773H46.3079C46.3213 87.2773 46.3213 87.2773 46.3346 87.2773C46.5826 87.2773 46.8426 87.304 47.076 87.3546C47.2186 87.3813 47.3612 87.408 47.5026 87.4587C47.6612 87.4973 47.8186 87.5627 47.9599 87.6293C48.0386 87.6667 48.1026 87.6934 48.1799 87.7307C48.3359 87.8094 48.4786 87.9014 48.6226 88.0054C48.7146 88.0707 48.7893 88.136 48.8706 88.1987C48.9213 88.2267 48.9586 88.2627 48.9986 88.3027C49.0493 88.356 49.1146 88.408 49.1679 88.46C49.2839 88.5773 49.3879 88.7054 49.4933 88.836C49.5066 88.86 49.5306 88.876 49.5453 88.9027C49.636 89.0187 49.7132 89.148 49.7919 89.2773C49.8452 89.356 49.8826 89.4467 49.9199 89.5253C49.9879 89.628 50.0386 89.7467 50.0786 89.8627C50.0893 89.888 50.1026 89.9267 50.1159 89.9533Z" stroke="#6CC9FF" stroke-width="1.73333" stroke-miterlimit="10" stroke-linecap="round" stroke-linejoin="round"/>
<path d="M45.112 40.812V85.016C45.1027 85.016 45.076 85.028 45.0613 85.028C44.8413 85.068 44.632 85.12 44.412 85.1974C44.2067 85.2494 44.0093 85.328 43.8133 85.4187C43.8027 85.4187 43.8027 85.4187 43.8027 85.4187C43.024 85.7293 42.3467 86.1973 41.7613 86.7827C41.7107 86.8347 41.6574 86.888 41.6187 86.952C41.2947 87.2773 41.02 87.6293 40.8 88.0187L11.3294 74.984L11.3707 74.776C11.448 74.3613 11.4987 73.9454 11.4987 73.5174C11.4987 71.736 10.7707 70.1374 9.61602 68.9694C9.03202 68.384 8.32938 67.9147 7.54805 67.5907C7.34138 67.5013 7.12136 67.4213 6.8987 67.3573C6.75603 67.3053 6.60134 67.2654 6.44401 67.2414C6.38001 67.228 6.32936 67.2147 6.2627 67.2013V28.1307C7.0947 27.9867 7.88667 27.6627 8.57467 27.208C9.27734 26.752 9.88667 26.1547 10.3693 25.452L45.112 40.812Z" stroke="white" stroke-width="1.73333" stroke-miterlimit="10" stroke-linecap="round" stroke-linejoin="round"/>
<path d="M8.84805 19.6334C9.01738 20.0747 9.10801 20.568 9.10801 21.0867C9.10801 22.1934 8.65602 23.2053 7.92402 23.9453L7.87337 23.9987C7.14537 24.6987 6.14668 25.128 5.04401 25.128C3.92268 25.128 2.91068 24.688 2.18268 23.9453C1.44402 23.2053 1 22.1934 1 21.0867C1 19.944 1.44402 18.944 2.18268 18.2027C2.91068 17.476 3.93601 17.02 5.04401 17.02C6.17068 17.02 7.18669 17.476 7.92402 18.2027C8.31736 18.6054 8.64271 19.0867 8.84805 19.6334Z" stroke="#6CC9FF" stroke-width="1.73333" stroke-miterlimit="10" stroke-linecap="round" stroke-linejoin="round"/>
</svg>
