<?xml version="1.0" encoding="UTF-8"?>
<svg id="Layer_2" data-name="Layer 2" xmlns="http://www.w3.org/2000/svg" viewBox="0 0 63.48 48.43">
  <defs>
    <style>
      .cls-1 {
        stroke: #fff;
      }

      .cls-1, .cls-2 {
        fill: none;
        stroke-linecap: round;
        stroke-linejoin: round;
        stroke-width: .7px;
      }

      .cls-2 {
        stroke: #6cc9ff;
      }

      .cls-3 {
        fill: #6cc9ff;
      }
    </style>
  </defs>
  <g id="Icons">
    <circle class="cls-3" cx="8.54" cy="21.35" r="1.46"/>
    <path class="cls-1" d="M54.83,42.36h4.16c2.28,0,4.13-1.85,4.13-4.13V4.48c0-2.28-1.85-4.13-4.13-4.13H4.48C2.2.35.35,2.2.35,4.48v33.75c0,2.28,1.85,4.13,4.13,4.13h44.72"/>
    <polyline class="cls-1" points="48.93 36.46 57.34 36.46 57.34 6.25 16.45 6.25 16.45 36.46 43.3 36.46"/>
    <circle class="cls-2" cx="8.54" cy="21.35" r="3.96"/>
    <line class="cls-1" x1="6.86" y1="6.25" x2="10.22" y2="6.25"/>
    <line class="cls-1" x1="6.86" y1="9.98" x2="10.22" y2="9.98"/>
    <line class="cls-1" x1="6.86" y1="13.72" x2="10.22" y2="13.72"/>
    <line class="cls-1" x1="6.86" y1="28.99" x2="10.22" y2="28.99"/>
    <line class="cls-1" x1="6.86" y1="32.72" x2="10.22" y2="32.72"/>
    <line class="cls-1" x1="6.86" y1="36.46" x2="10.22" y2="36.46"/>
    <path class="cls-2" d="M40.94,28.46l-4.01-1.85c-.42-.19-.86.24-.66.66l1.85,4.01,16.46,16.46c.45.45,1.17.45,1.62,0l1.19-1.19c.45-.45.45-1.17,0-1.62l-16.46-16.46Z"/>
  </g>
</svg>