<?xml version="1.0" encoding="utf-8"?>
<!-- Generator: Adobe Illustrator 28.0.0, SVG Export Plug-In . SVG Version: 6.00 Build 0)  -->
<svg version="1.1" xmlns="http://www.w3.org/2000/svg" xmlns:xlink="http://www.w3.org/1999/xlink" x="0px" y="0px"
	 viewBox="0 0 900 500" style="enable-background:new 0 0 900 500;" xml:space="preserve">
<style type="text/css">
	.st0{opacity:0.7;fill:#FFFFFF;}
	.st1{fill:#6CC9FF;}
	.st2{fill:none;stroke:#121212;stroke-width:1.1483;stroke-linecap:round;stroke-linejoin:round;stroke-miterlimit:10;}
	.st3{opacity:0.3;clip-path:url(#XMLID_00000021100832245761929850000013518449615519394958_);fill:#121212;fill-opacity:0.7;}
	
		.st4{clip-path:url(#XMLID_00000021100832245761929850000013518449615519394958_);fill:none;stroke:#121212;stroke-width:1.1483;stroke-linecap:round;stroke-linejoin:round;stroke-miterlimit:10;}
	.st5{clip-path:url(#XMLID_00000021100832245761929850000013518449615519394958_);}
	.st6{fill:#6CC9FF;stroke:#121212;stroke-width:1.1483;stroke-linecap:round;stroke-linejoin:round;stroke-miterlimit:10;}
	.st7{opacity:0.2;clip-path:url(#XMLID_00000021100832245761929850000013518449615519394958_);fill:#121212;fill-opacity:0.7;}
	.st8{opacity:0.3;fill:#121212;fill-opacity:0.7;}
	.st9{opacity:0.2;fill:#121212;fill-opacity:0.7;}
	.st10{clip-path:url(#XMLID_00000054972339655646974520000001761071579437780644_);fill:#121212;}
	.st11{clip-path:url(#XMLID_00000054972339655646974520000001761071579437780644_);}
	.st12{fill:#121212;}
	
		.st13{clip-path:url(#XMLID_00000054972339655646974520000001761071579437780644_);fill:#C0C0C0;stroke:#121212;stroke-width:1.1483;stroke-miterlimit:10;}
	.st14{opacity:0.5;clip-path:url(#XMLID_00000114775684257014137490000017508099036663778725_);fill:#FFFFFF;}
	.st15{fill:#FFFFFF;}
	.st16{fill:#757575;}
	.st17{fill:#999999;}
	.st18{fill:#C0C0C0;}
	.st19{fill:#6CC9FF;stroke:#121212;stroke-width:1.1483;stroke-miterlimit:10;}
	.st20{fill:#757575;stroke:#121212;stroke-width:1.1483;stroke-linecap:round;stroke-linejoin:round;stroke-miterlimit:10;}
	.st21{fill:#999999;stroke:#121212;stroke-width:1.1483;stroke-linecap:round;stroke-linejoin:round;stroke-miterlimit:10;}
	.st22{fill:#C0C0C0;stroke:#121212;stroke-width:1.1483;stroke-miterlimit:10;}
	.st23{fill:#FFFFFF;stroke:#121212;stroke-width:1.1483;stroke-linecap:round;stroke-linejoin:round;stroke-miterlimit:10;}
	.st24{opacity:0.2;clip-path:url(#XMLID_00000054972339655646974520000001761071579437780644_);fill:#121212;fill-opacity:0.7;}
	.st25{opacity:0.4;fill:#6CC9FF;}
	.st26{opacity:0.3;clip-path:url(#XMLID_00000165231078344329314510000007606102459279799195_);fill:#121212;fill-opacity:0.7;}
	.st27{opacity:0.3;clip-path:url(#XMLID_00000178168602540878575030000012766789961805596042_);fill:#121212;fill-opacity:0.7;}
	.st28{clip-path:url(#XMLID_00000155129706796093354910000012297413368496697990_);fill:#121212;}
	.st29{clip-path:url(#XMLID_00000155129706796093354910000012297413368496697990_);}
	.st30{opacity:0.2;clip-path:url(#XMLID_00000155129706796093354910000012297413368496697990_);fill:#121212;fill-opacity:0.7;}
</style>
<g id="Background_Simple">
	<g>
		<path class="st0" d="M267.9,167.1c0,0-27.9,72,11.3,144.5c39.2,72.5,119.9,110.8,184.5,143.5c64.6,32.7,131.7,16.8,163.5-36.8
			c31.9-53.6-11.8-91.9-11.9-168.4c-0.1-76.5,11.4-96.7-30-161.4C544,23.9,442.3,9.6,365.5,57.5
			C288.6,105.5,267.9,167.1,267.9,167.1z"/>
	</g>
	<g>
		<path class="st1" d="M425.2,21C567.6,8.3,567.9,88.6,632,163.5c64.2,74.9,77.9,108.8,53.7,195.1
			C661.6,444.9,580,512.5,479.2,474.2s-158.6-1.5-222.2-35.6c-63.6-34-87.2-99.8-40.7-177.3S249.6,36.6,425.2,21z"/>
		<path class="st0" d="M425.2,21C567.6,8.3,567.9,88.6,632,163.5c64.2,74.9,77.9,108.8,53.7,195.1
			C661.6,444.9,580,512.5,479.2,474.2s-158.6-1.5-222.2-35.6c-63.6-34-87.2-99.8-40.7-177.3S249.6,36.6,425.2,21z"/>
	</g>
</g>
<g id="Doodles">
	<g>
		<g>
			<path class="st2" d="M464.9,61.1L441.5,66c-3.2,0.7-6.3-1.4-6.9-4.5l-4.9-23.4c-0.7-3.2,1.4-6.3,4.5-6.9l23.4-4.9
				c3.2-0.7,6.3,1.4,6.9,4.5l4.9,23.4C470.1,57.3,468,60.4,464.9,61.1z"/>
			<line class="st2" x1="448" y1="39" x2="451" y2="53.3"/>
			<line class="st2" x1="456.6" y1="44.6" x2="442.4" y2="47.6"/>
		</g>
		<g>
			<path class="st2" d="M701.1,311.6l-23.4,4.9c-3.2,0.7-6.3-1.4-6.9-4.5l-4.9-23.4c-0.7-3.2,1.4-6.3,4.5-6.9l23.4-4.9
				c3.2-0.7,6.3,1.4,6.9,4.5l4.9,23.4C706.2,307.8,704.2,310.9,701.1,311.6z"/>
			<line class="st2" x1="689.6" y1="290.5" x2="681.7" y2="302.7"/>
			<line class="st2" x1="691.8" y1="300.6" x2="679.6" y2="292.6"/>
		</g>
		<g>
			<path class="st2" d="M376.1,463.5l-23.9-1.4c-3.2-0.2-5.7-2.9-5.5-6.2l1.4-23.9c0.2-3.2,2.9-5.7,6.2-5.5l23.9,1.4
				c3.2,0.2,5.7,2.9,5.5,6.2l-1.4,23.9C382.1,461.3,379.3,463.7,376.1,463.5z"/>
			<line class="st2" x1="372.4" y1="445.5" x2="357.9" y2="444.6"/>
		</g>
		<g>
			<path class="st2" d="M223.3,296.4l-22.7-7.5c-3.1-1-4.7-4.3-3.7-7.4l7.5-22.7c1-3.1,4.3-4.7,7.4-3.7l22.7,7.5
				c3.1,1,4.7,4.3,3.7,7.4l-7.5,22.7C229.7,295.8,226.4,297.4,223.3,296.4z"/>
			<line class="st2" x1="226.7" y1="271.2" x2="208.5" y2="280.3"/>
			<g>
				<path class="st2" d="M216.2,267.4c0.6,1.3,0.1,2.8-1.1,3.4c-1.3,0.6-2.8,0.1-3.4-1.1c-0.6-1.3-0.1-2.8,1.1-3.4
					C214.1,265.7,215.6,266.2,216.2,267.4z"/>
				<path class="st2" d="M223.5,281.8c0.6,1.3,0.1,2.8-1.1,3.4c-1.3,0.6-2.8,0.1-3.4-1.1c-0.6-1.3-0.1-2.8,1.1-3.4
					S222.8,280.5,223.5,281.8z"/>
			</g>
		</g>
	</g>
</g>
<g id="Coins">
	<g>
		<defs>
			<path id="XMLID_1_" d="M459,422.3c-6.6,9.6-19.8,12-29.4,5.4c-3.7-2.6-6.3-6.1-7.8-10c-2.3-6.3-1.6-13.5,2.4-19.4
				c2.8-4.1,6.9-6.9,11.3-8.2c5.9-1.8,12.6-0.9,18.1,2.9C463.3,399.5,465.7,412.6,459,422.3z"/>
		</defs>
		<use xlink:href="#XMLID_1_"  style="overflow:visible;fill:#6CC9FF;"/>
		<clipPath id="XMLID_00000009558348674170272690000018364403255565183117_">
			<use xlink:href="#XMLID_1_"  style="overflow:visible;"/>
		</clipPath>
		
			<path style="opacity:0.3;clip-path:url(#XMLID_00000009558348674170272690000018364403255565183117_);fill:#121212;fill-opacity:0.7;" d="
			M456.3,420.3c-5.6,8.1-16.7,10.1-24.8,4.5s-10.1-16.7-4.5-24.8c5.6-8.1,16.7-10.1,24.8-4.5C459.8,401.2,461.9,412.3,456.3,420.3z"
			/>
		
			<path style="clip-path:url(#XMLID_00000009558348674170272690000018364403255565183117_);fill:none;stroke:#121212;stroke-width:1.1483;stroke-linecap:round;stroke-linejoin:round;stroke-miterlimit:10;" d="
			M456.3,420.3c-5.6,8.1-16.7,10.1-24.8,4.5s-10.1-16.7-4.5-24.8c5.6-8.1,16.7-10.1,24.8-4.5C459.8,401.2,461.9,412.3,456.3,420.3z"
			/>
		<g style="clip-path:url(#XMLID_00000009558348674170272690000018364403255565183117_);">
			<path class="st6" d="M446.2,401.3l0.9-1.2l2.1,1.5l-0.9,1.2c1.6,1.7,1.6,3.7,0,6l-0.4,0.5l-2.5-1.7l0.5-0.7
				c0.8-1.2,0.7-2-0.2-2.5c-0.8-0.6-1.6-0.5-2.4,0.7c-0.8,1.2-0.9,2.3-0.1,5c1,3.2,0.8,5-0.5,6.9c-1.6,2.3-3.5,3-5.7,2.1l-0.8,1.2
				l-2.1-1.5l0.8-1.2c-1.6-1.7-1.6-3.8,0-6l0.8-1.1l2.5,1.7l-0.9,1.3c-0.8,1.2-0.6,2,0.2,2.6s1.6,0.5,2.5-0.7c0.8-1.2,0.9-2.4,0.1-5
				c-1-3.2-0.8-5,0.5-6.9C442.2,401.3,444.1,400.5,446.2,401.3z"/>
		</g>
		
			<path style="opacity:0.2;clip-path:url(#XMLID_00000009558348674170272690000018364403255565183117_);fill:#121212;fill-opacity:0.7;" d="
			M435.7,393.1c0,10.4-5.6,19.5-13.9,24.5c-2.3-6.3-1.6-13.5,2.4-19.4c2.8-4.1,6.9-6.9,11.3-8.2C435.7,391,435.7,392,435.7,393.1z"
			/>
		
			<use xlink:href="#XMLID_1_"  style="overflow:visible;fill:none;stroke:#121212;stroke-width:1.1483;stroke-linecap:round;stroke-linejoin:round;stroke-miterlimit:10;"/>
	</g>
	<g>
		<circle class="st6" cx="411.4" cy="392.4" r="21.2"/>
		<circle class="st8" cx="411.4" cy="392.4" r="17.8"/>
		<circle class="st2" cx="411.4" cy="392.4" r="17.8"/>
		<g>
			<path class="st6" d="M410.1,382.5V381h2.6v1.5c2.3,0.5,3.4,2.2,3.4,4.9v0.6h-3v-0.8c0-1.4-0.6-2-1.6-2c-1,0-1.6,0.5-1.6,2
				c0,1.4,0.6,2.5,2.7,4.2c2.6,2.1,3.5,3.7,3.5,6c0,2.7-1.2,4.5-3.4,5v1.5h-2.6v-1.5c-2.3-0.5-3.4-2.2-3.4-5V396h3v1.6
				c0,1.4,0.6,2,1.6,2s1.6-0.5,1.6-2c0-1.4-0.6-2.5-2.7-4.2c-2.6-2.1-3.5-3.7-3.5-6C406.8,384.7,407.9,383,410.1,382.5z"/>
		</g>
	</g>
	<g>
		
			<ellipse transform="matrix(0.5395 -0.842 0.842 0.5395 -99.8413 615.0209)" class="st6" cx="512.4" cy="398.8" rx="21.2" ry="21.2"/>
		<path class="st8" d="M525.4,386.7c6.7,7.2,6.3,18.5-0.9,25.2c-7.2,6.7-18.5,6.3-25.2-0.9c-6.7-7.2-6.3-18.5,0.9-25.2
			C507.5,379.1,518.7,379.5,525.4,386.7z"/>
		<path class="st2" d="M525.4,386.7c6.7,7.2,6.3,18.5-0.9,25.2c-7.2,6.7-18.5,6.3-25.2-0.9c-6.7-7.2-6.3-18.5,0.9-25.2
			C507.5,379.1,518.7,379.5,525.4,386.7z"/>
		<g>
			<path class="st6" d="M504.7,392.4l-1-1.1l1.9-1.8l1,1.1c2-1.2,4-0.7,5.9,1.3l0.4,0.5l-2.2,2l-0.6-0.6c-1-1.1-1.8-1.1-2.5-0.4
				c-0.7,0.7-0.8,1.5,0.2,2.5c1,1.1,2.1,1.4,4.8,1.2c3.3-0.2,5.1,0.3,6.6,2c1.9,2,2.2,4.1,0.9,6l1,1.1l-1.9,1.8l-1-1.1
				c-2,1.2-4,0.7-5.9-1.3l-0.9-1l2.2-2l1.1,1.2c1,1.1,1.8,1,2.5,0.3c0.7-0.7,0.9-1.5-0.1-2.6c-1-1.1-2.1-1.4-4.8-1.2
				c-3.3,0.3-5.1-0.3-6.6-2C503.7,396.3,503.4,394.3,504.7,392.4z"/>
		</g>
	</g>
</g>
<g id="Right_hand">
	<g>
		<path class="st9" d="M503.6,306.8c0,0-0.1,43.9,0,46.5c0.1,2.6,3.4,18,3.4,18l-10.7,19.7l9.2,7.4l17.9-17.6c0,0,15.2,9.4,18,22.8
			c2.8,13.4,19.3,23.2,36.5,60.4c17.2,37.2,36.7-83.2,36.7-83.2l-53-66.7L503.6,306.8z"/>
		<g>
			<defs>
				<polygon id="XMLID_307_" points="665.6,70.9 649.4,229.2 639.4,326.6 499.9,312.3 472.8,309.6 455.4,307.8 470.8,157.5 
					481.6,52.1 				"/>
			</defs>
			<use xlink:href="#XMLID_307_"  style="overflow:visible;fill:#FFFFFF;"/>
			<clipPath id="XMLID_00000013169887386806571560000010923524566553499327_">
				<use xlink:href="#XMLID_307_"  style="overflow:visible;"/>
			</clipPath>
			<path style="clip-path:url(#XMLID_00000013169887386806571560000010923524566553499327_);fill:#121212;" d="M612.2,76.8
				l-79.4-8.1c-1.5-0.2-2.8,0.9-3,2.4c-0.2,1.5,0.9,2.8,2.4,3l79.4,8.1c1.5,0.2,2.8-0.9,3-2.4C614.7,78.3,613.6,77,612.2,76.8z"/>
			<path style="clip-path:url(#XMLID_00000013169887386806571560000010923524566553499327_);fill:#121212;" d="M591.2,85.9
				l-39.7-4.1c-0.7-0.1-1.4,0.5-1.5,1.2c-0.1,0.7,0.5,1.4,1.2,1.5l39.7,4.1c0.7,0.1,1.4-0.5,1.5-1.2C592.5,86.6,591.9,86,591.2,85.9
				z"/>
			<g style="clip-path:url(#XMLID_00000013169887386806571560000010923524566553499327_);">
				<path class="st12" d="M634.8,202.7L506,189.5c-0.7-0.1-1.4,0.5-1.5,1.2c-0.1,0.7,0.5,1.4,1.2,1.5l128.9,13.2
					c0.7,0.1,1.4-0.5,1.5-1.2C636.1,203.5,635.6,202.8,634.8,202.7z"/>
				<path class="st12" d="M633.9,212.4L484,197.1c-0.7-0.1-1.4,0.5-1.5,1.2c-0.1,0.7,0.5,1.4,1.2,1.5l149.9,15.4
					c0.7,0.1,1.4-0.5,1.5-1.2C635.1,213.2,634.6,212.5,633.9,212.4z"/>
				<path class="st12" d="M590.9,217.8L483,206.8c-0.7-0.1-1.4,0.5-1.5,1.2c-0.1,0.7,0.5,1.4,1.2,1.5l107.9,11.1
					c0.7,0.1,1.4-0.5,1.5-1.2C592.2,218.6,591.6,217.9,590.9,217.8z"/>
			</g>
			
				<rect x="533.2" y="170.5" transform="matrix(0.1019 -0.9948 0.9948 0.1019 253.0127 773.0432)" style="clip-path:url(#XMLID_00000013169887386806571560000010923524566553499327_);fill:#C0C0C0;stroke:#121212;stroke-width:1.1483;stroke-miterlimit:10;" width="43" height="151.9"/>
			<g style="clip-path:url(#XMLID_00000013169887386806571560000010923524566553499327_);">
				<g>
					<g>
						<defs>
							
								<ellipse id="XMLID_310_" transform="matrix(0.7683 -0.6401 0.6401 0.7683 31.7299 371.5124)" cx="529.1" cy="141.9" rx="33.6" ry="33.6"/>
						</defs>
						<use xlink:href="#XMLID_310_"  style="overflow:visible;fill:#6CC9FF;"/>
						<clipPath id="XMLID_00000085929893864601170730000000975439463282158999_">
							<use xlink:href="#XMLID_310_"  style="overflow:visible;"/>
						</clipPath>
						
							<ellipse transform="matrix(0.7683 -0.6401 0.6401 0.7683 31.7299 371.5124)" style="opacity:0.5;clip-path:url(#XMLID_00000085929893864601170730000000975439463282158999_);fill:#FFFFFF;" cx="529.1" cy="141.9" rx="33.6" ry="33.6"/>
						
							<use xlink:href="#XMLID_310_"  style="overflow:visible;fill:none;stroke:#121212;stroke-width:1.1483;stroke-miterlimit:10;"/>
					</g>
					<g>
						<path class="st15" d="M530,141.8l28,14.1c1.6-3.3,2.6-6.9,3-10.7c0.9-8.6-1.7-16.8-6.7-23.1L530,141.8z"/>
						<path class="st1" d="M530.2,140.3l23.4-19.1c-3.5-4.1-7.9-7.3-13.1-9.3l-4.2,11.6L530.2,140.3z"/>
						<path class="st16" d="M532.9,110l-2.8,27.7l9.5-26.2C537.4,110.8,535.2,110.3,532.9,110z"/>
						<path class="st17" d="M528.6,141.6l3.2-31.6c-17.4-1.5-32.9,11.2-34.7,28.7c-0.6,5.7,0.4,11.2,2.5,16.1L528.6,141.6z"/>
						<path class="st18" d="M525.8,173.9c13.5,1.4,25.8-5.8,31.7-17.1l-28.5-14.3l-29,13.2C504.7,165.5,514.2,172.7,525.8,173.9z"/>
					</g>
				</g>
				<g>
					<g>
						<path class="st19" d="M582.5,125.4l-3.8-0.4c-0.4,0-0.7-0.4-0.6-0.8l0.4-3.8c0-0.4,0.4-0.7,0.8-0.6l3.8,0.4
							c0.4,0,0.7,0.4,0.6,0.8l-0.4,3.8C583.2,125.1,582.9,125.4,582.5,125.4z"/>
						<g>
							<g>
								<path class="st12" d="M636.3,127.5l-49.4-5.1c-0.3,0-0.6-0.3-0.5-0.7c0-0.3,0.3-0.6,0.7-0.5l49.4,5.1c0.3,0,0.6,0.3,0.5,0.7
									C637,127.3,636.7,127.5,636.3,127.5z"/>
							</g>
							<g>
								<path class="st12" d="M631.2,129.6l-44.6-4.6c-0.3,0-0.6-0.3-0.5-0.7c0-0.3,0.3-0.6,0.7-0.5l44.6,4.6c0.3,0,0.6,0.3,0.5,0.7
									C631.9,129.4,631.6,129.7,631.2,129.6z"/>
							</g>
						</g>
					</g>
					<g>
						<path class="st20" d="M581.3,137.1l-3.8-0.4c-0.4,0-0.7-0.4-0.6-0.8l0.4-3.8c0-0.4,0.4-0.7,0.8-0.6l3.8,0.4
							c0.4,0,0.7,0.4,0.6,0.8l-0.4,3.8C582,136.9,581.7,137.2,581.3,137.1z"/>
						<g>
							<g>
								<path class="st12" d="M635.1,139.3l-49.4-5.1c-0.3,0-0.6-0.3-0.5-0.7c0-0.3,0.3-0.6,0.7-0.5l49.4,5.1c0.3,0,0.6,0.3,0.5,0.7
									C635.8,139.1,635.5,139.3,635.1,139.3z"/>
							</g>
							<g>
								<path class="st12" d="M630,141.4l-44.6-4.6c-0.3,0-0.6-0.3-0.5-0.7c0-0.3,0.3-0.6,0.7-0.5l44.6,4.6c0.3,0,0.6,0.3,0.5,0.7
									C630.7,141.2,630.4,141.5,630,141.4z"/>
							</g>
						</g>
					</g>
					<g>
						<path class="st21" d="M580.1,148.9l-3.8-0.4c-0.4,0-0.7-0.4-0.6-0.8l0.4-3.8c0-0.4,0.4-0.7,0.8-0.6l3.8,0.4
							c0.4,0,0.7,0.4,0.6,0.8l-0.4,3.8C580.8,148.7,580.5,149,580.1,148.9z"/>
						<g>
							<g>
								<path class="st12" d="M633.9,151.1l-49.4-5.1c-0.3,0-0.6-0.3-0.5-0.7c0-0.3,0.3-0.6,0.7-0.5l49.4,5.1c0.3,0,0.6,0.3,0.5,0.7
									C634.6,150.9,634.3,151.1,633.9,151.1z"/>
							</g>
							<g>
								<path class="st12" d="M628.8,153.2l-44.6-4.6c-0.3,0-0.6-0.3-0.5-0.7c0-0.3,0.3-0.6,0.7-0.5l44.6,4.6c0.3,0,0.6,0.3,0.5,0.7
									C629.4,153,629.1,153.3,628.8,153.2z"/>
							</g>
						</g>
					</g>
					<g>
						<path class="st22" d="M578.9,160.7l-3.8-0.4c-0.4,0-0.7-0.4-0.6-0.8l0.4-3.8c0-0.4,0.4-0.7,0.8-0.6l3.8,0.4
							c0.4,0,0.7,0.4,0.6,0.8l-0.4,3.8C579.6,160.5,579.3,160.8,578.9,160.7z"/>
						<g>
							<g>
								<path class="st12" d="M632.7,162.9l-49.4-5.1c-0.3,0-0.6-0.3-0.5-0.7c0-0.3,0.3-0.6,0.7-0.5l49.4,5.1c0.3,0,0.6,0.3,0.5,0.7
									C633.3,162.7,633.1,162.9,632.7,162.9z"/>
							</g>
							<g>
								<path class="st12" d="M627.6,165l-44.6-4.6c-0.3,0-0.6-0.3-0.5-0.7c0-0.3,0.3-0.6,0.7-0.5l44.6,4.6c0.3,0,0.6,0.3,0.5,0.7
									C628.2,164.8,627.9,165,627.6,165z"/>
							</g>
						</g>
					</g>
					<g>
						<path class="st23" d="M577.7,172.5l-3.8-0.4c-0.4,0-0.7-0.4-0.6-0.8l0.4-3.8c0-0.4,0.4-0.7,0.8-0.6l3.8,0.4
							c0.4,0,0.7,0.4,0.6,0.8l-0.4,3.8C578.4,172.3,578.1,172.6,577.7,172.5z"/>
						<g>
							<g>
								<path class="st12" d="M631.5,174.7l-49.4-5.1c-0.3,0-0.6-0.3-0.5-0.7c0-0.3,0.3-0.6,0.7-0.5l49.4,5.1c0.3,0,0.6,0.3,0.5,0.7
									C632.1,174.5,631.8,174.7,631.5,174.7z"/>
							</g>
							<g>
								<path class="st12" d="M626.4,176.8l-44.6-4.6c-0.3,0-0.6-0.3-0.5-0.7c0-0.3,0.3-0.6,0.7-0.5l44.6,4.6c0.3,0,0.6,0.3,0.5,0.7
									C627,176.6,626.7,176.8,626.4,176.8z"/>
							</g>
						</g>
					</g>
				</g>
			</g>
			<g style="clip-path:url(#XMLID_00000013169887386806571560000010923524566553499327_);">
				<g>
					
						<rect x="610.3" y="245" transform="matrix(-0.9948 -0.102 0.102 -0.9948 1194.5149 567.3577)" class="st20" width="2.8" height="16.2"/>
					
						<rect x="610.2" y="251.2" transform="matrix(-0.9948 -0.1019 0.1019 -0.9948 1193.964 570.9847)" class="st19" width="2.8" height="7.6"/>
				</g>
				<g>
					
						<rect x="617.1" y="241.6" transform="matrix(-0.9948 -0.1019 0.1019 -0.9948 1208.3846 561.1989)" class="st20" width="2.8" height="16.2"/>
					
						<rect x="614.7" y="248.3" transform="matrix(0.102 -0.9948 0.9948 0.102 307.0172 839.5822)" class="st19" width="7.6" height="2.8"/>
				</g>
				<g>
					
						<rect x="623.1" y="245.4" transform="matrix(-0.9948 -0.1019 0.1019 -0.9948 1220.046 569.2885)" class="st20" width="2.8" height="16.2"/>
					
						<rect x="623.3" y="247.8" transform="matrix(-0.9948 -0.102 0.102 -0.9948 1220.5883 565.7239)" class="st19" width="2.8" height="7.6"/>
				</g>
				<g>
					
						<rect x="604.3" y="241.2" transform="matrix(-0.9948 -0.102 0.102 -0.9948 1182.8822 559.0836)" class="st20" width="2.8" height="16.2"/>
					
						<rect x="604.1" y="247.3" transform="matrix(-0.9948 -0.1019 0.1019 -0.9948 1182.3312 562.7108)" class="st19" width="2.8" height="7.6"/>
				</g>
				<g>
					
						<rect x="597.5" y="245.3" transform="matrix(-0.9948 -0.1019 0.1019 -0.9948 1168.8225 566.588)" class="st20" width="2.8" height="16.2"/>
					
						<rect x="597.2" y="252.1" transform="matrix(-0.9948 -0.102 0.102 -0.9948 1168.0614 571.465)" class="st19" width="2.8" height="7.6"/>
				</g>
				<g>
					
						<rect x="591.5" y="240.5" transform="matrix(-0.9948 -0.1019 0.1019 -0.9948 1157.4907 556.3707)" class="st20" width="2.8" height="16.2"/>
					
						<rect x="591.2" y="248.5" transform="matrix(-0.9948 -0.102 0.102 -0.9948 1156.3562 563.6622)" class="st19" width="2.8" height="7.6"/>
				</g>
				<g>
					
						<rect x="584.3" y="248.3" transform="matrix(-0.9948 -0.102 0.102 -0.9948 1142.2823 571.1919)" class="st20" width="2.8" height="16.2"/>
					
						<rect x="583.9" y="256.2" transform="matrix(-0.9948 -0.102 0.102 -0.9948 1141.1614 578.4583)" class="st19" width="2.8" height="7.6"/>
				</g>
				<g>
					
						<rect x="579" y="237.5" transform="matrix(-0.9948 -0.1019 0.1019 -0.9948 1132.7988 549.0557)" class="st20" width="2.8" height="16.2"/>
					
						<rect x="578.8" y="243.6" transform="matrix(-0.9948 -0.1019 0.1019 -0.9948 1132.2366 552.7039)" class="st19" width="2.8" height="7.6"/>
				</g>
				<g>
					
						<rect x="572.7" y="235.9" transform="matrix(-0.9948 -0.102 0.102 -0.9948 1120.4668 545.2603)" class="st20" width="2.8" height="16.2"/>
					
						<rect x="572.9" y="238.4" transform="matrix(-0.9948 -0.1019 0.1019 -0.9948 1121.0325 541.6522)" class="st19" width="2.8" height="7.6"/>
				</g>
				<g>
					
						<rect x="565.4" y="245.4" transform="matrix(-0.9948 -0.1019 0.1019 -0.9948 1104.7666 563.3905)" class="st20" width="2.8" height="16.2"/>
					
						<rect x="565.6" y="247.2" transform="matrix(-0.9948 -0.1019 0.1019 -0.9948 1105.5051 558.6005)" class="st19" width="2.8" height="7.6"/>
				</g>
				<g>
					
						<rect x="559.7" y="237.6" transform="matrix(-0.9948 -0.1019 0.1019 -0.9948 1094.3298 547.3687)" class="st20" width="2.8" height="16.2"/>
					
						<rect x="559.6" y="243.1" transform="matrix(-0.9948 -0.1019 0.1019 -0.9948 1093.9513 549.8152)" class="st19" width="2.8" height="7.6"/>
				</g>
				<g>
					
						<rect x="552.9" y="241.2" transform="matrix(-0.9948 -0.102 0.102 -0.9948 1080.4169 553.8007)" class="st20" width="2.8" height="16.2"/>
					
						<rect x="552.8" y="247.3" transform="matrix(-0.9948 -0.1019 0.1019 -0.9948 1079.8656 557.4301)" class="st19" width="2.8" height="7.6"/>
				</g>
				<g>
					
						<rect x="545.8" y="247.8" transform="matrix(-0.9948 -0.102 0.102 -0.9948 1065.5886 566.2304)" class="st20" width="2.8" height="16.2"/>
					
						<rect x="545.4" y="256.3" transform="matrix(-0.9948 -0.1019 0.1019 -0.9948 1064.2927 574.6843)" class="st19" width="2.8" height="7.6"/>
				</g>
				<g>
					
						<rect x="540.5" y="236.9" transform="matrix(-0.9948 -0.1019 0.1019 -0.9948 1056.1227 543.98)" class="st20" width="2.8" height="16.2"/>
					
						<rect x="540.3" y="243.6" transform="matrix(-0.9948 -0.1019 0.1019 -0.9948 1055.3718 548.8387)" class="st19" width="2.8" height="7.6"/>
				</g>
				<g>
					
						<rect x="534.9" y="229.2" transform="matrix(-0.9948 -0.102 0.102 -0.9948 1045.6741 527.9808)" class="st20" width="2.8" height="16.2"/>
					
						<rect x="534.7" y="235.9" transform="matrix(-0.9948 -0.1019 0.1019 -0.9948 1044.9347 532.819)" class="st19" width="2.8" height="7.6"/>
				</g>
				<g>
					
						<rect x="527.7" y="237" transform="matrix(-0.9948 -0.1019 0.1019 -0.9948 1030.4583 542.9655)" class="st20" width="2.8" height="16.2"/>
					
						<rect x="527.9" y="239.5" transform="matrix(-0.9948 -0.102 0.102 -0.9948 1031.0012 539.3975)" class="st19" width="2.8" height="7.6"/>
				</g>
				<g>
					
						<rect x="520.4" y="245.5" transform="matrix(-0.9948 -0.1019 0.1019 -0.9948 1015.0541 559.1208)" class="st20" width="2.8" height="16.2"/>
					
						<rect x="520.7" y="246.8" transform="matrix(-0.9948 -0.1019 0.1019 -0.9948 1015.9802 553.1224)" class="st19" width="2.8" height="7.6"/>
				</g>
				<g>
					
						<rect x="515" y="235.7" transform="matrix(-0.9948 -0.1019 0.1019 -0.9948 1005.2391 539.0722)" class="st20" width="2.8" height="16.2"/>
					
						<rect x="514.8" y="241.9" transform="matrix(-0.9948 -0.102 0.102 -0.9948 1004.6636 542.7424)" class="st19" width="2.8" height="7.6"/>
				</g>
				<g>
					
						<rect x="508.9" y="232.4" transform="matrix(-0.9948 -0.102 0.102 -0.9948 993.4416 531.8151)" class="st20" width="2.8" height="16.2"/>
					
						<rect x="509.1" y="234.3" transform="matrix(-0.9948 -0.1019 0.1019 -0.9948 994.1918 527.0056)" class="st19" width="2.8" height="7.6"/>
				</g>
				<g>
					
						<rect x="502" y="236.8" transform="matrix(-0.9948 -0.102 0.102 -0.9948 979.2885 539.8588)" class="st20" width="2.8" height="16.2"/>
					
						<rect x="501.6" y="245.4" transform="matrix(-0.9948 -0.1019 0.1019 -0.9948 977.9933 548.3126)" class="st19" width="2.8" height="7.6"/>
				</g>
				<g>
					
						<rect x="496.2" y="231.1" transform="matrix(-0.9948 -0.1019 0.1019 -0.9948 968.234 527.9026)" class="st20" width="2.8" height="16.2"/>
					
						<rect x="495.9" y="238.5" transform="matrix(-0.9948 -0.102 0.102 -0.9948 967.2864 533.9839)" class="st19" width="2.8" height="7.6"/>
				</g>
				<g>
					
						<rect x="489.6" y="232.6" transform="matrix(-0.9948 -0.1019 0.1019 -0.9948 954.9564 530.2776)" class="st20" width="2.8" height="16.2"/>
					
						<rect x="489.2" y="240.6" transform="matrix(-0.9948 -0.1019 0.1019 -0.9948 953.8354 537.5443)" class="st19" width="2.8" height="7.6"/>
				</g>
				<g>
					
						<rect x="483.5" y="229.9" transform="matrix(-0.9948 -0.1019 0.1019 -0.9948 942.9829 524.2161)" class="st20" width="2.8" height="16.2"/>
					
						<rect x="483.8" y="230.6" transform="matrix(-0.9948 -0.1019 0.1019 -0.9948 944.0952 517.0117)" class="st19" width="2.8" height="7.6"/>
				</g>
			</g>
			<g style="clip-path:url(#XMLID_00000013169887386806571560000010923524566553499327_);">
				<path class="st12" d="M626.8,280.9L498,267.7c-0.7-0.1-1.4,0.5-1.5,1.2c-0.1,0.7,0.5,1.4,1.2,1.5l128.9,13.2
					c0.7,0.1,1.4-0.5,1.5-1.2S627.6,281,626.8,280.9z"/>
				<path class="st12" d="M625.8,290.6L476,275.2c-0.7-0.1-1.4,0.5-1.5,1.2c-0.1,0.7,0.5,1.4,1.2,1.5l149.9,15.4
					c0.7,0.1,1.4-0.5,1.5-1.2C627.1,291.3,626.6,290.7,625.8,290.6z"/>
				<path class="st12" d="M561.9,293.8l-86.9-8.9c-0.7-0.1-1.4,0.5-1.5,1.2c-0.1,0.7,0.5,1.4,1.2,1.5l86.9,8.9
					c0.7,0.1,1.4-0.5,1.5-1.2S562.7,293.9,561.9,293.8z"/>
			</g>
			
				<path style="opacity:0.2;clip-path:url(#XMLID_00000013169887386806571560000010923524566553499327_);fill:#121212;fill-opacity:0.7;" d="
				M641.1,207.2c-4.4-0.4-6,6.7-6,6.7s-7-9.2-5.9-30.9c0,0-3.4-9.6-12.6-3.8c-9.2,5.8-18.7,26.2-16.5,48.5l-17.9-59.4
				c-6.2,1.3-18.7,9.6-15.4,49.7l-19.5-20.6c0,0-5.3-1.7-8.3,3c-3,4.7-1.6,38.1,0.9,50.7c2.5,12.5-3.8,37.7-3.8,37.7
				s-6.7-28.5-18.9-35.7l-46.4-95.6l-15.4,150.3l17.4,1.8l27.9-13.6c-0.2,6.3-0.3,12.1-0.8,16.4l139.4,14.3l10-97.4
				C646,217.1,642.7,207.3,641.1,207.2z"/>
			
				<use xlink:href="#XMLID_307_"  style="overflow:visible;fill:none;stroke:#121212;stroke-width:1.1483;stroke-linecap:round;stroke-linejoin:round;stroke-miterlimit:10;"/>
		</g>
		<g>
			<g>
				<g>
					<path class="st15" d="M663.3,478.5l-81.5,13.9c0,0-14.2-75.4-22.7-87.3c-8.5-11.9-6.9-16.8-11-24.8
						c-2.5-4.8-14.9-13.8-24.7-22.7h0c-0.8-0.8-1.7-1.5-2.5-2.3c-0.3-0.3-0.7-0.6-1-1c-1.3-1.3-2.5-2.5-3.6-3.8
						c-0.4-0.4-0.8-0.9-1.1-1.3c-2-2.5-3.5-4.9-3.9-7c0-0.1-0.1-0.2-0.1-0.4c0-0.1-0.1-0.3-0.1-0.4c-0.2-1.8-0.4-3.8-0.7-6
						c0-0.4-0.1-0.9-0.1-1.4c0-0.2,0-0.4-0.1-0.6c-0.2-1.8-0.4-3.8-0.7-5.8c-0.3-2.1-0.5-4.3-0.8-6.5c-0.1-0.8-0.2-1.5-0.3-2.3
						c0,0,0,0,0,0c-0.1-0.8-0.3-1.7-0.4-2.6c-0.1-0.7-0.3-1.5-0.4-2.2c0-0.1-0.1-0.2-0.1-0.3c-0.2-0.9-0.3-1.7-0.5-2.5
						c0-0.1,0-0.2-0.1-0.3c-0.2-0.7-0.3-1.5-0.5-2.2c-0.4-1.7-0.8-3.3-1.2-4.9c-0.9-3.2-1.9-6.1-3-8.7c-5.9-13.1,1.8-8.4-2.8-42.2
						c0,0,3.4-7.8,13-1.6c0.7,0.5,1.5,1,2.2,1.6h0c1.9,1.6,3.7,3.4,5.1,5.5c1.9,2.7,3.4,5.8,4.4,9.1c1.5,5,2,10.6,1.3,16.4
						c0,0,7.3,24.9,11.1,30.5c3.8,5.7,19.6-26.9,18.6-30.6c-0.2-0.8-0.5-2.6-0.8-5.1c-0.1-0.6-0.1-1.2-0.2-1.8
						c-0.1-0.6-0.1-1.3-0.2-2c0-0.3-0.1-0.7-0.1-1c0-0.1,0-0.3,0-0.4c-0.1-1.3-0.3-2.7-0.4-4.1c0-0.4-0.1-0.8-0.1-1.2
						c-0.1-0.7-0.1-1.4-0.2-2.1c0-0.1,0-0.2,0-0.3c0-0.4-0.1-0.8-0.1-1.2c-0.1-0.8-0.2-1.6-0.3-2.4c-0.1-0.7-0.1-1.4-0.2-2.1
						c-0.1-1.3-0.3-2.6-0.4-3.9c-0.1-1-0.2-1.9-0.3-2.8c0-0.2,0-0.4-0.1-0.6c-0.5-5.1-0.9-9.2-1-11c0,0-11.5-17-12.7-25
						c-1.2-8-1.1-16.5,3.7-19.9c11.4-8.1,8.1,5,13.2,10.4c5.1,5.4,12.9,14.3,17.4,17c4.1,2.6,7.7,12.7,8.3,14.1
						c-0.6-2.2-6.4-23.9-6.6-28.2c-0.1-4.6-3.7-28.9,2.3-37.6c6-8.7,13.9-2,14.6-0.2c0.7,1.7,1,25.3,3.1,31.8
						c2.1,6.5,10.9,33.8,10.9,33.8s0.4-26.5,2.4-38.4c2-11.9,7.1-21.2,12.2-21.7s9.7,5,9.7,5s-2,18.9-1.4,23.3
						c0.6,4.4-0.8,20.2,1.6,28.7c0,0-0.3-22.6,3.2-25.5c3.5-2.9,6.5-4.3,8.5-2.3c2,2,2.4,15.4,4.4,23.4c2,8.1,1.8,19,3.1,31.6
						c1.3,12.6,6.5,30,5.5,40c-1,10-4.2,34.7-6.8,49.2c-2.6,14.5-9.1,34.4-9.1,34.4s3,10.6,2.4,20.1
						C640,415.4,663.3,478.5,663.3,478.5z"/>
				</g>
				<g>
					<path class="st25" d="M594,204.3c1.6,4.9,6.8,21.1,9.4,29.2c0,0-11.4,8.4-11.1,16.2c0.3,7.8-2.1,23.5-7.2,23
						c-5.1-0.4-4.7-33.1-6.3-38.6c1,2.4,1.7,4.3,1.8,4.7c-0.4-1.4-6.5-23.9-6.6-28.4c0-1-0.2-3.1-0.5-5.8l0-0.1
						c0,0,11.3-10.8,19.6-4.2l0,0C593.4,201.9,593.7,203.3,594,204.3z"/>
					<path class="st25" d="M627.9,213.6c-5.3,5-13.3,13.9-14.3,22.5c0,0,3,23.9,1.7,34.4l-10.3-32.4c0,0,0.4-26.6,2.4-38.4
						c0.1-0.3,0.1-0.7,0.2-1c5.1-2.6,12-4.9,20.8-5.1c-0.4,5.1-0.7,10.6-0.5,12.7C627.9,207.8,627.9,210.4,627.9,213.6z"/>
					<path class="st25" d="M632.5,209.5L632.5,209.5C632.5,209.5,632.5,209.5,632.5,209.5c-0.2,0.1-0.5,0.4-0.9,0.8
						c0.3-0.5,0.6-1,0.9-1.5L632.5,209.5z"/>
					<path class="st25" d="M635.2,275.7c0,0-6.8-25.6-6.9-46.2c-0.1-7.6,0.8-14.6,3.3-19.3l0,0c0.3-0.5,0.6-1,0.9-1.5l0,0.7
						c1.5-1.2,2.8-2.1,4.1-2.7c-1.9,3-4.1,8.8-1.6,18.3C639,240,635.6,258.2,635.2,275.7z"/>
					<path class="st25" d="M541.2,324.5c0,0,1.8,24.4-17.8,33.1l0,0c-0.9-0.8-1.7-1.5-2.5-2.3c-0.3-0.3-0.7-0.6-1-1
						c-1.3-1.3-2.5-2.5-3.6-3.8c-0.4-0.4-0.8-0.9-1.1-1.3c-2-2.5-3.5-4.9-3.9-7c0-0.1-0.1-0.2-0.1-0.4c0-0.1-0.1-0.3-0.1-0.4
						c-0.2-1.8-0.4-3.8-0.7-6c0-0.4-0.1-0.9-0.1-1.4c0-0.2,0-0.4-0.1-0.6c-0.2-1.8-0.4-3.8-0.7-5.8c-0.3-2.1-0.5-4.3-0.8-6.5
						c-0.1-0.8-0.2-1.5-0.3-2.3c0,0,0,0,0,0c-0.1-0.9-0.3-1.7-0.4-2.6c-0.1-0.7-0.3-1.5-0.4-2.2c0-0.1,0-0.2-0.1-0.3
						c-0.2-0.9-0.3-1.7-0.5-2.5c0-0.1,0-0.2-0.1-0.3c-0.2-0.7-0.3-1.5-0.5-2.2c-0.4-1.7-0.8-3.3-1.2-4.9c7.8-7.5,25.6-2.8,17-20.1
						c0,0,4.4-14.8-7.7-30.8l0,0c8.2,6.6,12.4,18.3,10.9,31.1c0,0,7.3,24.9,11.1,30.5c3.8,5.7,19.6-26.9,18.6-30.7
						c-0.2-0.8-0.5-2.6-0.8-5.1c-0.1-0.6-0.1-1.2-0.2-1.8c-0.1-0.6-0.2-1.3-0.2-2c0-0.3-0.1-0.7-0.1-1c0-0.1,0-0.3,0-0.4
						c-0.1-1.3-0.3-2.7-0.4-4.1c0-0.4-0.1-0.8-0.1-1.2c-0.1-0.7-0.1-1.4-0.2-2.1c0-0.1,0-0.2,0-0.3c0-0.4-0.1-0.8-0.1-1.2
						c-0.1-0.8-0.2-1.6-0.3-2.4c-0.1-0.7-0.1-1.4-0.2-2.1c-0.1-1.3-0.3-2.6-0.4-3.9c-0.1-1-0.2-1.9-0.3-2.8c0-0.2,0-0.4-0.1-0.6
						c0.3,1.5,6.1,29.2,9.5,35.7C564.6,295.2,550.1,330.2,541.2,324.5z"/>
					<path class="st25" d="M647.2,351.4c-2.6,14.5-9.1,34.4-9.1,34.4s3,10.6,2.4,20.1c-0.2,2.5,1.4,9,3.8,17
						c-0.7-1.8-8-20.7-7.9-27.4c0.1-6.9-1.8-8.9-5.7-17.4c-3.9-8.5-9.8-7.6-9.8-7.6s-2.3,21.3-7.6,7.3c-5.3-14-6.4-30.3,7.1-86.8
						c0,0,2,7.1,0.3,28.1c-1.7,21.1,3.3,27.4,3.3,27.4S635,328.8,642,305c0,0-1.7,24.6-3.3,35.8c-1.6,11.2,5.5-13,10.5-27.9
						c4.6-14,4.8-19.3,3-29.3c1.3,7,2.3,13.7,1.8,18.6C653,312.2,649.8,336.9,647.2,351.4z"/>
					<path class="st25" d="M555.1,398.8c4,6.3,13.7,14.7,19.5,37.8c5.8,23.1,2.2,48.4,2.2,48.4L555.1,398.8z"/>
				</g>
				<path class="st9" d="M524.3,267.7c0,0-20.3,10.3-21.9,27.5c-5.9-13.1,1.8-8.4-2.8-42.2c0,0,3.4-7.8,13-1.6
					c0.7,0.5,1.5,1,2.2,1.6h0c1.9,1.6,3.7,3.4,5.1,5.5L524.3,267.7z"/>
				<g>
					<path class="st2" d="M581.8,492.4c0,0-14.2-75.4-22.7-87.3c-8.5-11.9-6.9-16.8-11-24.8c-4.1-8-35.5-27.5-36.9-38.9
						c-1.4-11.4-3-33.2-8.9-46.3c-5.9-13.1,1.8-8.4-2.8-42.2c0,0,3.4-7.8,13.1-1.6c9.6,6.3,14.7,18.8,13,32.6
						c0,0,7.3,24.9,11.1,30.5c3.8,5.7,19.6-26.9,18.6-30.7c-1-3.8-4.1-36.1-4.5-42c0,0-11.5-17-12.7-25c-1.2-8-1.1-16.5,3.7-19.9
						c11.4-8.1,8.1,5,13.2,10.4c5.1,5.4,12.9,14.3,17.3,17s8.3,14.3,8.3,14.3s-6.5-23.8-6.6-28.4c-0.1-4.6-3.7-28.9,2.3-37.6
						c6-8.7,13.9-2,14.6-0.2c0.7,1.7,1,25.2,3.1,31.8c2.1,6.6,10.9,33.8,10.9,33.8s0.4-26.5,2.4-38.4c2-11.9,7.2-21.2,12.2-21.7
						s9.7,5,9.7,5s-2,18.9-1.4,23.3c0.6,4.4-0.8,20.2,1.6,28.7c0,0-0.3-22.6,3.2-25.5c3.5-2.9,6.5-4.3,8.5-2.3
						c2,1.9,2.4,15.4,4.4,23.4c2,8.1,1.8,19,3.1,31.6c1.3,12.6,6.5,30,5.5,40c-1,10-4.2,34.7-6.8,49.3c-2.6,14.5-9.1,34.4-9.1,34.4
						s3,10.6,2.4,20.1c-0.6,9.5,22.7,72.5,22.7,72.5"/>
					<path class="st2" d="M604.9,238.1c2.4,5.6,8.2,29.1,10.3,32.4c2.1,3.3,4.5,4.2,4.5,4.2"/>
					<path class="st2" d="M629.3,235c0,0-0.5,4.8,2.1,20.2c2.6,15.4,3.9,21.9,5.3,25.4"/>
					<path class="st2" d="M580.6,238.8c3.2,9.4,5,24.3,6.8,28.8c1.8,4.5,3.4,5.4,3.4,5.4"/>
					<path class="st2" d="M585.8,261.3c0,0,3.3,2.5,4.4,5.6"/>
					<path class="st2" d="M536.6,314.6c0,0,1.7,12.4,9.5,11.5"/>
					<path class="st2" d="M555.2,284c0,0,2,14.8-1.3,21.1"/>
					<path class="st2" d="M617.5,284.1c0,0,5.2,3.2,1.7,12.6c-3.5,9.4-9.6,47.3-9.6,47.3"/>
					<path class="st2" d="M640.3,294c2.2,8.5,2.4,8.7-1.2,19.2c-3.6,10.4-9.3,36-9.3,36"/>
					<path class="st2" d="M638.2,385.9c0,0-3.4-6.9-0.6-12.6"/>
					<path class="st2" d="M559.1,405.1c0,0,8.7,12.2,12.4,25.8"/>
				</g>
			</g>
			<g>
				<polygon class="st20" points="622.8,192 625.1,189.6 626.2,189.3 626.1,190.5 624,193.2 				"/>
				<g>
					<defs>
						<path id="XMLID_303_" d="M624.7,193.2l-3.8,8.6L518.5,338.4l-11.4-7.3l15.5-19.4l92-115.4l8.1-5.2
							C622.7,191.2,624.4,191.6,624.7,193.2z"/>
					</defs>
					<use xlink:href="#XMLID_303_"  style="overflow:visible;fill:#6CC9FF;"/>
					<clipPath id="XMLID_00000129907149205429339580000003871606718543524782_">
						<use xlink:href="#XMLID_303_"  style="overflow:visible;"/>
					</clipPath>
					
						<path style="opacity:0.3;clip-path:url(#XMLID_00000129907149205429339580000003871606718543524782_);fill:#121212;fill-opacity:0.7;" d="
						M624.7,193.2l-3.8,8.6L518.5,338.4l-11.4-7.3l15.5-19.4c7.1-0.7,8.3,3.5,8.3,3.5L619.1,200c-0.9-3.1-4.5-3.7-4.5-3.7l8.1-5.2
						C622.7,191.2,624.4,191.6,624.7,193.2z"/>
					
						<use xlink:href="#XMLID_303_"  style="overflow:visible;fill:none;stroke:#121212;stroke-width:1.1483;stroke-linecap:round;stroke-linejoin:round;stroke-miterlimit:10;"/>
				</g>
				<g>
					<defs>
						<path id="XMLID_304_" d="M551.9,298c0,0-11.4,22.7-22.4,38.7l-7.9,2c0,0-18,17.9-29,26.9c0,0-2.8-1.6-5.4-4.5
							c0,0,15.6-30,32.9-49c0,0,2.5,0.8,5.7,3c1.9,1.3,4,3.2,5.9,5.7l19.3-24.2L551.9,298z"/>
					</defs>
					<use xlink:href="#XMLID_304_"  style="overflow:visible;fill:#6CC9FF;"/>
					<clipPath id="XMLID_00000169520319633236249880000009518823187681244840_">
						<use xlink:href="#XMLID_304_"  style="overflow:visible;"/>
					</clipPath>
					
						<path style="opacity:0.3;clip-path:url(#XMLID_00000169520319633236249880000009518823187681244840_);fill:#121212;fill-opacity:0.7;" d="
						M551.9,298c0,0-11.4,22.7-22.4,38.7l-7.9,2c0,0-18,17.9-29,26.9l0.3-4.9c11.9-18.2,27.1-38.1,32.9-45.6c1.9,1.3,4,3.2,5.9,5.7
						L521,335.1l6.1-1.1l23.8-37.4L551.9,298z"/>
					
						<use xlink:href="#XMLID_304_"  style="overflow:visible;fill:none;stroke:#121212;stroke-width:1.1483;stroke-linecap:round;stroke-linejoin:round;stroke-miterlimit:10;"/>
				</g>
			</g>
			<g>
				<path class="st15" d="M590.8,273l-32,31l-5.1,5c3.5-9,1.8-22.9,1.6-24.6c0,0,0,0,0,0c0-0.1,0-0.1,0-0.1c0-0.1,0-0.2,0-0.2
					c-0.2-0.8-0.5-2.6-0.8-5.1c-0.1-0.6-0.1-1.2-0.2-1.8c-0.1-0.6-0.2-1.3-0.2-2c0-0.3-0.1-0.7-0.1-1c0-0.1,0-0.3,0-0.4
					c-0.1-1.3-0.3-2.7-0.4-4.1c0-0.4-0.1-0.8-0.1-1.2c-0.1-0.7-0.1-1.4-0.2-2.1c0-0.1,0-0.2,0-0.3c0-0.4-0.1-0.8-0.1-1.2
					c-0.1-0.8-0.2-1.6-0.3-2.4c-0.1-0.7-0.1-1.4-0.2-2.1c-0.1-1.3-0.3-2.6-0.4-3.9c-0.1-1-0.2-1.9-0.3-2.8c0-0.2,0-0.4-0.1-0.6
					c-0.5-5-0.9-9.2-1-11c0,0-11.5-17-12.7-25c-1.2-8-1.1-16.5,3.7-19.9c11.4-8.1,8.1,5,13.2,10.4c5.1,5.4,12.9,14.3,17.3,17
					c4.4,2.8,8.3,14.3,8.3,14.3c3.2,9.4,5,24.3,6.8,28.8C589.2,272.1,590.8,273,590.8,273z"/>
				<path class="st2" d="M585.8,261.3c0,0,3.3,2.5,4.4,5.6"/>
				<path class="st25" d="M554.9,207.4c5.1,5.4,12.9,14.2,17.3,17c-0.6-0.3-8.8-4.3-13.3,0.1c-4.7,4.6-8.2,17.4-8.2,17.4
					s-11.5-17-12.7-25c-1.2-8-1.1-16.5,3.7-19.9C553.2,188.9,549.8,202,554.9,207.4z"/>
				<path class="st25" d="M558.8,304l-5.1,5c3.5-9,1.8-22.9,1.6-24.6c0,0,0,0,0,0c0-0.2,0-0.3,0-0.4c-0.2-0.8-0.5-2.6-0.8-5.1
					c-0.1-0.6-0.1-1.2-0.2-1.8c-0.1-0.6-0.2-1.3-0.2-2c0-0.3-0.1-0.7-0.1-1c0-0.1,0-0.3,0-0.4c-0.1-1.3-0.3-2.7-0.4-4.1
					c0-0.4-0.1-0.8-0.1-1.2c-0.1-0.7-0.1-1.4-0.2-2.1c0-0.1,0-0.2,0-0.3c0-0.4-0.1-0.8-0.1-1.2c-0.1-0.8-0.2-1.6-0.3-2.4
					c-0.1-0.7-0.1-1.4-0.2-2.1c-0.1-1.3-0.3-2.6-0.4-3.9c-0.1-1-0.2-1.9-0.3-2.8c0-0.2,0-0.4-0.1-0.6c0.3,1.5,6.1,29.2,9.5,35.7
					C562.4,291,561.3,297.3,558.8,304z"/>
				<path class="st2" d="M590.8,273c0,0-1.6-0.9-3.4-5.4c-1.8-4.5-3.6-19.4-6.8-28.8c0,0-3.9-11.5-8.3-14.3s-12.2-11.6-17.3-17
					c-5.1-5.4-1.8-18.5-13.2-10.4c-4.8,3.4-4.9,11.9-3.7,19.9c1.2,8,12.7,25,12.7,25c0.5,5.9,3.5,38.2,4.5,42"/>
				<path class="st2" d="M555.2,284c0,0,2,14.8-1.3,21.1"/>
			</g>
		</g>
	</g>
</g>
<g id="Left_hand">
	<g>
		<path class="st9" d="M358.9,302.1c0,0,7.3,33.7-8.5,58.3c-15.7,24.6-27.9,31.1-33.3,38.4c-5.5,7.3-26.8,48.3-26.8,48.3l-24.9-73.8
			l24.9-91.3L358.9,302.1z"/>
		<g>
			<defs>
				<polygon id="XMLID_309_" points="505.7,276.3 351.2,341.3 335.3,348 305.3,276.7 235.6,111.1 406,39.3 				"/>
			</defs>
			<use xlink:href="#XMLID_309_"  style="overflow:visible;fill:#FFFFFF;"/>
			<clipPath id="XMLID_00000031915097408993979250000002216632318207407283_">
				<use xlink:href="#XMLID_309_"  style="overflow:visible;"/>
			</clipPath>
			<path style="clip-path:url(#XMLID_00000031915097408993979250000002216632318207407283_);fill:#121212;" d="M362,70.1l-73.6,31
				c-1.4,0.6-2,2.2-1.4,3.6c0.6,1.4,2.2,2,3.6,1.4l73.6-31c1.4-0.6,2-2.2,1.4-3.6C364.9,70.2,363.4,69.6,362,70.1z"/>
			<path style="clip-path:url(#XMLID_00000031915097408993979250000002216632318207407283_);fill:#121212;" d="M347.9,88.2
				l-36.8,15.5c-0.7,0.3-1,1.1-0.7,1.8c0.3,0.7,1.1,1,1.8,0.7L349,90.7c0.7-0.3,1-1.1,0.7-1.8C349.4,88.2,348.6,87.9,347.9,88.2z"/>
			<g style="clip-path:url(#XMLID_00000031915097408993979250000002216632318207407283_);">
				<g>
					<path class="st22" d="M408.4,182.5c0,0,1.6,12.2-3,14.1c-4.1,1.7-9.6-4.8-14.4-2.8c-4.8,2-1,19.3-5.6,21.2
						c-4.6,1.9-10.1-5.2-14.1-3.5c-4,1.7-1.6,10.6-5.7,12.3c-3.4,1.4-8.2-5.6-12.1-7.2c-0.8-0.3-1.6-0.4-2.3-0.1
						c-4,1.7-2,20.3-5.5,21.7c-1.2,0.5-2.2,0.6-3.1,0.5c-1.4-0.1-2.6-0.5-3.9-0.4c-0.5,0-1,0.2-1.5,0.4c-3,1.3-2.6,11-5.3,12.2
						c-2.7,1.1-5.4-0.3-8.3,0.9c-2.9,1.2-2.9,6.3-7.2,8.1l1.8,4.4l105.8-44.5"/>
					<polyline class="st2" points="297,213.4 318.4,264.3 429.1,217.7 					"/>
					<path class="st20" d="M416.9,202.7c0,0-0.5-0.6-1.3-1.4c-1.4-1.3-3.5-3-5.2-2.3c-1.6,0.7-1.8,3.4-1.7,6.2c0,3.5,0.3,7.2-1.4,8
						c-1.5,0.6-2.8-0.3-4.2-1.3c-1.6-1.2-3.2-2.5-5.1-1.6c-3.3,1.4-2.3,5.6-3.4,9.3c-0.6,1.9-1.7,3.6-4.3,4.6
						c-2.8,1.2-5.7,0-8.4-1.8c-4.6-3.1-8.6-8.1-11.3-7c-4.2,1.8,0.4,13.2-4.1,15.1c-2.5,1.1-7.8-6.9-12.9-13.8
						c-4-5.4-8-10.2-10.4-9.1c-5.5,2.3,3.5,29.5-0.4,31.2c0,0-0.1,0-0.1,0c-1.7,0.7-2.9,0.2-3.9-0.4c-1.4-0.8-2.6-2-4.2-1.3
						c-2.9,1.2-1.2,11.9-4.4,13.3c-3.2,1.4-5.2-0.6-8.8,0.9c-3.1,1.3-4.9,8.7-4.9,8.7l1.8,4.4l105.8-44.5"/>
				</g>
				<path class="st12" d="M394.6,239l-36.8,15.5c-0.7,0.3-1,1.1-0.7,1.8c0.3,0.7,1.1,1,1.8,0.7l36.8-15.5c0.7-0.3,1-1.1,0.7-1.8
					C396,239.1,395.2,238.7,394.6,239z"/>
				<g>
					<g>
						<path class="st22" d="M425.7,182.9l-3.6,1.5c-0.4,0.2-0.8,0-0.9-0.4l-1.5-3.6c-0.2-0.4,0-0.8,0.4-0.9l3.6-1.5
							c0.4-0.2,0.8,0,0.9,0.4l1.5,3.6C426.3,182.4,426.1,182.8,425.7,182.9z"/>
						<g>
							<g>
								<path class="st12" d="M442.9,172.1l-14.7,6.2c-0.3,0.1-0.7,0-0.8-0.3c-0.1-0.3,0-0.7,0.3-0.8l14.7-6.2
									c0.3-0.1,0.7,0,0.8,0.3C443.4,171.6,443.2,171.9,442.9,172.1z"/>
							</g>
							<g>
								<path class="st12" d="M439.5,176.4l-10.2,4.3c-0.3,0.1-0.7,0-0.8-0.3c-0.1-0.3,0-0.7,0.3-0.8l10.2-4.3
									c0.3-0.1,0.7,0,0.8,0.3C439.9,175.9,439.8,176.3,439.5,176.4z"/>
							</g>
						</g>
					</g>
					<g>
						<path class="st20" d="M430.3,193.9l-3.6,1.5c-0.4,0.2-0.8,0-0.9-0.4l-1.5-3.6c-0.2-0.4,0-0.8,0.4-0.9l3.6-1.5
							c0.4-0.2,0.8,0,0.9,0.4l1.5,3.6C430.9,193.3,430.7,193.7,430.3,193.9z"/>
						<g>
							<g>
								<path class="st12" d="M447.5,183l-14.7,6.2c-0.3,0.1-0.7,0-0.8-0.3c-0.1-0.3,0-0.7,0.3-0.8l14.7-6.2c0.3-0.1,0.7,0,0.8,0.3
									C448,182.5,447.8,182.9,447.5,183z"/>
							</g>
							<g>
								<path class="st12" d="M444.1,187.3l-10.2,4.3c-0.3,0.1-0.7,0-0.8-0.3c-0.1-0.3,0-0.7,0.3-0.8l10.2-4.3
									c0.3-0.1,0.7,0,0.8,0.3C444.5,186.8,444.4,187.2,444.1,187.3z"/>
							</g>
						</g>
					</g>
				</g>
			</g>
			<g style="clip-path:url(#XMLID_00000031915097408993979250000002216632318207407283_);">
				<path class="st12" d="M466.8,228l-119.4,50.3c-0.7,0.3-1,1.1-0.7,1.8c0.3,0.7,1.1,1,1.8,0.7l119.4-50.3c0.7-0.3,1-1.1,0.7-1.8
					C468.3,228.1,467.5,227.8,466.8,228z"/>
				<path class="st12" d="M470.6,237l-138.8,58.4c-0.7,0.3-1,1.1-0.7,1.8c0.3,0.7,1.1,1,1.8,0.7l138.8-58.4c0.7-0.3,1-1.1,0.7-1.8
					C472.1,237.1,471.3,236.7,470.6,237z"/>
				<path class="st12" d="M474.4,246l-138.8,58.4c-0.7,0.3-1,1.1-0.7,1.8c0.3,0.7,1.1,1,1.8,0.7l138.8-58.4c0.7-0.3,1-1.1,0.7-1.8
					C475.9,246.1,475.1,245.7,474.4,246z"/>
				<path class="st12" d="M478.2,255l-138.8,58.4c-0.7,0.3-1,1.1-0.7,1.8c0.3,0.7,1.1,1,1.8,0.7l138.8-58.4c0.7-0.3,1-1.1,0.7-1.8
					C479.7,255.1,478.9,254.7,478.2,255z"/>
				<path class="st12" d="M423.7,288.6l-80.5,33.9c-0.7,0.3-1,1.1-0.7,1.8c0.3,0.7,1.1,1,1.8,0.7l80.5-33.9c0.7-0.3,1-1.1,0.7-1.8
					C425.1,288.6,424.3,288.3,423.7,288.6z"/>
			</g>
			<g style="clip-path:url(#XMLID_00000031915097408993979250000002216632318207407283_);">
				<g>
					<g>
						<path class="st22" d="M379.3,113.3c0,0,1.6,12.2-3,14.1c-4.1,1.7-9.6-4.8-14.4-2.8c-4.8,2-1,19.3-5.6,21.2
							c-4.6,1.9-10.1-5.2-14.1-3.5c-4,1.7-1.6,10.6-5.7,12.3c-3.4,1.4-8.2-5.6-12.1-7.2c-0.8-0.3-1.6-0.4-2.3-0.1
							c-4,1.7-2,20.3-5.5,21.7c-1.2,0.5-2.2,0.6-3.1,0.5c-1.4-0.1-2.6-0.5-3.9-0.4c-0.5,0-1,0.2-1.5,0.4c-3,1.3-2.6,11-5.3,12.2
							c-2.7,1.1-5.4-0.3-8.3,0.9c-2.9,1.2-2.9,6.3-7.2,8.1l1.8,4.4L395,150.6"/>
						<path class="st19" d="M386.1,129.5c0,0,1,5.9-1.4,6.9c-1.9,0.8-3.1-0.3-5.2-0.4c-0.8,0-1.8,0.1-3,0.6c-1.9,0.8-2.3,3.3-2.7,6
							c-0.4,3.3-0.6,7-3.1,8c-1.7,0.7-3.6,0.3-5.5-0.4c-3-1.1-6.2-2.7-9.3-1.4c-1.5,0.6-2.5,2.3-3.4,4.3c-1.9,4.7-2.5,11.6-4.6,12.5
							c-3,1.2-8.4-3.8-11-2.7c-2.6,1.1-1.5,5.7-3.7,6.6c-2.1,0.9-3.3-1.7-7.1-0.2c-3.7,1.6-1.9,7.1-7.2,9.3
							c-5.3,2.2-7.6-1.9-12.7,0.3c-5.1,2.1-4.2,6-7.8,7.5c-3.6,1.5-5.1-1.1-7.7,0c-2.5,1.1-3.2,5.2-3.2,5.4l1.4,3.3L395,150.6"/>
					</g>
					<polyline class="st2" points="267.8,144.2 289.2,195.1 400,148.5 					"/>
				</g>
				<path class="st12" d="M365.1,169l-36.8,15.5c-0.7,0.3-1,1.1-0.7,1.8c0.3,0.7,1.1,1,1.8,0.7l36.8-15.5c0.7-0.3,1-1.1,0.7-1.8
					C366.6,169.1,365.8,168.7,365.1,169z"/>
				<g>
					<g>
						<path class="st22" d="M394.8,109.3l-3.6,1.5c-0.4,0.2-0.8,0-0.9-0.4l-1.5-3.6c-0.2-0.4,0-0.8,0.4-0.9l3.6-1.5
							c0.4-0.2,0.8,0,0.9,0.4l1.5,3.6C395.3,108.7,395.1,109.2,394.8,109.3z"/>
						<g>
							<g>
								<path class="st12" d="M411.9,98.4l-14.7,6.2c-0.3,0.1-0.7,0-0.8-0.3c-0.1-0.3,0-0.7,0.3-0.8l14.7-6.2c0.3-0.1,0.7,0,0.8,0.3
									C412.4,98,412.2,98.3,411.9,98.4z"/>
							</g>
							<g>
								<path class="st12" d="M408.5,102.8l-10.2,4.3c-0.3,0.1-0.7,0-0.8-0.3c-0.1-0.3,0-0.7,0.3-0.8l10.2-4.3
									c0.3-0.1,0.7,0,0.8,0.3C408.9,102.3,408.8,102.6,408.5,102.8z"/>
							</g>
						</g>
					</g>
					<g>
						<path class="st19" d="M399.4,120.2l-3.6,1.5c-0.4,0.2-0.8,0-0.9-0.4l-1.5-3.6c-0.2-0.4,0-0.8,0.4-0.9l3.6-1.5
							c0.4-0.2,0.8,0,0.9,0.4l1.5,3.6C399.9,119.7,399.7,120.1,399.4,120.2z"/>
						<g>
							<g>
								<path class="st12" d="M416.5,109.4l-14.7,6.2c-0.3,0.1-0.7,0-0.8-0.3c-0.1-0.3,0-0.7,0.3-0.8l14.7-6.2
									c0.3-0.1,0.7,0,0.8,0.3C417,108.9,416.8,109.2,416.5,109.4z"/>
							</g>
							<g>
								<path class="st12" d="M413.1,113.7l-10.2,4.3c-0.3,0.1-0.7,0-0.8-0.3c-0.1-0.3,0-0.7,0.3-0.8l10.2-4.3
									c0.3-0.1,0.7,0,0.8,0.3C413.5,113.2,413.4,113.6,413.1,113.7z"/>
							</g>
						</g>
					</g>
				</g>
			</g>
			
				<path style="opacity:0.2;clip-path:url(#XMLID_00000031915097408993979250000002216632318207407283_);fill:#121212;fill-opacity:0.7;" d="
				M351.2,341.3l-15.9,6.7l-30-71.3c1.9-1.8,4.1-4.9,5-9.8c1.8-9.6,0.5-40.3,24.4-43.4c23.9-3.2,3.7,50.6,4.8,60.9
				C340.6,293.6,354.2,320.7,351.2,341.3z"/>
			
				<use xlink:href="#XMLID_309_"  style="overflow:visible;fill:none;stroke:#121212;stroke-width:1.1483;stroke-linecap:round;stroke-linejoin:round;stroke-miterlimit:10;"/>
		</g>
		<g>
			<path class="st15" d="M341.6,288.1c2.7-9.2,13.2-38.6,11.8-51.6c-0.1-1.2-0.4-2.2-0.7-3.2c-3.7-9.7-18.7-8.8-24.5-0.7
				c-6.3,8.9-11.5,24.8-12,34.5c-0.2,5.4-2.5,10.3-4.5,13.6c0,0,0,0,0,0c-1.6,2.7-3,4.3-3,4.3l-34.3-81.3c0,0-5.5,4.5-9,10
				c-1.4,2.2-2.4,4.6-2.6,7c-0.7,8-9.8,40.9-13.5,54.8c-0.1,0.3-0.2,0.6-0.2,0.9c-3.6,13.3,5.9,62.9,3.2,77.3
				c-2.7,14.4-4.4,14.1-4.8,24.3c-0.3,7.5-11,30.2-22.9,53.5c-6.9,13.4-14.1,26.9-20.1,37.9l87.6-3.6c1.5-10.6,3.1-21.9,4.5-32.8
				c0.6-4.5,1.5-9.1,2.6-13.5c0,0,0,0,0,0c1.9-7.8,4.3-14.9,5.7-19c2.2-6.5,4.6-18.5,4.6-18.5c10.2-10.8,23.6-27.7,27.4-39.2
				c0,0,0-0.1,0-0.1c1-2.9,1.3-5.4,0.9-7.5c-0.4-1.7-0.6-3.8-0.7-6.3c0,0,0,0,0,0C336.5,316.5,339.3,295.8,341.6,288.1z"/>
			<path class="st25" d="M311.7,280.8c-2.7,5.5-6,10.8-8.1,16.9c-2.1,6.1-4.3,7-10.5,11.8c-6.1,4.8-10.6-3.1-10.6-3.1
				s8.1-8.4,5.4-13.1c-2.7-4.7-12.8-16.4-12.2-22.8c0.6-6.4-6.1-20.9-6.1-20.9s15.3-9,12.3-19.5c-1.6-5.7-9.6-11.9-16.5-16.2
				c3.4-5.5,9-10,9-10l34.3,81.3C308.6,285.1,310,283.5,311.7,280.8z"/>
			<path class="st25" d="M256.1,330.7c0.2,0.7,5.2,17.1,1,24c-4.3,7-8.5,15.9-6.5,25.3c1.6,7.4-12.1,34.3-26.2,51.6
				c12-23.3,22.6-46,22.9-53.5c0.4-10.2,2.1-9.9,4.8-24.3c2.7-14.4-6.8-64-3.2-77.3c0.1-0.3,0.2-0.6,0.2-0.9
				c2.7,15.1,8.9,45.2,10.6,54.9C262,342.8,256.3,331.2,256.1,330.7z"/>
			<path class="st25" d="M287.6,430c10.2-43.8,44.5-77.5,49.1-87.2c-3.9,11.5-17.2,28.4-27.4,39.2c0,0-2.3,12-4.6,18.5
				c-1.4,4.1-3.8,11.2-5.7,19c0,0,0,0,0,0C289.1,431.2,287.6,430,287.6,430z"/>
			<path class="st25" d="M341.6,288.1c-2.2,7.6-5.1,28.3-4.6,40.8c-1.8-7.8-5.3-17.7-5.8-31.5c-1-23.4,12.3-15,7.7-26.6
				c-4.6-11.5-17.8,3.3-11.3-21.2c4.7-17.8,18.3-17.7,25.2-16.3c0.4,0.9,0.6,2,0.7,3.2C354.7,249.5,344.3,279,341.6,288.1z"/>
			<g>
				<path class="st2" d="M217.6,445.1c11-20.1,21.7-40.7,29.4-63c0.9-3.2-0.3-7.4,0.6-10.6c10.4-28.9-1.4-59.1,0.5-88.7
					c1.6-11.7,5.4-23.4,9.1-35.2c1.8-8.5,2.4-18,5.2-26.6c2.9-6.5,5.8-14,11.9-17.3c11.7,26.8,23.4,53.8,34.3,81.3
					c4.9-2.8,5.7-9.2,6.5-14.5c2.6-12.8,5.3-24.5,10.1-35.3c4.9-8.6,17.4-12.3,25.1-5.3c2.2,2,3.4,5.1,3.5,8.3
					c-1.5,14.8-6.2,29.8-10.9,43.7c-1.8,6.4-3.7,11.8-4.5,18.1c0.1,2.1,0.1,3.2,0.2,5.3c-2.7,10.7-0.2,20.1-0.8,30.6
					c-2.4,19.1-17.7,32.4-28.7,46.6c-2.7,10.7-5.4,21.3-9.2,32c-4.6,16-6.1,31.9-7.6,47.4"/>
				<path class="st2" d="M308.6,285.1c0,0-3.6,6.9-5,12.5c-1.4,5.6-8.7,4.8-12.5,8.3"/>
				<path class="st2" d="M281.2,275.2c0,0,9.9,3.5,15.6,8c5.8,4.5,10,5.6,10,5.6"/>
				<path class="st2" d="M274.9,250.7c0,0,8,2.2,13.9-0.6c0,0,0.4-4.9,1.5-8.5"/>
				<path class="st2" d="M290.7,251.3c0,0,0.1,1.1,4.2,1.2"/>
				<path class="st2" d="M309.3,382c0,0-7.8,7.1-12.5,19.8"/>
				<path class="st2" d="M248.5,278.9c-0.4,6.9,7.7,31.3,10.2,43.5c2.5,12.1,3.4,20.7,3.4,20.7"/>
			</g>
		</g>
	</g>
</g>
</svg>
